<?xml version="1.0" encoding="utf-8"?>
<!-- Generator: Adobe Illustrator 18.0.0, SVG Export Plug-In . SVG Version: 6.00 Build 0)  -->
<!DOCTYPE svg PUBLIC "-//W3C//DTD SVG 1.1//EN" "http://www.w3.org/Graphics/SVG/1.1/DTD/svg11.dtd">
<svg version="1.1" xmlns="http://www.w3.org/2000/svg" xmlns:xlink="http://www.w3.org/1999/xlink" x="0px" y="0px"
	 viewBox="0 0 180 120" enable-background="new 0 0 180 120" xml:space="preserve">
<g id="Layer_1">
	<path fill="#BF2600" d="M99.5,71.9c0.2,0.9-2.3,2.2-2.2,3.1c0.1,1.5,0.2,3,0.3,4.4c0,0.2,0,0.3,0.1,0.4c0.3,0.4,0.7,0.8,1.1,1.2
		c0.3-0.4,0.8-0.9,0.9-1.4c0.2-1.3,0.1-2.5,0.1-3.8c0-0.6,0-1.3-0.1-1.9C99.7,73.2,99.8,72,99.5,71.9c-0.8-0.3-1.8-0.3-2.8-0.3
		c-0.8,0-1.6,0.2-2.5,0.3c-0.1,2.2-1.7,2.6-3.4,2.5c-2.2-0.1-4.4-0.1-6.6-0.3c-1.1-0.1-1.5-0.8-1.4-2c0.2-2.9,0.1-5.8,0.1-8.9
		c0.4,0,0.8-0.2,1.2-0.2c2.4,0,4.9,0,7.4,0c2.4,0,2.4,0,3.4,2.1c0.7-0.1,1.4-0.3,2.3-0.4c0-1.3,0-2.7,0-4c0-1,0.1-1.9,1.4-2.1
		c0.3,0,0.5-1.2,0.6-1.9c0,0-0.7-0.3-1.1-0.4c-0.7-0.1-1.3-0.1-2-0.2c0.5-2.5,2.3-3.8,4.6-3.2c0.4,0.1,0.8,0.8,0.8,1.3
		c0.1,0.7,0,1.5,0,2.2c0,0.7,0,1.5,0,2.2c1,0.2,2,0.3,3,0.5c0.1-0.1,0.2-0.2,0.3-0.3c-0.6-1.3-1.2-2.5-1.7-3.8
		c-0.3-0.6-0.3-1.3-0.4-1.9c0.4,0.7,0.8,1.4,1.3,2c0.2,0.3,0.6,0.6,0.8,0.6c0.7-0.2,1.3-0.5,2.1-0.8c-0.3-0.4-0.6-0.8-0.9-1.1
		c-0.7-0.6-1.4-1.2-2.1-1.8c1.2-1.5,2.3-3.1,3.4-4.6c-2.3-1.1-4.5-2.2-6.8-3.3c0.8,2.8,1.2,5.8,3.5,7.9c-0.3-0.1-0.6-0.2-0.9-0.2
		c-0.1,0.5-0.2,0.9-0.3,1.3c-0.3-0.8-0.6-1.8-1-2.5c-1.7-2.8-2.1-5.9-2.5-9c-0.2-1-0.6-2-0.9-3.1c-1.9,0.3-2.8,1.3-2.5,3
		c0.3,2.1,0.7,4.1,1,6.2c0.1,0.9,0.3,1.8,0.2,2.7c0,0.5-0.4,1-0.8,1.3c-2.6,1.9-5.6,1.8-8.6,1.7c-1.9-0.1-3.8-0.5-5.7-0.8
		c-0.4,0-0.8-0.1-1.3-0.2c-0.3-3.1-0.7-6.2-1-9.2c-0.2-1.5-0.9-2.2-2.4-1.9c-0.2,0-0.4,0.1-0.7,0c0.2-0.1,0.4-0.3,0.6-0.3
		c-1.4-1-2.8-2.1-4.3-3c-0.5-0.3-1.2-0.5-1.7-0.7c-2-0.9-4.1-1.7-6-2.7c-2.4-1.3-3-3.9-1.7-6.2c0.7-1.2,1.1-2.5,1.6-3.8
		c0.6-1.5,1.2-3.1,1.7-4.7c1.3-4.3,4.1-7.4,7.5-10C79,6.3,84.5,4.5,90.6,5.9c5.4,1.2,10,4,13.1,8.9c1.8,3,3.1,6.1,3.9,9.4
		c0.1,0.4,0.6,0.8,0.9,1.1c0.6,0.7,1.3,1.4,1.8,2.2c0.8,1.6-1.5,5.5-3.5,5.4c-1.6,0-2.5,0.9-3.6,1.7c-1.6,1.2-3,2.5-4.8,3.9
		c1.6,0.9,3,1.8,4.5,2.5c2.6,1.3,5.4,2.2,7.4,4.5c-1.2-0.4-1.5,0.7-2.1,1.3c2.3,1.7,3.8,3.8,4.9,6.4c0.1,0.3,0.5,0.5,0.8,0.5
		c1.6,0,2.5-1.5,1.8-2.9c-1-2-2.9-3.1-4.6-4.4c-0.3-0.3-0.5-0.7-0.8-1c1.1,0.8,2.3,1.6,3.3,2.4c1.7,1.3,2.9,3,2.9,5.1
		c0,2.4-0.1,4.8-0.4,7.1c-0.1,1-0.9,1.8-1.4,2.8c0.4-1.1,0.8-2.2,1.3-3.3c-1.9-0.3-2-0.2-2.4,1.3c-0.1,0.4-0.2,0.8-0.3,1.2
		c-0.3,0.7-0.1,1.2,0.6,1.4c0.1,1.2,0.2,2.3,0.2,3.5c0.2,0.1,0.5,0.3,0.9,0.4c1.3,0.6,1.4,0.9,1.1,2.3c-0.6,2.3-1.8,3.8-4.1,4.4
		c-0.4,0.1-1.1,0.3-1.4,0.1c-1.4-0.8-2.6,0.1-3.9,0.3c0,0.3-0.1,0.7-0.1,1c0,1.9,0,3.8,0.1,5.7c0.2,3.6,0,7.1-0.6,10.6
		c-0.3,2.1,0,4.2,0.1,6.3c0,0.3,0.5,0.7,0.8,0.8c6,1.1,8.6,5.8,8.8,11.1c0.1,2.1-0.8,3-3.3,3.7c-2.5,0.8-5,0.4-7.6,0.3
		c-4.6-0.3-9.2-0.8-13.7-2.1c-1.1-0.3-1.9-0.4-3.2,0c-6.2,2.1-12.5,2.6-19,1.5c-1.1-0.2-2.2-0.6-3.2-1.1c-2.7-1.5-3.3-3.6-2.4-6.4
		c0.8-2.3,2.2-4.4,4.5-5.6c0.6-0.3,1.7-0.6,1.8-1.1c0.5-1.6,0.8-3.3,0.9-4.9c0-1.2-0.3-2.3-0.6-3.5c-0.5-1.8-0.4-3.5,0.1-5.3
		c0.8-2.9,1-5.9,0.7-8.7c-1.7,0-3.3,0.2-4.8-0.1c-1-0.2-2-0.8-2.8-1.4c-0.5-0.3-0.9-1.2-0.8-1.7c0-0.4,0.8-0.8,1.3-1.2
		c0.4-0.2,0.8-0.3,1-0.3c-0.8-1.1-1.5-2.2-2.4-3.3c-0.2-0.2-0.5-0.3-0.8-0.4c-2.3-0.6-3.4-2.9-2.7-5.2c0.2-0.7,0-1.5,0-2.2
		c0-2.2-0.2-4.3-0.1-6.5c0.1-1.9,4.8-6.6,6.3-8c-0.5,1-4.9,5-5.4,6c-0.4,0.8-0.3,1.4,0.8,1.5c0.5,0.1,1,0.3,1.6,0.5
		c0.5-2,2-3.2,3.5-4.2c1.1-0.7,0.9-1.4,0.5-2.2c-0.3-0.6-0.7-1.1-1.1-1.7c0.8-0.4,1.7-0.7,2.4-1.1c1.2-0.7,2.3-1.4,3.5-2
		c0.3-0.2,0.9-0.1,1.1,0.1c0.6,0.6,1.1,1.3,1.8,2.1c0.7,0,1.1-0.4,0.9-1.3c-0.1-0.5,0.1-0.9,0-1.3c-0.2-0.8,0.1-1.3,0.8-1.4
		c1,5-0.1,9.7-1.4,14.8c1.2-0.8,2.3,0.2,3.5-0.5c1.3-0.7,3.2,1,3.3,2.5c0.2,1.9,0.2,3.8-0.6,5.7c0.6,0.2,1.1,0.3,1.6,0.4
		c0,0.1,0,0.1,0,0.2c-1.6,0.2-3.3,0.3-5.1,0.4c-0.1,1.3-0.3,3.1-0.4,4.7c0,0.4,0.3,1.1,0.5,1.1c0.6,0.1,1.3,0.1,1.8-0.3
		c0.4-0.3,0.5-1,0.7-1.6c0.2-0.5,0.3-1,0.5-1.5c0.4,1.1-1.2,2.6,1.1,3.4c-1,0.1-1.7,0.2-2.4,0.3c-0.1,2.3,0,4.6-0.4,6.8
		c-0.1,0.7-1.3,1.3-1.9,1.9c1-0.8,1.6-1.8,1.5-3.3c-0.2-1.7,0-3.3,0-5.3c-0.4,0.5-0.9,0.9-0.9,1.3c-0.2,2.4-0.3,4.8-0.5,7.2
		c0,0.1,0.1,0.2,0.1,0.3c-0.1,0-0.2,0.1-0.3,0.1c-0.1-0.7-0.3-1.3-0.3-2c0.1-1.9,0.2-3.8,0.4-5.8c0.1-0.8-0.2-1.3-0.9-1.7
		c0.2-2,0.3-3.9,0.5-5.9c-0.8,0-1.6-0.1-2.3-0.1c-0.2,0.9-0.4,1.9-0.5,3c-0.3,1.9,0.5,2.9,2.4,3c-0.2,0.9-0.6,1.8-0.6,2.8
		c-0.1,1.4-0.1,2.8,0,4.3c0.1,1.5-0.4,2.5-2.1,3.1c0.1-2.7,0.3-5.3,0.4-7.9c-0.4-0.1-0.9-0.2-1.3-0.2c-0.2,0-0.5,0.5-0.5,0.8
		c0.2,1.8,0.5,3.6,0.5,5.3c-0.1,1.9-0.3,3.8-0.8,5.7c-0.5,2.1-0.7,4.1,0,6.2c0.9,2.7,0.5,5.4-0.3,8.1c1.3-0.1,2.6-0.4,3.8-0.2
		c2.3,0.4,4.6,1.1,6.9,1.7c1.3,0.3,2.5,0.7,3.8,0.9c0.5,0.1,1.1,0.1,1.8,0.1c-0.7-1.6-0.2-2.9,0.1-4.3c0.3-1.7,0.1-3.4,0.1-5.1
		c0.1-1.6,0.2-3.2,0.3-4.8c0-0.4,0.2-0.9,0.2-1.3c0.1-1.7-0.6-2.4-2.2-2.5c-0.4,0-0.9,0-1.3-0.1c1.2-0.4,2.4-0.6,3.6,0.1
		c1,0.6,0.9,1.7,0.8,2.7c-0.2,2.3-0.3,4.7-0.4,7c-0.1,1.5,0,3.1-0.2,4.6c-0.4,3.4,0.8,4.4,4.1,3.5c1.1-0.3,2.1-0.8,3.1-1.3
		c3-1.6,6.2-1.9,9.6-2.1c0.1-0.3,0.3-0.6,0.2-0.9c-0.6-2.4-0.1-4.8,0.2-7.2c0.3-2.7,0.4-5.3,0.4-8c0.1-2.3-0.1-4.6-0.2-6.9
		c0-0.3-0.3-0.8-0.5-0.9c-2.5-0.6-3.2-2.6-3.5-4.7c-0.2-1.3-0.2-2.7-0.4-4.1c-0.1,0.2-0.1,0.4-0.2,0.6c-0.2,1.9,0.3,3.9-0.8,5.8
		c-0.2,0.3,0.1,0.7,0.1,1.1c0,2.2-0.1,4.4-0.1,6.7c0,0.3-0.2,0.7-0.3,0.9c-0.4,0.7-0.9,1.2-1.8,1.1c-0.9-0.1-1.4-0.6-1.6-1.4
		c-0.2-1-0.3-2.1-0.4-3.1c-0.2-1.5-0.3-3.1-0.3-4.6"/>
	<path fill="#0071BC" d="M99,64.8c1.1-0.3,0.9-1.2,0.9-2c0-1.8,0-1.8,1.8-2c-0.3-1.7-0.3-1.7-1.9-1.7c-0.2,0-0.4,0-0.6,0
		C98.3,59,98,59.4,98,60.3c0,1.4,0,2.8,0,4.3C98.4,64.7,98.7,64.7,99,64.8c-0.6,0.1-1.2,0.3-1.9,0.5c0.3,2,0.7,3.9,1,5.9
		c0.4,0.1,0.8,0.2,1.1,0.2c0.6,0.1,1-0.2,1-0.9c0.1-1.5,0.1-2.9,0.2-4.4C100.5,64.9,100.1,64.5,99,64.8z"/>
	<path fill="#0071BC" d="M110.2,64.8c0.3-0.4,0.8-0.8,0.9-1.3c0.3-1.5-1.5-3.9-3.1-4s-3.1,0.1-4.7,0.3c-0.3,0-0.6,0.5-0.6,0.7
		c-0.3,2.7,2.6,5.1,5.3,4.6c0.6-0.1,1.2-0.2,1.8-0.3c-2.6,1.2-5.1,1.4-7.4-0.9c0,2.1,0,4.3,0.4,6.3c0.5,2.6,2.1,3.7,4.3,3.6
		c2-0.1,3.1-1.2,3.4-3.8c0.2-1.3-0.2-2.6-0.3-3.8c0-0.3,0.1-0.6,0.1-0.9c0.2,0.2,0.5,0.3,0.7,0.5c0.2,0.2,0.3,0.6,0.3,0.8
		c0.2,0.9,0.3,1.8,0.4,2.8c2.3-1.1,1.3-3.1,1.4-4.7c0.1-0.8-0.3-1.5-1.3-1.8C112.3,64.6,111,64.4,110.2,64.8z"/>
	<path fill="#0071BC" d="M70.1,32c0.3,0.7,0.4,1,0.6,1.4c0.2,0.4,0.3,0.8,0.6,1.1c2.8,3.7,6.1,6.5,11.1,6.9
		c4.9,0.4,9.5,0.2,13.9-2.2c3.1-1.7,5.5-3.9,6.4-7.5c0.1-0.2,0.1-0.5,0.2-0.6c0.3-0.1,0.8-0.3,0.9-0.1c1.8,2.1,3.9,1.2,5.2-0.5
		c1-1.4,0.9-3.1-0.3-4.3c-1.4-1.3-3.2-1.5-4.6-0.5c-0.6,0.5-1.3,0.8-2.2,1.3c0.1-1.8,0.2-3.3,0.3-4.9c0.1-0.6-0.1-0.9-0.8-1
		c-1.8-0.2-3.6-0.5-5.4-0.8c-4.5-0.7-9-0.4-13.5,0.1c-3.5,0.4-7,1.1-10.4,1.8c-1.8,0.4-2.2,1.2-1.8,3c0.1,0.5,0.1,0.9,0.3,1.3
		c0.3,0.8,0.2,1.5-0.5,1.8c-0.3,0.1-1-0.2-1.4-0.5c-1.4-0.9-3.3-0.6-4.4,0.7c-0.9,1.1-0.8,2.7,0.5,3.9c0.5,0.5,1.3,0.9,2,1.2
		c0.9,0.4,1.6,0.2,2.2-0.7C69.2,32.7,69.6,32.5,70.1,32z"/>
	<path fill="#0071BC" d="M106.4,22c-0.7-3.7-2.6-6.8-4.9-9.4C97.7,8.3,92.8,6,87,5.9c-10.8-0.2-20.2,9.8-20.3,16.5
		c0.8-0.4,1.6-0.8,2.5-1.2c1.6-0.7,3.3-1.4,4.9-2c2.8-1.1,5.6-2.2,8.3-3.4c0.3-0.1,0.6-0.5,0.7-0.9c0.1-0.7,0.1-1.5,0.1-2.2
		c0-1.6,0-3.1,0-4.7C84.5,8,85.8,7.9,87,7.8c0,0.1,0,0.2,0,0.2c-1.1,0.1-2.2,0.3-3.3,0.4c0.2,2.3,0.3,4.7,0.5,6.9
		c1.6,0,2.9-0.1,4.3,0c0.8,0,1-0.2,0.9-1c-0.2-1.9-0.3-3.9-0.6-5.8c-0.1-0.4-0.5-0.7-0.8-1.1c0.5,0.1,1.1,0.3,1.2,0.6
		c0.3,1.6,0.4,3.2,0.5,4.8c0.1,0.7,0.1,1.4,0.2,1.9c3,0.6,5.8,1.4,8.4,2.8C101,19.1,103.6,20.5,106.4,22z"/>
	<path fill="#0071BC" d="M88.1,108.5c-1.6,0.3-3.1,0.7-4.5,0.8c-3.5,0.1-7.1,0.1-10.6,0.1c-1.9,0-3.9-0.1-5.9-0.3
		c-0.9-0.1-1.7-0.7-2.7-1.1c0,1.4,0.7,2.3,1.6,3.1c1.5,1.3,3.3,1.8,5.3,2c5,0.6,10,0.2,14.9-0.9c1.9-0.4,1.9-0.5,1.9-2.4
		C88.1,109.2,88.1,108.8,88.1,108.5z"/>
	<path fill="#0071BC" d="M68.5,22.6c10.8-3.6,21.8-3.9,33-2.3c-0.3-0.2-0.3-0.4-0.5-0.4c-2.4-1.1-4.9-2.1-7.3-3.2
		c-3-1.4-6.2-0.8-9.3-0.8c-0.4,0-0.8,0.2-1.2,0.3c-4.3,1.8-8.6,3.5-13,5.4C69.6,21.8,69.1,22.3,68.5,22.6z"/>
	<path fill="#0071BC" d="M114.9,108.4c-4,1.7-8.2,2.1-12.4,1.8c-4.2-0.3-8.4-0.3-12.4-2.1c-0.1,0.6-0.3,1.2-0.3,1.8
		c0,0.3,0.3,0.8,0.6,0.9c1.7,0.4,3.4,0.9,5.1,1.2c3.3,0.5,6.7,0.9,10.1,1.3c2.4,0.3,4.9,0.6,7.3-0.2
		C115,112.3,115.8,110.8,114.9,108.4z"/>
	<path fill="#0071BC" d="M68.1,73.3c-0.4-0.1-0.7-0.3-1-0.3c-0.8-0.2-1.7-0.4-2.5-0.4c-1,0.1-1.3,0.8-0.8,1.7c0.7,1.3,3,2.4,4.4,2.3
		c1.9-0.2,3.4-2.7,2.3-3.9c-1.4-1.6-2.2-3.4-2.1-5.6c-1.6,0.5-3.1,1-4.7,1.5C64.4,70.8,66.5,71.7,68.1,73.3z"/>
	<path fill="#0071BC" d="M91.4,52.9c0-2,0-3.9,0-5.8c-2.4,0.1-4.6,0.2-6.6,0.3c0,1.8,0,3.6,0,5.5C87.1,52.9,89.3,52.9,91.4,52.9z"/>
	<path fill="#0071BC" d="M62.8,55.4c0.1,1.2,0.2,2.5,0.4,3.9c0.1,1,0.3,1.9,0.5,2.8c0.2,1.2,1,0.8,1.7,0.7c1,0,2.3,0.2,2.7-1.1
		c0.3-1.2,0.3-2.4,0.3-3.7c0-0.3-0.3-0.7-0.5-0.8C66.1,56.7,64.4,56.1,62.8,55.4z"/>
	<path fill="#0071BC" d="M69,62.3c0.1,1.6,0.1,3.2,0.4,4.7c0.4,2.1,1.2,4,3.2,5.1c0.3,0.2,0.7,0.1,1,0.1c0-0.4,0.1-0.9-0.1-1.1
		c-1.5-1.4-1.3-3.2-1.3-5c0-1.2,0.2-2.4,0.2-3.8C71.3,62.3,70.2,62.3,69,62.3z"/>
	<path fill="#0071BC" d="M68.4,49.3c1.1,1.5,2.1,2.9,3.3,4.5c0.8-1.3,3-1.1,2.9-2.9c-0.1-1.3,1-3-0.4-4
		C72.2,47.7,70.4,48.4,68.4,49.3z"/>
	<path fill="#0071BC" d="M107.9,55.6c0.1,0.6,0.4,1.4,0.4,2.2c-0.1,1.3,0.8,1.6,1.7,1.8c0.7,0.1,1.5,0,2.2,0c0.3,0,0.6-0.3,0.7-0.6
		c0.5-1.4,0.4-2.8,0-4.2C111.2,55,109.6,55.3,107.9,55.6z"/>
	<path fill="#0071BC" d="M86.2,66.2c0,1.3,0,2.4,0,3.6c0,0.2,0.2,0.5,0.3,0.6c1.2,0.7,2.6,0.9,3.7,0.4c0.5-0.2,0.5-1.7,0.5-2.6
		c0-0.6,0.2-1.6-0.8-1.7C88.8,66.3,87.5,66.3,86.2,66.2z"/>
	<path fill="#0071BC" d="M76.7,61.3c0.1,0,0.1,0,0.2,0c-0.1-1.1-0.1-2.2-0.3-3.2c-0.1-0.5-0.6-1-1-1.4c-0.5,0.5-1.1,1-1.5,1.5
		c-0.2,0.2-0.1,0.6-0.2,0.9c0,1.3,0,2.6-0.1,3.8c-0.1,1,0.5,1.6,1.6,1.6c0.9,0,1.5-0.7,1.4-1.6C76.8,62.4,76.7,61.8,76.7,61.3z"/>
	<path fill="#0071BC" d="M80.5,60.5c-0.1-0.7-0.1-1.7-0.3-2.5c-0.2-0.5-0.8-1-1.3-1.3c-0.2-0.1-0.8,0.5-1.1,1
		c-0.2,0.4-0.2,0.9-0.2,1.4c0.1,1.3,0.3,2.7,0.3,4c-0.1,1,0.6,1.3,1.3,1.3c0.8,0.1,1.2-0.5,1.2-1.2C80.4,62.4,80.4,61.6,80.5,60.5z"
		/>
	<path fill="#0071BC" d="M94.8,40.4c-2.7,0.3-2.9,0.7-2.8,3.2c0,0.1,0,0.2,0,0.3c0.1,2.4,0.4,2.7,2.8,2.3c0.3,0,0.5-0.2,0.7-0.2
		c-0.2-1-0.3-1.9-0.4-2.8C94.9,42.3,94.8,41.3,94.8,40.4z"/>
	<path fill="#0071BC" d="M110.1,73.3c0.6,0.1,1.2,0.3,1.7,0.3c1.9-0.3,3.8-2.8,3.6-4.8c0-0.5-0.3-1.1-0.9-0.8
		c-1.1,0.7-2.2,1.4-3.1,2.3C110.8,71.1,110.6,72.2,110.1,73.3z"/>
	<path fill="#0071BC" d="M83.8,42.2c-1.1,0-2.2,0-3.4,0c0.1,1.4,0.2,2.7,0.3,4c0.7,0.1,1.2,0.2,1.8,0.3c1,0.2,1.6-0.3,1.5-1.2
		C84,44.3,83.9,43.3,83.8,42.2z"/>
	<path fill="#0071BC" d="M94.4,71.3c0.5,0,0.9,0.1,1.3,0c1.4-0.3,1.5-0.5,1.2-1.9c-0.3-1.1-0.3-2.2-0.6-3.3
		c-0.1-0.3-0.4-0.7-0.7-0.7c-0.5,0-1.3-0.2-1.3,0.8C94.4,67.8,94.4,69.5,94.4,71.3z"/>
	<path fill="#0071BC" d="M59.7,63.3c0.1,0.8,0.1,1.6,0.4,2.2c0.4,0.8,0.9,1.6,1.6,2.1c0.8,0.6,1.5,0.1,1.5-0.9
		c0-0.9-0.1-1.8-0.2-2.7c0-0.3-0.4-0.7-0.7-0.7C61.6,63.3,60.8,63.3,59.7,63.3z"/>
	<path fill="#0071BC" d="M99.9,58.5c0.1,0.1,0.2,0.2,0.3,0.2c0.2-0.3,0.4-0.6,0.4-0.9c0.1-1.2,0.2-2.3,0.2-3.5
		c0-0.3-0.3-0.8-0.6-0.9c-1.5-0.6-3.1,0.7-2.9,2.3c0.5,0,1,0,1.6-0.1c0.8-0.1,1.3,0,1.1,1C99.8,57.3,99.9,57.9,99.9,58.5z"/>
	<path fill="#0071BC" d="M72.8,57c-1.6,0.3-2.6,2.4-2.2,4.7c0.6,0,1.2,0,1.8,0.1C72.5,60.1,72.7,58.5,72.8,57z"/>
	<path fill="#0071BC" d="M73.8,80c0.1,0.1,0.2,0.1,0.3,0.2c0.2-0.3,0.6-0.6,0.6-0.8c0.2-2.6,0.3-5.2,0.3-7.7c0-0.1-0.2-0.1-0.4-0.2
		C73.9,74.3,73.4,77.1,73.8,80z"/>
	<path fill="#0071BC" d="M68.7,57c1.7,1,2.7,0.3,3.6-0.7c0.2-0.2,0.3-0.8,0.1-1c-0.2-0.4-0.6-1.2-1.3-0.7
		C70.3,55.3,69.5,56.2,68.7,57z"/>
	<path fill="#0071BC" d="M99.6,39.7c0.7,3,1.1,3.7,2.3,4.2c0.3-0.8,0.5-1.7,0.8-2.6C101.7,40.8,100.7,40.3,99.6,39.7z"/>
	<path fill="#0071BC" d="M100.3,63.9c0.1,0.1,0.2,0.3,0.3,0.4c0.3-0.1,0.6-0.1,1.3-0.2c-0.3-0.5-0.6-0.8-0.8-1.1
		C100.9,63.3,100.7,63.6,100.3,63.9z"/>
	<path fill="#0071BC" d="M100.8,61.3c-0.1,0.2-0.2,0.4-0.3,0.5c0.3,0.2,0.6,0.4,1,0.5c0.1,0,0.3-0.3,0.5-0.4
		C101.6,61.7,101.2,61.5,100.8,61.3z"/>
	<path fill="#FFFF00" d="M113.9,63.3c-0.7-0.2-0.9-0.7-0.6-1.4c0.2-0.4,0.3-0.8,0.3-1.2c0.3-1.5,0.5-1.6,2.4-1.3
		c-0.4,1.1-0.8,2.2-1.3,3.3C114.5,63,114.2,63.2,113.9,63.3z"/>
	<path fill="#FFC078" d="M70.1,32c-0.5,0.4-0.9,0.7-1.2,1c-0.6,0.9-1.3,1.1-2.2,0.7c-0.7-0.3-1.4-0.7-2-1.2
		c-1.3-1.2-1.4-2.8-0.5-3.9c1.1-1.4,3-1.6,4.4-0.7c0.4,0.3,1.1,0.6,1.4,0.5c0.7-0.4,0.8-1,0.5-1.8c-0.2-0.4-0.2-0.9-0.3-1.3
		c-0.3-1.9,0.1-2.7,1.8-3c3.4-0.7,6.9-1.4,10.4-1.8c4.5-0.5,9-0.8,13.5-0.1c1.8,0.3,3.6,0.5,5.4,0.8c0.6,0.1,0.8,0.4,0.8,1
		c-0.1,1.5-0.2,3-0.3,4.9c0.8-0.5,1.6-0.8,2.2-1.3c1.3-1,3.2-0.8,4.6,0.5c1.2,1.2,1.3,2.9,0.3,4.3c-1.3,1.7-3.4,2.6-5.2,0.5
		c-0.1-0.1-0.7,0-0.9,0.1c-0.1,0-0.2,0.4-0.2,0.6c-0.9,3.6-3.3,5.8-6.4,7.4c-4.4,2.4-9,2.7-13.9,2.2c-5-0.4-8.3-3.2-11.1-6.9
		c-0.3-0.3-0.4-0.7-0.6-1.1C70.5,33.1,70.3,32.7,70.1,32z M89.1,31.8c1.1-0.4,1.2-1.3,1.2-2.2c0.1-1.4-1.3-4.5-2.4-5.2
		C88.9,26.9,91,29.1,89.1,31.8c-1.7,0.8-3.2,0.6-4.8-0.5C85.8,33,87.6,33.1,89.1,31.8z M92.8,34.5c-3.4,4-6.8,2.3-10.2,0
		c0.9,1,1.9,1.8,2.9,2.7C88.3,39.7,91.6,37.4,92.8,34.5z M97.8,26.1c-0.6-0.7-1-1.2-1.4-1.8c-0.5,0.5-0.9,0.9-1.4,1.4
		c-0.1,0.1-0.1,0.4,0,0.5c0.4,0.6,0.8,1.3,1.3,1.9C96.6,27.5,97.1,26.9,97.8,26.1z M79.8,26c-0.1,0-0.1,0-0.1,0c0-0.3,0.1-0.6,0-0.8
		c-0.3-0.5-0.6-0.9-0.9-1.4c-0.3,0.4-0.7,0.8-0.9,1.2c-0.2,0.5-0.3,1-0.2,1.5c0.1,0.4,0.3,0.9,0.7,1c0.3,0.1,0.9,0,1.1-0.3
		C79.6,27,79.6,26.5,79.8,26z M104.7,28.3c0.7-0.3,1.3-0.9,1.8-0.8c0.6,0,1.2,0.5,1.8,0.9C107.6,26.7,105.9,26.6,104.7,28.3z"/>
	<path fill="#FFFF00" d="M106.4,22c-2.8-1.5-5.4-2.9-8.1-4.2c-2.6-1.3-5.4-2.2-8.4-2.8c-0.1-0.6-0.1-1.3-0.2-1.9
		c-0.2-1.6-0.3-3.3-0.5-4.8c-0.1-0.3-0.7-0.6-1.2-0.7c0.3,0.3,0.8,0.7,0.8,1c0.3,1.9,0.4,3.8,0.6,5.8c0.1,0.7-0.2,1-0.9,1
		c-1.3-0.1-2.7,0-4.3,0c-0.2-2.3-0.3-4.6-0.5-6.9C84.9,8.3,86,8.2,87.1,8c0-0.1,0-0.2,0-0.2c-1.3,0.1-2.5,0.1-3.7,0.2
		c0,1.6,0,3.2,0,4.7c0,0.8,0,1.5-0.1,2.2c-0.1,0.3-0.4,0.7-0.7,0.9c-2.8,1.1-5.6,2.3-8.3,3.4c-1.7,0.7-3.3,1.3-4.9,2
		c-0.9,0.4-1.7,0.8-2.5,1.2c0-6.7,9.4-16.7,20.3-16.5c5.8,0.1,10.7,2.4,14.5,6.7C103.8,15.3,105.7,18.4,106.4,22z"/>
	<path fill="#FFFF00" d="M88.1,108.5c0,0.3,0,0.7,0,1.2c0.1,2,0.1,2-1.9,2.4c-4.9,1.1-9.9,1.6-14.9,0.9c-1.9-0.2-3.8-0.7-5.3-2
		c-0.9-0.8-1.6-1.7-1.6-3.1c0.9,0.4,1.8,1,2.7,1.1c1.9,0.2,3.9,0.3,5.9,0.3c3.6,0,7.1,0.1,10.6-0.1
		C85.1,109.2,86.5,108.8,88.1,108.5z"/>
	<path fill="#FFFF00" d="M68.5,22.6c0.6-0.4,1.1-0.8,1.8-1c4.3-1.8,8.6-3.6,12.9-5.4c0.4-0.1,0.8-0.3,1.2-0.3c3.1,0,6.3-0.6,9.3,0.8
		c2.4,1.1,4.9,2.1,7.3,3.2c0.1,0,0.2,0.2,0.5,0.4C90.3,18.7,79.3,19,68.5,22.6z"/>
	<path fill="#FFFF00" d="M114.9,108.4c0.8,2.4,0.1,3.9-2.1,4.6c-2.4,0.8-4.9,0.4-7.3,0.2c-3.3-0.4-6.7-0.8-10.1-1.3
		c-1.7-0.3-3.4-0.7-5.1-1.2c-0.3-0.1-0.6-0.6-0.6-0.9c0-0.6,0.2-1.2,0.3-1.8c4,1.8,8.3,1.8,12.4,2.1
		C106.7,110.4,110.9,110.1,114.9,108.4z"/>
	<path fill="#FFFF00" d="M110.2,64.8c0.8-0.4,2.1-0.3,1.7-1.9c1,0.3,1.3,1,1.3,1.8c-0.2,1.6,0.9,3.6-1.4,4.7c-0.2-1-0.3-1.9-0.4-2.8
		c-0.1-0.3-0.2-0.6-0.3-0.8c-0.2-0.2-0.4-0.3-0.7-0.5c0,0.3-0.1,0.6-0.1,0.9c0.1,1.3,0.4,2.6,0.3,3.8c-0.3,2.7-1.4,3.7-3.4,3.8
		c-2.2,0.2-3.8-1-4.3-3.6c-0.4-2.1-0.4-4.2-0.4-6.3c2.3,2.3,4.8,2,7.3,0.9C110,64.9,110.1,64.8,110.2,64.8z"/>
	<path fill="#FFC078" d="M68.1,73.3c-1.6-1.6-3.7-2.4-4.4-4.7c1.6-0.5,3.1-1,4.7-1.5c-0.1,2.2,0.7,3.9,2.1,5.6
		c1.1,1.3-0.5,3.7-2.3,3.9c-1.4,0.2-3.7-1-4.4-2.3c-0.5-0.9-0.2-1.6,0.8-1.7c0.8-0.1,1.7,0.2,2.5,0.4C67.4,73.1,67.7,73.2,68.1,73.3
		z"/>
	<path fill="#FFFF00" d="M91.4,52.9c-2.2,0-4.4,0-6.6,0c0-1.9,0-3.7,0-5.5c2.1-0.1,4.3-0.2,6.6-0.3C91.4,49,91.4,51,91.4,52.9z"/>
	<path fill="#FFFF00" d="M110.2,64.8c-0.1,0-0.3,0-0.3,0.1c-0.6,0.1-1.3,0.2-1.8,0.3c-2.7,0.6-5.5-1.8-5.3-4.6
		c0-0.3,0.4-0.7,0.6-0.7c1.6-0.2,3.1-0.3,4.7-0.3c1.6,0,3.4,2.5,3.1,4C110.9,64.1,110.5,64.4,110.2,64.8z"/>
	<path fill="#FFFF00" d="M62.8,55.4c1.7,0.7,3.3,1.3,4.9,1.9c0.3,0.1,0.5,0.5,0.5,0.8c0,1.2,0.1,2.5-0.3,3.7c-0.3,1.3-1.7,1-2.7,1.1
		c-0.6,0-1.5,0.5-1.7-0.7c-0.1-1-0.3-1.9-0.5-2.8C63,58,62.8,56.7,62.8,55.4z"/>
	<path fill="#FFFF00" d="M69,62.3c1.3,0,2.3,0,3.5,0c-0.1,1.3-0.2,2.5-0.2,3.8c0,1.8-0.3,3.6,1.3,5c0.2,0.2,0.1,0.7,0.1,1.1
		c-0.3,0-0.8,0.1-1-0.1c-2-1.1-2.8-3-3.2-5.1C69.1,65.5,69.1,64,69,62.3z"/>
	<path fill="#FFFF00" d="M110.3,45.4c0.3,0.3,0.4,0.7,0.8,1c1.7,1.3,3.6,2.4,4.6,4.4c0.7,1.5-0.1,2.9-1.8,2.9
		c-0.3,0-0.7-0.3-0.8-0.5c-1-2.6-2.6-4.8-4.9-6.4C108.8,46.1,109.1,45.1,110.3,45.4C110.3,45.4,110.3,45.4,110.3,45.4z"/>
	<path fill="#FFFF00" d="M68.4,49.3c1.9-0.8,3.8-1.6,5.8-2.5c1.4,1.1,0.4,2.7,0.4,4c0.1,1.8-2.2,1.6-2.9,2.9
		C70.6,52.2,69.6,50.8,68.4,49.3z"/>
	<path fill="#FFFF00" d="M103.8,52.2c-2.3-2.2-2.7-5.1-3.5-7.9c2.3,1.1,4.5,2.2,6.8,3.3C106.1,49,104.9,50.6,103.8,52.2L103.8,52.2z
		"/>
	<path fill="#FFFF00" d="M107.9,55.6c1.7-0.3,3.3-0.6,4.9-0.8c0.4,1.3,0.5,2.8,0,4.2c-0.1,0.3-0.4,0.6-0.7,0.6
		c-0.7,0.1-1.5,0.2-2.2,0c-0.9-0.2-1.8-0.5-1.7-1.8C108.3,57,108,56.2,107.9,55.6z"/>
	<path fill="#FFFF00" d="M86.2,66.2c1.4,0.1,2.6,0.2,3.8,0.3c1,0.2,0.8,1.1,0.8,1.7c0,0.9,0,2.3-0.5,2.6c-1.2,0.6-2.6,0.3-3.7-0.4
		c-0.2-0.1-0.3-0.4-0.3-0.6C86.1,68.6,86.2,67.5,86.2,66.2z"/>
	<path fill="#B3B3B3" d="M76.7,61.3c0,0.5,0.1,1,0.1,1.5c0.1,1-0.5,1.6-1.4,1.6c-1.1,0-1.6-0.5-1.5-1.6c0-1.3,0-2.6,0.1-3.8
		c0-0.3,0-0.7,0.2-0.9c0.4-0.5,1-1,1.5-1.5c0.3,0.5,0.8,0.9,1,1.4c0.2,1,0.2,2.1,0.3,3.2C76.8,61.3,76.8,61.3,76.7,61.3z"/>
	<path fill="#B3B3B3" d="M80.5,60.5c-0.1,1-0.1,1.9-0.2,2.7c-0.1,0.7-0.5,1.2-1.2,1.2c-0.7-0.1-1.3-0.3-1.3-1.3
		c0.1-1.3-0.2-2.7-0.3-4c0-0.5,0-1,0.2-1.4c0.3-0.4,0.9-1,1.1-1c0.5,0.3,1.1,0.8,1.3,1.3C80.5,58.9,80.4,59.8,80.5,60.5z"/>
	<path fill="#FFFF00" d="M99,64.8c1.1-0.3,1.5,0.2,1.4,1.3c-0.1,1.5-0.2,2.9-0.2,4.4c0,0.7-0.4,0.9-1,0.9c-0.4,0-0.7-0.2-1.1-0.2
		c-0.3-2-0.7-3.9-1-5.9C97.8,65.1,98.5,64.9,99,64.8C99,64.7,99,64.8,99,64.8z"/>
	<path fill="#FFFF00" d="M94.8,40.4c0.1,1,0.1,1.9,0.3,2.8c0.1,0.9,0.3,1.8,0.4,2.8c-0.2,0.1-0.5,0.2-0.7,0.2
		c-2.4,0.3-2.7,0-2.8-2.3c0-0.1,0-0.2,0-0.3C91.8,41.1,92.1,40.8,94.8,40.4z"/>
	<path fill="#FFC078" d="M110.1,73.3c0.5-1.1,0.8-2.2,1.4-2.9c0.8-0.9,1.9-1.6,3.1-2.3c0.6-0.4,0.8,0.3,0.9,0.8
		c0.1,1.9-1.8,4.4-3.6,4.8C111.2,73.7,110.6,73.4,110.1,73.3z"/>
	<path fill="#FFFF00" d="M83.8,42.2c0.1,1.1,0.2,2.1,0.2,3.2c0.1,1-0.5,1.4-1.5,1.2c-0.6-0.1-1.2-0.2-1.8-0.3
		c-0.1-1.3-0.2-2.6-0.3-4C81.7,42.2,82.8,42.2,83.8,42.2z"/>
	<path fill="#FFFF00" d="M75.8,71c-1.9-0.1-2.7-1.1-2.4-3c0.2-1,0.3-2,0.5-3c0.8,0,1.5,0.1,2.3,0.1C76.1,67,75.9,69,75.8,71
		C75.8,71,75.8,71,75.8,71z"/>
	<path fill="#FFFF00" d="M94.4,71.3c0-1.8,0-3.5,0-5.2c0-1,0.8-0.8,1.3-0.8c0.2,0,0.6,0.4,0.7,0.7c0.3,1.1,0.4,2.2,0.6,3.3
		c0.3,1.4,0.3,1.6-1.2,1.9C95.3,71.4,94.9,71.3,94.4,71.3z"/>
	<path fill="#B3B3B3" d="M99,64.7c-0.3-0.1-0.7-0.1-1-0.1c0-1.5,0-2.8,0-4.3c0-0.9,0.3-1.3,1.3-1.2c0.2,0,0.4,0,0.6,0
		c1.6,0,1.6,0,1.9,1.7c-1.8,0.1-1.8,0.1-1.8,2C99.9,63.5,100.1,64.4,99,64.7L99,64.7z"/>
	<path fill="#FFFF00" d="M59.7,63.3c1,0,1.9,0,2.7,0c0.3,0,0.6,0.4,0.7,0.7c0.2,0.9,0.2,1.8,0.2,2.7c0,1-0.7,1.5-1.5,0.9
		c-0.7-0.5-1.3-1.3-1.6-2.1C59.8,64.9,59.8,64.1,59.7,63.3z"/>
	<path fill="#B3B3B3" d="M99.9,58.5c0-0.6-0.1-1.2,0-1.8c0.2-1-0.3-1.2-1.1-1c-0.5,0.1-1,0.1-1.6,0.1c-0.1-1.7,1.5-3,2.9-2.3
		c0.3,0.1,0.6,0.6,0.6,0.9c0,1.2-0.1,2.3-0.2,3.5c0,0.3-0.3,0.6-0.4,0.9C100.1,58.6,100,58.5,99.9,58.5z"/>
	<path fill="#B3B3B3" d="M76.8,80.1c0.2-2.4,0.3-4.8,0.5-7.2c0.1-0.4,0.6-0.8,0.9-1.3c0,1.9-0.1,3.6,0,5.3
		C78.4,78.3,77.8,79.2,76.8,80.1L76.8,80.1z"/>
	<path fill="#FFFF00" d="M72.8,57c-0.1,1.6-0.3,3.2-0.4,4.8c-0.6,0-1.2,0-1.8-0.1C70.2,59.3,71.2,57.3,72.8,57z"/>
	<path fill="#FFFF00" d="M103.8,52.1c0.7,0.6,1.4,1.2,2.1,1.8c0.3,0.3,0.6,0.7,0.9,1.1c-0.8,0.3-1.4,0.7-2.1,0.8
		c-0.2,0-0.6-0.3-0.8-0.6c-0.4-0.7-0.8-1.4-1.3-2l0,0c0.1-0.4,0.2-0.8,0.3-1.3C103.3,52,103.6,52.1,103.8,52.1
		C103.8,52.2,103.8,52.1,103.8,52.1z"/>
	<path fill="#B3B3B3" d="M73.8,80c-0.3-2.9,0.2-5.7,0.8-8.6c0.2,0.1,0.4,0.2,0.4,0.2c-0.1,2.6-0.2,5.2-0.3,7.7
		c0,0.3-0.4,0.6-0.6,0.8C73.9,80.1,73.8,80.1,73.8,80z"/>
	<path fill="#FFFF00" d="M68.7,57c0.8-0.8,1.6-1.7,2.5-2.5c0.7-0.5,1,0.3,1.3,0.7c0.2,0.3,0.1,0.8-0.1,1C71.3,57.3,70.3,58,68.7,57z
		"/>
	<path fill="#FFFF00" d="M99.6,39.7c1.1,0.6,2.1,1.1,3.1,1.6c-0.3,0.8-0.5,1.7-0.8,2.6C100.7,43.5,100.3,42.8,99.6,39.7z"/>
	<path fill="#FFFFFF" d="M100.3,63.9c0.3-0.3,0.6-0.6,0.8-0.9c0.2,0.3,0.4,0.6,0.8,1.1c-0.7,0.1-1,0.1-1.3,0.2
		C100.6,64.2,100.5,64,100.3,63.9z"/>
	<path fill="#FFFFFF" d="M100.8,61.3c0.4,0.2,0.8,0.5,1.2,0.7c-0.2,0.2-0.4,0.5-0.5,0.4c-0.3-0.1-0.7-0.3-1-0.5
		C100.5,61.6,100.7,61.5,100.8,61.3z"/>
	<path d="M92.8,34.5c-1.2,2.9-4.5,5.2-7.3,2.7c-1-0.9-2-1.7-2.9-2.7C86.1,36.8,89.4,38.5,92.8,34.5z"/>
	<path d="M97.8,26.1c-0.6,0.8-1.1,1.5-1.6,2.1c-0.4-0.6-0.8-1.3-1.3-1.9c-0.1-0.1-0.1-0.4,0-0.5c0.4-0.5,0.9-0.9,1.4-1.4
		C96.7,24.9,97.2,25.4,97.8,26.1z"/>
	<path d="M79.8,26c-0.1,0.5-0.2,1-0.4,1.3c-0.2,0.3-0.8,0.4-1.1,0.3c-0.3-0.2-0.6-0.7-0.7-1c-0.1-0.5,0-1,0.2-1.5
		c0.2-0.5,0.6-0.8,0.9-1.2c0.3,0.5,0.7,0.9,0.9,1.4c0.1,0.2,0,0.5,0,0.8C79.7,26,79.7,26,79.8,26z"/>
	<path d="M89.1,31.8c1.9-2.7-0.2-4.9-1.2-7.4c1.1,0.7,2.5,3.8,2.4,5.2C90.3,30.5,90.1,31.4,89.1,31.8L89.1,31.8z"/>
	<path d="M89.1,31.8c-1.5,1.3-3.2,1.1-4.8-0.5C85.8,32.3,87.4,32.6,89.1,31.8C89.1,31.8,89.1,31.8,89.1,31.8z"/>
	<path d="M104.7,28.3c1.2-1.7,2.9-1.6,3.7,0c-0.6-0.3-1.2-0.9-1.8-0.9C105.9,27.5,105.3,28,104.7,28.3z"/>
</g>
<g id="Over">
	<path fill="#FFFF00" d="M59.7,52.9c0,0,1.2-2.2,2.1-2.9c0.9-0.6,2.8-2.9,2.8-2.9c0.7-0.6,0.7-0.6,0.7-0.6s3,3,0.2,4.1
		c-2.8,1.1-2.9,4.1-3.2,4S60.6,54,60.6,54S59.2,53.8,59.7,52.9z"/>
	<path fill="#FFFF00" d="M71.9,43.2c0,0,2.1-1.6,3.1-1c1,0.6,0.4,2.1,0,2.7c-0.4,0.5-0.9,0.7-0.9,0.7L71.9,43.2z"/>
	<path fill="#FFFF00" d="M82.8,64.7L77,65.1l-0.4,5c0,0,1.2,1.6,2,0.7c0.8-0.9,0.8-0.9,0.8-0.9l0.7,0.2c0,0,0.9,1.1,1.2,0.9
		s1.5-0.2,1.5-0.2L82.8,64.7z"/>
	<polygon fill="#B3B3B3" points="99.5,71.9 97.3,74.9 97.6,79.4 98.8,81 99.6,79.8 	"/>
	<path fill="#0066CC" d="M75.8,41.5c0,0,3.1-0.5,3.4,0.7c0.4,1.2,1.3,10.4,1.3,10.4s7.8,1.2,8.2,1.1s6.9,0.1,7.8-2.9
		c0.9-2.9-1.1-6.4-1.1-9c0-2.6,0.9-3.1,2.7-3.2s1.6,4.4,1.7,6.9s2.1,5.9,2.1,5.9s1.5,5.4,2.1,6c0.6,0.7,0.7,1.4,0.7,1.4l-0.3,0.3
		l-3-0.5l-0.1-4.8c0,0-0.5-1.2-2.2-0.6c-1.7,0.6-2,0.2-2.5,1.1c-0.4,1-0.4,1-0.4,1l-0.2,0.8c0,0,3.1,0,3,0.5s-0.6,1.9-0.6,1.9
		s-1.4,0.4-1.4,1.1s0,5.1,0,5.1s-1.7,0.4-2.3,0.4s-0.1-1.6-1.7-2c-1.6-0.5-10.2,0.1-10.2,0.1l0,1.6l-0.8-0.1L80.5,64
		c0,0,1.1-4.3,0.6-5.7s-1.4-2.8-2.9-2.5s-1.5,0.3-1.5,0.3L75.3,56l-1,0.3c0,0,2-8.5,1.9-10.3S75.8,41.5,75.8,41.5z"/>
	<path fill="#0066CC" d="M73.4,73.1c0,0-1.6-0.8-1.8,0.8c-0.2,1.5,0.6,3.3,0.5,5.2s-0.7,5.5-0.7,5.5l-0.6,2.9c0,0,0,2.7,0.5,3.1
		c0.5,0.4,0.6,2.7,0.6,3s0,3-0.6,3.8S71.1,99,71.1,99s3.8-0.5,3.8-0.2s5.6,1,6.4,1.6c0.8,0.6,6.2,1.6,6,1.2s-0.5-3.9,0.3-5.4
		s-0.6-3.8,0-6.4c0.6-2.6,0.6-4.4,0.3-5c-0.4-0.6-1.3-1.4-1.8-1.2c-0.5,0.3-1.6-0.1-1.6-0.1l1.6-0.4c0,0,1.3-0.1,1.9,0.5
		s0.9,1.2,0.8,2.7s-0.4,9.4-0.4,9.4l-0.4,3.4c0,0-0.3,1.3,0.4,1.8s1.8,1.5,4.6,0.2c2.8-1.3,6.6-2.5,6.6-2.5L105,98l0.1-1.1
		c0,0-0.4-5.3,0.3-7s0.3-13.5,0.3-13.5s-0.1-2.7-0.6-2.3s-2.7-1.9-2.7-1.9s-1.7-5.4-1.3-6.6s-0.1,5.9-0.8,6.2
		c-0.4,0.2,0.1,8.2,0.1,8.2l-1.3,1.3L98,81.4c0,0-1-0.5-1.1-0.9c-0.1-0.4-1.3-8.2-0.9-8s3.5-0.6,3.5-0.6s-3.7-0.7-3.7-0.2
		s-1.6,0.2-1.6,0.2s-0.1,2.4-2.2,2.5c-2.1,0-8.4-0.4-8.4-0.4s-0.7-0.1-0.7-1c-0.1-0.9,0-2.2,0-2.2L81.3,71l-2.4,0.3L78.5,78
		l-2.1,2.3l0.1-8.5l-0.9-1l-0.8,4.9L75,79c0,0-0.7,1.7-1.6,1.8C72.4,81,73.4,76.6,73.4,73.1z"/>
</g>
</svg>
