<?xml version="1.0" encoding="UTF-8"?>
<!DOCTYPE svg PUBLIC "-//W3C//DTD SVG 1.1//EN" "http://www.w3.org/Graphics/SVG/1.1/DTD/svg11.dtd">
<!-- Creator: CorelDRAW X7 -->
<svg xmlns="http://www.w3.org/2000/svg" xml:space="preserve" width="300" height="300" version="1.1" style="shape-rendering:geometricPrecision; text-rendering:geometricPrecision; image-rendering:optimizeQuality; fill-rule:evenodd; clip-rule:evenodd"
viewBox="0 0 28000 11665"
 xmlns:xlink="http://www.w3.org/1999/xlink">
 <defs>
  <style type="text/css">
   <![CDATA[
    .fil1 {fill:#EE5623;fill-rule:nonzero}
    .fil0 {fill:url(#id0)}
   ]]>
  </style>
  <linearGradient id="id0" gradientUnits="userSpaceOnUse" x1="5337.81" y1="1285.02" x2="2170.35" y2="11043.7">
   <stop offset="0" style="stop-opacity:1; stop-color:yellow"/>
   <stop offset="1" style="stop-opacity:1; stop-color:#F24D16"/>
  </linearGradient>
 </defs>
 <g id="Layer_x0020_1">
  <metadata id="CorelCorpID_0Corel-Layer"/>
  <g id="_556922435024">
   <path class="fil0" d="M4134 2365c-92,-70 -150,-226 -44,-316 30,-25 48,-31 86,-48 272,-116 142,-145 544,125 93,62 209,106 304,172 -19,0 -43,0 -61,-2l-59 -10c-401,-64 -543,35 -770,79zm864 -468c0,0 1075,164 1180,351 105,187 -1309,-234 -1180,-351zm-494 678c0,0 1274,163 1399,350 125,187 -1551,-234 -1399,-350zm-183 -1300c358,-213 234,-92 663,154 91,53 112,63 213,108l195 104c-162,-6 -272,-31 -432,-35 -154,-4 -307,3 -461,1 -78,-71 -179,-182 -178,-332zm1753 198c-553,-27 -1499,-497 -320,-219l386 137c76,46 56,29 70,87l-136 -5zm381 756c-68,-167 -308,-315 -438,-375 -41,-20 -80,-38 -127,-57l-138 -46c55,-23 -70,-17 74,-17 98,1 194,21 292,27 197,-9 320,-87 320,-87 36,-22 65,-44 89,-65 39,-61 54,-145 18,-234 -28,-68 -78,-118 -135,-157 -125,-80 -264,-129 -264,-129l2 -1c-450,-185 -919,-239 -1430,-230 -393,-416 817,-165 876,-151 182,45 400,143 592,131 27,-361 25,-646 -247,-778 -332,-161 -580,27 -692,273l-436 17c-178,23 -402,89 -446,288 -31,142 20,172 39,270 -39,30 12,0 -38,26 -25,12 -40,16 -62,26 -124,52 -203,97 -250,242 -84,257 90,320 119,482 -153,80 -301,133 -394,306 -123,231 31,405 102,561 -187,241 -330,554 -434,846 -36,102 -54,104 -92,179 -43,85 -24,72 -91,157l-352 427c-337,330 -1044,702 -1505,1093 -606,513 -1031,1073 -1278,1853 -177,561 -157,1291 -30,1850 60,265 169,531 283,746 632,1196 1899,1959 3273,1963 471,1 895,-82 1325,-255 286,-117 545,-281 785,-474 239,-192 50,-401 -191,-216 -206,157 -388,283 -651,399 -852,377 -1915,330 -2753,-75 -214,-104 -536,-310 -722,-468 -95,-80 -175,-160 -257,-243l-236 -263c-602,-758 -920,-1916 -491,-3091 401,-1095 1319,-1691 2249,-2290 482,-311 829,-775 1046,-1307 92,-226 200,-516 353,-641l410 223c300,136 600,217 917,270l0 0 5 1c102,18 205,32 311,45 370,-2 473,-233 473,-233 146,-129 -392,-538 -392,-538 608,58 619,-274 619,-280z"/>
   <path class="fil1" d="M4683 9277l0 -2383c0,-434 108,-777 323,-1025 216,-249 513,-373 890,-373 335,0 614,101 838,302 224,202 337,451 337,745 0,177 -43,334 -128,473 -85,139 -209,253 -372,343 192,52 332,150 421,295 88,144 132,349 132,614l0 1009 -489 0 0 -822c0,-312 -51,-524 -153,-637 -101,-112 -284,-168 -550,-168l-563 0 0 -452 436 0c240,0 427,-55 561,-164 133,-109 200,-262 200,-457 0,-184 -63,-334 -188,-450 -126,-116 -288,-174 -487,-174 -220,0 -394,75 -524,224 -130,149 -195,351 -195,605l0 2495 -489 0z"/>
   <path id="1" class="fil1" d="M9984 8151c-64,363 -211,651 -442,862 -229,212 -509,318 -840,318 -113,0 -223,-15 -333,-46 -110,-31 -214,-75 -311,-133 -204,-125 -362,-288 -475,-490 -112,-200 -168,-422 -168,-662 0,-177 33,-345 97,-504 65,-160 159,-303 281,-432 124,-127 264,-222 420,-289 157,-65 321,-98 494,-98 258,0 489,68 692,205 204,135 368,334 494,594l-1669 925 -192 -346 1239 -690c-76,-85 -162,-149 -257,-193 -96,-43 -200,-64 -312,-64 -229,0 -422,85 -579,256 -157,170 -235,381 -235,632 0,249 79,460 237,631 158,171 349,257 576,257 217,0 398,-72 545,-215 146,-142 238,-339 274,-588l464 70z"/>
   <path id="2" class="fil1" d="M11750 6730c156,0 273,27 353,79 80,53 120,131 120,235 0,56 -13,111 -37,165 -24,55 -62,110 -114,164l-1285 1468 1446 0 0 436 -1527 0c-144,0 -256,-29 -334,-88 -78,-59 -117,-143 -117,-252 0,-51 14,-104 42,-159 27,-55 76,-120 145,-196l1244 -1421 -1330 0 0 -431 1394 0z"/>
   <path id="3" class="fil1" d="M12989 7996c0,247 79,457 237,629 159,173 351,259 576,259 226,0 418,-86 577,-259 158,-172 237,-382 237,-629 0,-246 -79,-455 -237,-626 -157,-171 -350,-257 -577,-257 -225,0 -417,86 -576,257 -158,171 -237,380 -237,626zm-474 4c0,-177 33,-345 99,-504 65,-160 161,-303 285,-432 123,-125 261,-220 414,-284 153,-65 317,-98 489,-98 173,0 338,33 493,98 156,64 295,159 416,284 122,125 216,268 281,429 65,161 97,330 97,507 0,180 -32,351 -97,513 -65,162 -159,305 -281,430 -121,125 -260,220 -416,285 -155,65 -320,97 -493,97 -172,0 -336,-32 -489,-97 -153,-65 -291,-160 -414,-285 -124,-126 -220,-270 -285,-431 -66,-162 -99,-332 -99,-512z"/>
   <path id="4" class="fil1" d="M15526 9277l0 -1389c0,-371 98,-664 296,-882 196,-216 460,-324 789,-324 328,0 591,108 786,324 196,218 293,511 293,882l0 1389 -452 0 0 -1473c0,-201 -58,-364 -175,-491 -117,-127 -268,-190 -453,-190 -185,0 -335,63 -454,190 -119,127 -178,290 -178,491l0 1473 -452 0z"/>
   <path id="5" class="fil1" d="M18287 9277l0 -2547 457 0 0 2547 -457 0zm-48 -3271c0,-77 26,-142 81,-195 53,-54 119,-81 197,-81 77,0 143,27 196,79 52,53 79,119 79,197 0,79 -27,146 -79,201 -53,54 -119,81 -196,81 -76,0 -142,-27 -197,-83 -54,-55 -81,-121 -81,-199z"/>
   <path id="6" class="fil1" d="M20671 6730c156,0 273,27 353,79 80,53 120,131 120,235 0,56 -13,111 -37,165 -24,55 -62,110 -114,164l-1285 1468 1446 0 0 436 -1527 0c-144,0 -256,-29 -334,-88 -78,-59 -117,-143 -117,-252 0,-51 14,-104 41,-159 28,-55 77,-120 146,-196l1244 -1421 -1330 0 0 -431 1394 0z"/>
   <path id="7" class="fil1" d="M24005 8151c-64,363 -211,651 -441,862 -230,212 -510,318 -841,318 -112,0 -223,-15 -333,-46 -110,-31 -214,-75 -310,-133 -204,-125 -363,-288 -475,-490 -113,-200 -169,-422 -169,-662 0,-177 33,-345 98,-504 64,-160 158,-303 281,-432 123,-127 263,-222 419,-289 157,-65 322,-98 495,-98 258,0 488,68 691,205 204,135 369,334 495,594l-1670 925 -192 -346 1239 -690c-76,-85 -162,-149 -257,-193 -95,-43 -199,-64 -312,-64 -228,0 -422,85 -579,256 -156,170 -234,381 -234,632 0,249 78,460 236,631 158,171 349,257 576,257 218,0 398,-72 546,-215 146,-142 237,-339 273,-588l464 70z"/>
   <path id="8" class="fil1" d="M24468 9277l0 -2547 421 0 0 376c78,-149 185,-257 322,-324 136,-66 320,-100 552,-100l119 0 0 441 -70 0c-312,0 -538,75 -678,224 -139,149 -209,392 -209,728l0 1202 -457 0z"/>
   <path id="9" class="fil1" d="M26070 8841l1101 0c111,0 198,-21 261,-64 63,-44 95,-104 95,-179 0,-65 -24,-119 -72,-164 -47,-46 -137,-96 -269,-151l-436 -176c-256,-105 -432,-211 -530,-319 -96,-108 -145,-246 -145,-415 0,-207 73,-367 221,-477 147,-111 359,-166 633,-166l943 0 0 425 -1064 0c-87,0 -154,19 -203,57 -49,38 -73,92 -73,161 0,53 21,99 65,141 43,41 115,83 215,125l460 187c287,117 479,231 578,340 100,109 150,247 150,416 0,235 -88,410 -262,524 -175,115 -444,171 -809,171l-859 0 0 -436z"/>
  </g>
 </g>
</svg>
