<?xml version="1.0" encoding="UTF-8"?>
<!DOCTYPE svg PUBLIC "-//W3C//DTD SVG 1.1//EN" "http://www.w3.org/Graphics/SVG/1.1/DTD/svg11.dtd">
<!-- Creator: CorelDRAW X7 -->
<svg xmlns="http://www.w3.org/2000/svg" xml:space="preserve" width="300" height="300" version="1.1" style="shape-rendering:geometricPrecision; text-rendering:geometricPrecision; image-rendering:optimizeQuality; fill-rule:evenodd; clip-rule:evenodd"
viewBox="0 0 42497 11761"
 xmlns:xlink="http://www.w3.org/1999/xlink">
 <defs>
  <style type="text/css">
   <![CDATA[
    .fil23 {fill:#EE5623;fill-rule:nonzero}
    .fil14 {fill:url(#id0)}
    .fil17 {fill:url(#id1)}
    .fil4 {fill:url(#id2)}
    .fil16 {fill:url(#id3)}
    .fil7 {fill:url(#id4)}
    .fil0 {fill:url(#id5)}
    .fil20 {fill:url(#id6)}
    .fil18 {fill:url(#id7)}
    .fil6 {fill:url(#id8)}
    .fil8 {fill:url(#id9)}
    .fil11 {fill:url(#id10)}
    .fil2 {fill:url(#id11)}
    .fil1 {fill:url(#id12)}
    .fil13 {fill:url(#id13)}
    .fil22 {fill:url(#id14)}
    .fil9 {fill:url(#id15)}
    .fil10 {fill:url(#id16)}
    .fil15 {fill:url(#id17)}
    .fil12 {fill:url(#id18)}
    .fil3 {fill:url(#id19)}
    .fil19 {fill:url(#id20)}
    .fil5 {fill:url(#id21)}
    .fil21 {fill:url(#id22)}
   ]]>
  </style>
  <linearGradient id="id0" gradientUnits="userSpaceOnUse" x1="5337.88" y1="200.965" x2="5337.88" y2="10899.8">
   <stop offset="0" style="stop-opacity:1; stop-color:#F24D16"/>
   <stop offset="1" style="stop-opacity:1; stop-color:#168BC6"/>
  </linearGradient>
  <linearGradient id="id1" gradientUnits="userSpaceOnUse" xlink:href="#id0" x1="5337.88" y1="200.977" x2="5337.88" y2="10899.8">
  </linearGradient>
  <linearGradient id="id2" gradientUnits="userSpaceOnUse" xlink:href="#id0" x1="5337.88" y1="201" x2="5337.88" y2="10899.8">
  </linearGradient>
  <linearGradient id="id3" gradientUnits="userSpaceOnUse" xlink:href="#id0" x1="5337.88" y1="200.977" x2="5337.88" y2="10899.8">
  </linearGradient>
  <linearGradient id="id4" gradientUnits="userSpaceOnUse" xlink:href="#id0" x1="5337.88" y1="200.965" x2="5337.88" y2="10899.8">
  </linearGradient>
  <linearGradient id="id5" gradientUnits="userSpaceOnUse" xlink:href="#id0" x1="5337.88" y1="200.965" x2="5337.88" y2="10899.8">
  </linearGradient>
  <linearGradient id="id6" gradientUnits="userSpaceOnUse" xlink:href="#id0" x1="5337.89" y1="200.977" x2="5337.89" y2="10899.7">
  </linearGradient>
  <linearGradient id="id7" gradientUnits="userSpaceOnUse" xlink:href="#id0" x1="5337.88" y1="200.977" x2="5337.88" y2="10899.8">
  </linearGradient>
  <linearGradient id="id8" gradientUnits="userSpaceOnUse" xlink:href="#id0" x1="5337.88" y1="200.954" x2="5337.88" y2="10899.8">
  </linearGradient>
  <linearGradient id="id9" gradientUnits="userSpaceOnUse" xlink:href="#id0" x1="5337.88" y1="200.965" x2="5337.88" y2="10899.8">
  </linearGradient>
  <linearGradient id="id10" gradientUnits="userSpaceOnUse" xlink:href="#id0" x1="5337.88" y1="200.965" x2="5337.88" y2="10899.8">
  </linearGradient>
  <linearGradient id="id11" gradientUnits="userSpaceOnUse" xlink:href="#id0" x1="5337.88" y1="200.918" x2="5337.88" y2="10899.8">
  </linearGradient>
  <linearGradient id="id12" gradientUnits="userSpaceOnUse" xlink:href="#id0" x1="5337.88" y1="200.954" x2="5337.88" y2="10899.8">
  </linearGradient>
  <linearGradient id="id13" gradientUnits="userSpaceOnUse" xlink:href="#id0" x1="5337.88" y1="201" x2="5337.88" y2="10899.8">
  </linearGradient>
  <linearGradient id="id14" gradientUnits="userSpaceOnUse" xlink:href="#id0" x1="5337.89" y1="200.965" x2="5337.89" y2="10899.8">
  </linearGradient>
  <linearGradient id="id15" gradientUnits="userSpaceOnUse" xlink:href="#id0" x1="5337.88" y1="200.977" x2="5337.88" y2="10899.8">
  </linearGradient>
  <linearGradient id="id16" gradientUnits="userSpaceOnUse" xlink:href="#id0" x1="5337.88" y1="200.977" x2="5337.88" y2="10899.8">
  </linearGradient>
  <linearGradient id="id17" gradientUnits="userSpaceOnUse" xlink:href="#id0" x1="5337.88" y1="200.965" x2="5337.88" y2="10899.8">
  </linearGradient>
  <linearGradient id="id18" gradientUnits="userSpaceOnUse" xlink:href="#id0" x1="5337.88" y1="200.977" x2="5337.88" y2="10899.8">
  </linearGradient>
  <linearGradient id="id19" gradientUnits="userSpaceOnUse" xlink:href="#id0" x1="5337.88" y1="200.965" x2="5337.88" y2="10899.8">
  </linearGradient>
  <linearGradient id="id20" gradientUnits="userSpaceOnUse" xlink:href="#id0" x1="5337.88" y1="200.965" x2="5337.88" y2="10899.8">
  </linearGradient>
  <linearGradient id="id21" gradientUnits="userSpaceOnUse" xlink:href="#id0" x1="5337.88" y1="200.965" x2="5337.88" y2="10899.8">
  </linearGradient>
  <linearGradient id="id22" gradientUnits="userSpaceOnUse" xlink:href="#id0" x1="5337.88" y1="200.965" x2="5337.88" y2="10899.8">
  </linearGradient>
 </defs>
 <g id="Layer_x0020_1">
  <metadata id="CorelCorpID_0Corel-Layer"/>
  <g id="_556850661136">
   <path class="fil0" d="M5306 2847l2061 993 19 413c-359,-130 -674,-318 -1034,-489 -185,-87 -796,-418 -994,-442l-52 95c96,0 2,-15 43,107 144,116 1888,966 2082,971 161,153 93,334 93,392 0,235 20,-10 3,155 -11,116 28,22 -46,139l57 480 -184 -37c126,278 341,169 19,250 202,0 167,-59 167,114 29,91 37,68 64,221 68,89 34,34 81,168 0,2 153,305 -3,499l22 507 -354 -134 69 199 -123 46c116,131 295,131 399,234 117,119 72,270 144,482l-57 373c117,152 92,278 99,506l-101 136c81,121 136,143 206,335 -555,-72 -2213,-1117 -2644,-1182 5,433 137,1600 50,1931 -553,-3 -3231,122 -3493,21 -125,-141 -76,-210 -99,-455l-1101 393c51,-648 162,-1306 243,-1939 38,-300 141,-1331 269,-1585 84,-165 35,-72 95,-139l66 -431 -444 -27c-7,479 66,765 -13,1262 -69,594 -149,1186 -237,1769 -127,842 18,735 -314,1192 -145,199 -49,66 -105,333l-259 7 0 166c2353,24 32239,134 32440,25 -261,-128 -19818,-127 -21308,-142l-16 -417c-291,-159 -507,-288 -486,-614 -250,-300 -41,-484 -329,-687 37,355 143,407 31,598 -110,-177 -172,-458 -202,-715l593 -3 112 -168 631 -29c-89,-63 -21,-28 -158,-85 -225,-93 -935,-219 -1115,-338 -224,-149 -1865,-2369 -2278,-2702l630 2890 521 5 196 1053 -320 -4c-64,-222 -47,-745 -229,-875 -114,183 36,468 35,879l-397 -22 -967 -6527 -52 154 -11 410c-522,-173 -1594,-845 -1978,-892 -94,30 -37,5 -37,177z"/>
   <path class="fil1" d="M5275 8173c166,127 83,-37 67,205 431,65 2089,1110 2644,1182 -70,-192 -125,-214 -206,-335l101 -136c-403,-163 -858,-398 -1277,-605 -354,-175 -974,-536 -1354,-614l25 303z"/>
   <path class="fil2" d="M2010 9786l3265 -1613 -25 -303c-520,168 -1211,565 -1826,866 -218,107 -1522,635 -1563,874 -54,323 -1,144 149,176z"/>
   <path class="fil3" d="M5347 7381c-24,-94 -36,-32 -29,-166 8,-160 -46,-51 61,-130 -285,-92 -1352,545 -1826,775 -314,151 -593,290 -899,440 -701,343 -669,242 -692,652 421,-103 2927,-1540 3385,-1571z"/>
   <path class="fil4" d="M2231 7693c-177,96 -132,130 -128,364 711,-226 2805,-1496 3223,-1499 -25,-192 -89,-220 15,-275 -75,-62 21,-91 -216,-32l-2894 1442z"/>
   <path class="fil5" d="M5326 5747c-86,-148 -55,-39 -24,-156 45,-169 -2,-44 83,-139 -311,-89 -2023,872 -2549,1133 -614,304 -632,224 -639,621 272,-47 1260,-601 1533,-733 325,-158 1269,-709 1596,-726z"/>
   <path class="fil6" d="M2551 6266c124,-127 2552,-1328 2731,-1336 3,-50 3,-161 8,-182 33,-139 -52,-31 59,-98 -238,-148 -2120,921 -2466,1087 -348,168 -547,157 -570,578l238 -49z"/>
   <path class="fil7" d="M5250 4112c143,-388 -68,-207 165,-271 -298,-135 -1337,489 -1624,632 -897,448 -1323,462 -1344,957 463,-116 2612,-1313 2803,-1318z"/>
   <path class="fil8" d="M4407 396c-208,178 196,14 -126,127l321 9c445,-1 1021,-118 1399,70 308,154 736,402 1065,490 -35,-388 -40,-227 -365,-409l-173 -135c-213,-18 -832,-372 -1065,-478 -287,-131 -336,-61 -583,67 -158,81 -356,139 -473,259z"/>
   <path class="fil9" d="M5326 5747l2356 1129c156,-194 3,-497 3,-499 -47,-134 -13,-79 -81,-168l18 302 -2237 -1059c-85,95 -38,-30 -83,139 -31,117 -62,8 24,156z"/>
   <path class="fil10" d="M5347 7381l2435 1202 57 -373c-381,-33 -1974,-927 -2460,-1125 -107,79 -53,-30 -61,130 -7,134 5,72 29,166z"/>
   <path class="fil11" d="M6926 1466c77,172 -105,55 115,152l-27 85c135,178 63,-15 129,163 66,180 30,179 -11,319l-43 206c10,12 27,13 31,34 11,53 34,-20 94,150 23,65 28,224 33,294 -590,-175 -1601,-886 -2072,-924 9,16 18,36 24,48 6,12 15,33 23,47 8,15 35,68 44,82 63,108 17,48 86,115 272,171 652,335 938,480 279,142 715,404 1042,435l52 -154 -273 -1798c3,442 66,243 -185,266z"/>
   <path class="fil12" d="M2497 4784c643,-161 2421,-1295 2852,-1260 -41,-122 53,-107 -43,-107l52 -95c-125,-192 -465,59 -778,206l-1879 911c-181,105 -160,120 -204,345z"/>
   <path class="fil13" d="M5250 4112l2231 1069c74,-117 35,-23 46,-139 17,-165 -3,80 -3,-155 0,-58 68,-239 -93,-392l15 295c-521,-134 -1466,-698 -2031,-949 -233,64 -22,-117 -165,271z"/>
   <path class="fil14" d="M2978 3632c-211,227 -342,10 -358,457 292,-75 999,-459 1299,-604 357,-174 1010,-561 1387,-638 0,-172 -57,-147 37,-177 -70,-88 86,-51 -139,-67 -113,-8 -902,416 -1020,473 -324,156 -875,468 -1206,556z"/>
   <path class="fil15" d="M5352 2237c-69,-67 -23,-7 -86,-115 -9,-14 -36,-67 -44,-82 -8,-14 -17,-35 -23,-47 -6,-12 -15,-32 -24,-48l-1915 928c-307,142 -524,153 -557,510 599,-156 2241,-1178 2649,-1146z"/>
   <path class="fil16" d="M5282 4930l2258 1058c0,-173 35,-114 -167,-114 322,-81 107,28 -19,-250 -84,-101 -844,-440 -964,-500 -260,-129 -794,-412 -1041,-474 -111,67 -26,-41 -59,98 -5,21 -5,132 -8,182z"/>
   <path class="fil17" d="M5319 1572c-16,-81 -67,-184 36,-204 -114,-192 -1001,336 -1362,510 -707,341 -1151,438 -1205,835 312,-68 926,-432 1237,-580 251,-119 1050,-550 1294,-561z"/>
   <path class="fil18" d="M5326 6558c189,133 1726,876 1970,936l123 -46 -69 -199c-82,-88 -1798,-933 -2009,-966 -104,55 -40,83 -15,275z"/>
   <path class="fil19" d="M3518 1480c-156,62 -256,100 -414,181 -204,106 -213,92 -196,351 407,-138 2130,-1096 2360,-1088 47,-314 67,-108 -36,-238 52,59 13,38 136,49 -117,-183 -276,-44 -459,51 -172,90 -328,157 -492,235 -204,96 -758,339 -899,459z"/>
   <path class="fil20" d="M5319 1572c235,139 1561,811 1770,819l43 -206c-369,-147 -1496,-794 -1777,-817 -103,20 -52,123 -36,204z"/>
   <path class="fil21" d="M5268 924c358,142 1491,756 1746,779l27 -85c-220,-97 -38,20 -115,-152 -87,-107 -1429,-749 -1558,-731 -123,-11 -84,10 -136,-49 103,130 83,-76 36,238z"/>
   <path class="fil22" d="M3364 828c-55,64 -18,40 -101,98 -214,151 -243,30 -292,363l154 -29 1477 -728 -321 -9c322,-113 -82,51 126,-127 -319,89 -807,427 -1043,432z"/>
  </g>
  <path class="fil23" d="M12742 10433l0 -580 1490 0c237,0 417,-47 540,-140 123,-94 184,-230 184,-411 0,-140 -47,-262 -141,-367 -95,-105 -272,-222 -532,-354l-729 -375c-269,-136 -468,-293 -598,-470 -130,-177 -195,-380 -195,-607 0,-327 118,-584 356,-773 238,-188 563,-283 978,-283l1260 0 0 574 -1451 0c-166,0 -299,43 -397,127 -99,84 -148,194 -148,333 0,125 43,235 129,327 86,93 293,223 620,391l635 323c278,143 484,305 618,488 133,183 200,395 200,636 0,368 -126,653 -376,856 -251,203 -606,305 -1066,305l-1377 0z"/>
  <path id="1" class="fil23" d="M16165 10433l0 -4360 536 0 0 2457 238 0c152,0 277,-31 373,-95 97,-62 201,-187 313,-371l380 -618 623 0 -437 709c-77,128 -153,233 -228,316 -76,84 -147,143 -213,177 244,47 425,148 541,304 117,155 175,375 175,659l0 822 -536 0 0 -756c0,-215 -47,-372 -142,-473 -94,-101 -244,-150 -450,-150l-637 0 0 1379 -536 0z"/>
  <path id="2" class="fil23" d="M21604 7446l0 1629c0,382 -83,689 -249,918 -167,231 -418,388 -755,471l0 1297 -536 0 0 -1297c-337,-83 -588,-239 -752,-469 -164,-229 -246,-536 -246,-920l0 -1629 530 0 0 1727c0,236 70,427 209,576 139,149 316,222 532,222 217,0 394,-73 531,-222 137,-149 206,-340 206,-576l0 -1727 530 0z"/>
  <path id="3" class="fil23" d="M22154 10433l0 -580 1491 0c237,0 416,-47 539,-140 123,-94 184,-230 184,-411 0,-140 -47,-262 -141,-367 -95,-105 -272,-222 -532,-354l-729 -375c-268,-136 -468,-293 -598,-470 -130,-177 -195,-380 -195,-607 0,-327 118,-584 356,-773 238,-188 564,-283 978,-283l1260 0 0 574 -1451 0c-166,0 -299,43 -397,127 -99,84 -148,194 -148,333 0,125 43,235 129,327 87,93 293,223 620,391l635 323c278,143 484,305 618,488 133,183 200,395 200,636 0,368 -126,653 -376,856 -251,203 -606,305 -1066,305l-1377 0z"/>
  <path id="4" class="fil23" d="M27417 7957l-232 0c-375,0 -676,89 -899,269 -224,180 -335,419 -335,717 0,298 112,536 337,716 224,179 524,269 897,269l232 0 0 505 -269 0c-533,0 -958,-136 -1276,-410 -317,-273 -476,-636 -476,-1088 0,-244 57,-472 170,-683 114,-211 275,-389 484,-532 146,-98 301,-168 465,-211 165,-43 376,-63 633,-63l269 0 0 511z"/>
  <path id="5" class="fil23" d="M30253 10433l0 -1488c0,-312 -88,-566 -265,-759 -176,-195 -406,-291 -689,-291 -281,0 -510,95 -690,288 -180,191 -270,438 -270,741 0,308 92,561 277,758 185,197 420,296 707,296 130,0 257,-23 379,-68 123,-45 247,-113 370,-207l0 575c-121,70 -250,121 -384,155 -135,33 -277,50 -425,50 -142,0 -283,-22 -423,-66 -140,-43 -266,-105 -381,-184 -215,-148 -379,-334 -492,-557 -114,-222 -171,-470 -171,-742 0,-447 141,-816 423,-1107 282,-292 639,-438 1074,-438 286,0 548,72 785,217 237,144 420,343 547,594 60,115 101,239 126,374 26,136 39,337 39,605l0 1254 -537 0z"/>
  <path id="6" class="fil23" d="M31426 11761l0 -2582c0,-253 12,-451 38,-591 25,-140 68,-269 126,-388 124,-253 305,-452 543,-595 239,-144 504,-216 796,-216 434,0 792,146 1074,438 281,291 423,660 423,1107 0,204 -36,398 -105,583 -70,184 -171,349 -303,493 -134,151 -294,267 -481,349 -187,82 -382,124 -584,124 -149,0 -290,-17 -425,-50 -134,-33 -263,-85 -385,-154l0 -576c122,94 245,162 372,207 126,45 254,68 384,68 287,0 521,-99 706,-296 186,-197 278,-450 278,-758 0,-301 -90,-547 -271,-740 -181,-193 -413,-289 -696,-289 -282,0 -512,96 -689,291 -177,193 -265,447 -265,759l0 2816 -536 0z"/>
  <path id="7" class="fil23" d="M37812 9112c-75,426 -247,764 -518,1011 -269,249 -597,372 -985,372 -132,0 -262,-17 -391,-53 -129,-36 -250,-88 -364,-157 -239,-146 -425,-338 -557,-573 -132,-235 -197,-495 -197,-777 0,-208 38,-404 114,-591 76,-187 186,-356 330,-507 144,-148 308,-260 491,-338 184,-77 378,-116 580,-116 303,0 573,80 811,240 239,159 432,392 580,698l-1957 1084 -226 -405 1453 -810c-89,-100 -190,-175 -301,-226 -112,-51 -234,-76 -366,-76 -268,0 -495,100 -679,301 -184,199 -275,447 -275,741 0,292 92,539 277,740 185,201 410,301 676,301 255,0 467,-84 639,-251 172,-167 279,-398 321,-690l544 82z"/>
  <path id="8" class="fil23" d="M38355 10433l0 -2987 493 0 0 440c92,-174 218,-301 378,-379 160,-78 376,-118 647,-118l141 0 0 518 -82 0c-367,0 -632,87 -796,262 -163,175 -245,459 -245,853l0 1411 -536 0z"/>
  <path id="9" class="fil23" d="M40233 9921l1292 0c130,0 232,-24 306,-75 73,-51 111,-122 111,-210 0,-76 -28,-140 -84,-193 -55,-53 -160,-112 -315,-176l-512 -207c-300,-123 -507,-247 -621,-373 -114,-127 -171,-289 -171,-487 0,-243 86,-430 259,-560 173,-130 421,-194 743,-194l1106 0 0 498 -1248 0c-102,0 -181,22 -238,67 -57,45 -85,108 -85,189 0,62 24,116 75,164 51,49 136,98 253,147l539 219c336,139 562,272 678,399 118,128 176,290 176,488 0,275 -103,481 -308,615 -205,134 -521,201 -948,201l-1008 0 0 -512z"/>
 </g>
</svg>
