<?xml version="1.0" encoding="UTF-8"?>
<!DOCTYPE svg PUBLIC "-//W3C//DTD SVG 1.1//EN" "http://www.w3.org/Graphics/SVG/1.1/DTD/svg11.dtd">
<!-- Creator: CorelDRAW X7 -->
<svg xmlns="http://www.w3.org/2000/svg" xml:space="preserve" width="100" height="100" version="1.1" style="shape-rendering:geometricPrecision; text-rendering:geometricPrecision; image-rendering:optimizeQuality; fill-rule:evenodd; clip-rule:evenodd"
viewBox="0 0 2527 2520"
 xmlns:xlink="http://www.w3.org/1999/xlink">
 <defs>
  <style type="text/css">
   <![CDATA[
    .fil0 {fill:#707173}
    .fil1 {fill:#ED613D}
   ]]>
  </style>
 </defs>
 <g id="Layer_x0020_1">
  <metadata id="CorelCorpID_0Corel-Layer"/>
  <g id="_556760823616">
   <path class="fil0" d="M1943 1438c192,-42 344,96 373,251 33,179 -98,333 -244,362 -406,80 -533,-525 -129,-613zm-509 384l3 -170c92,-63 151,-2 133,-161l61 37 -40 113c-54,5 -63,-10 -106,21 -17,34 -20,107 -2,138 28,36 42,23 103,28l33 110c-10,9 -15,15 -24,21 -24,19 -12,11 -35,22 20,-119 -28,-128 -126,-159zm1080 -252c-35,-106 -51,-65 -141,-55 -23,-27 -42,-50 -66,-80 19,-78 83,-89 -21,-151 -96,-56 -96,-17 -142,51l-110 -28c-1,-1 3,-170 -184,-71 -12,43 -2,63 -2,110 -42,14 -58,33 -97,45 -68,-41 -81,-84 -150,3l-43 57c-1,-1 -3,4 -5,6 -14,-50 -18,-81 -68,-97 -37,26 -87,100 -118,135 -39,43 -79,92 -119,137 -82,92 9,202 -145,368 -153,166 -235,78 -328,186 -36,42 -218,238 -233,291 46,19 133,51 191,41 76,-14 54,-83 86,-152l162 -23c71,96 54,166 207,79 158,-90 69,-102 38,-217 9,-13 97,-115 111,-126 119,32 154,84 205,-65l47 66c74,95 98,28 152,4 34,16 51,34 92,49 -2,54 -28,101 22,125 25,13 91,21 123,13 38,-37 26,-40 40,-97l113 -15c22,42 20,44 50,77 61,2 110,-34 142,-59 7,-73 -9,-57 -28,-110 9,-16 48,-60 68,-80 48,2 44,22 105,15 29,-29 60,-90 51,-152 -24,-15 -50,-28 -86,-41l3 -115c80,-27 110,-32 78,-124z"/>
   <path class="fil1" d="M648 2105c-42,-16 -60,-28 -96,-53 -361,-267 -78,-856 362,-728 168,49 230,157 286,296 32,-24 198,-213 213,-253l-67 16c-19,-22 -33,-44 -50,-65 -19,-25 -36,-36 -51,-61 30,-111 128,-125 -32,-221 -158,-96 -133,-8 -212,73l-154 -32c-56,-59 35,-177 -168,-146 -168,26 -120,52 -115,188 -14,11 -132,76 -145,81 -103,-50 -97,-144 -227,-2 -123,135 -8,142 41,218l-61 154c-139,10 -171,-25 -172,141 -1,162 39,121 170,140l52 156c-90,100 -151,83 -39,227 105,135 122,38 216,-5 28,12 119,68 141,84l-7 82c44,-21 24,-16 69,-67 39,-45 139,-153 158,-192 -26,-12 -79,-18 -112,-31z"/>
   <path class="fil1" d="M719 567c-20,-184 119,-331 276,-348 178,-20 330,118 347,271 46,431 -580,477 -623,77zm615 -346c14,-53 33,-41 29,-108 -23,-20 -82,-62 -109,-66 -49,-7 -63,41 -85,72 -24,-1 -99,-10 -111,-26 -9,-26 -18,-71 -22,-88 -61,-10 -116,-5 -165,20l-1 107 -96 48c-57,-27 -66,-102 -158,11 -95,116 112,79 -10,238 -46,3 -64,-4 -97,19 -16,35 -24,115 1,145 28,31 49,21 99,23l34 108c-21,22 -39,29 -59,60 -6,63 44,118 91,133 60,-6 43,-23 90,-46l91 61c-2,50 -24,97 28,117l96 13c54,-7 50,-46 57,-96l115 -19 45 75c55,4 45,5 85,-16 123,-63 52,-83 37,-153l67 -73c40,-1 64,16 107,11 101,-136 43,-165 -37,-194l5 -114c64,-30 88,-22 86,-84 -4,-159 -138,-98 -151,-98 -24,-27 -46,-54 -62,-80z"/>
  </g>
 </g>
</svg>
