<?xml version="1.0" encoding="UTF-8"?>
<!DOCTYPE svg PUBLIC "-//W3C//DTD SVG 1.1//EN" "http://www.w3.org/Graphics/SVG/1.1/DTD/svg11.dtd">
<!-- Creator: CorelDRAW X7 -->
<svg xmlns="http://www.w3.org/2000/svg" xml:space="preserve" width="300" height="300" version="1.1" style="shape-rendering:geometricPrecision; text-rendering:geometricPrecision; image-rendering:optimizeQuality; fill-rule:evenodd; clip-rule:evenodd"
viewBox="0 0 1539 2735"
 xmlns:xlink="http://www.w3.org/1999/xlink">
 <defs>
  <style type="text/css">
   <![CDATA[
    .fil0 {fill:url(#id0)}
   ]]>
  </style>
  <linearGradient id="id0" gradientUnits="userSpaceOnUse" x1="1251.57" y1="301.306" x2="508.888" y2="2589.46">
   <stop offset="0" style="stop-opacity:1; stop-color:yellow"/>
   <stop offset="1" style="stop-opacity:1; stop-color:#F24D16"/>
  </linearGradient>
 </defs>
 <g id="Layer_x0020_1">
  <metadata id="CorelCorpID_0Corel-Layer"/>
  <path class="fil0" d="M969 555c-21,-17 -35,-53 -10,-74 7,-7 11,-8 20,-12 64,-27 33,-34 128,29 21,15 49,25 71,41 -4,0 -10,0 -14,-1l-14 -2c-94,-15 -128,8 -181,19zm203 -110c0,0 252,38 277,82 24,44 -307,-55 -277,-82zm-116 159c0,0 299,38 328,82 29,44 -364,-55 -328,-82zm-43 -305c84,-50 55,-22 156,36 21,12 26,15 50,25l45 25c-38,-2 -64,-8 -101,-8 -36,-1 -72,0 -108,0 -18,-17 -42,-43 -42,-78zm411 46c-130,-6 -351,-116 -75,-51l91 32c18,11 13,7 16,20l-32 -1zm90 178c-16,-40 -73,-74 -103,-88 -10,-5 -19,-9 -30,-14l-32 -10c13,-6 -17,-5 17,-4 23,0 46,5 69,6 46,-2 75,-21 75,-21 8,-5 15,-10 20,-15 10,-14 13,-34 5,-55 -7,-15 -19,-27 -32,-36 -29,-19 -62,-31 -62,-31l0 0c-105,-43 -215,-56 -335,-54 -92,-97 192,-38 206,-35 42,10 94,33 138,30 7,-84 6,-151 -58,-182 -77,-38 -136,6 -162,64l-102 4c-42,5 -94,21 -104,68 -8,33 4,40 9,63 -9,7 2,0 -9,6 -6,3 -10,4 -15,6 -29,12 -47,23 -58,57 -20,60 21,75 27,113 -35,19 -70,31 -92,72 -29,54 7,95 24,131 -44,57 -77,130 -102,199 -8,23 -12,24 -21,42 -10,19 -6,16 -22,36l-82 100c-79,78 -245,165 -353,257 -142,120 -242,251 -300,434 -41,132 -37,303 -7,434 14,62 40,124 67,175 148,280 445,459 767,460 110,0 210,-19 311,-60 67,-27 127,-66 184,-111 56,-45 12,-94 -45,-51 -48,37 -91,67 -153,94 -199,88 -449,78 -645,-18 -50,-24 -126,-72 -169,-109 -23,-19 -42,-38 -61,-57l-55 -62c-141,-178 -216,-449 -115,-725 94,-256 309,-396 527,-537 113,-72 194,-181 245,-306 22,-53 47,-121 83,-150l96 52c71,32 141,51 215,63l0 0 1 1c24,4 49,7 73,10 87,0 111,-55 111,-55 34,-30 -92,-126 -92,-126 143,14 146,-64 146,-65z"/>
 </g>
</svg>
