<?xml version="1.0" encoding="UTF-8"?>
<!DOCTYPE svg PUBLIC "-//W3C//DTD SVG 1.1//EN" "http://www.w3.org/Graphics/SVG/1.1/DTD/svg11.dtd">
<!-- Creator: CorelDRAW X7 -->
<svg xmlns="http://www.w3.org/2000/svg" xml:space="preserve" width="100" height="100" version="1.1" style="shape-rendering:geometricPrecision; text-rendering:geometricPrecision; image-rendering:optimizeQuality; fill-rule:evenodd; clip-rule:evenodd"
viewBox="0 0 9336 27664"
 xmlns:xlink="http://www.w3.org/1999/xlink">
 <defs>
  <style type="text/css">
   <![CDATA[
    .fil12 {fill:url(#id0)}
    .fil3 {fill:url(#id1)}
    .fil2 {fill:url(#id2)}
    .fil7 {fill:url(#id3)}
    .fil22 {fill:url(#id4)}
    .fil1 {fill:url(#id5)}
    .fil11 {fill:url(#id6)}
    .fil5 {fill:url(#id7)}
    .fil15 {fill:url(#id8)}
    .fil21 {fill:url(#id9)}
    .fil10 {fill:url(#id10)}
    .fil0 {fill:url(#id11)}
    .fil20 {fill:url(#id12)}
    .fil6 {fill:url(#id13)}
    .fil9 {fill:url(#id14)}
    .fil16 {fill:url(#id15)}
    .fil4 {fill:url(#id16)}
    .fil13 {fill:url(#id17)}
    .fil17 {fill:url(#id18)}
    .fil18 {fill:url(#id19)}
    .fil14 {fill:url(#id20)}
    .fil19 {fill:url(#id21)}
    .fil8 {fill:url(#id22)}
   ]]>
  </style>
  <linearGradient id="id0" gradientUnits="userSpaceOnUse" x1="171.39" y1="23112.1" x2="9295.17" y2="23112.1">
   <stop offset="0" style="stop-opacity:1; stop-color:#F24D16"/>
   <stop offset="1" style="stop-opacity:1; stop-color:#168BC6"/>
  </linearGradient>
  <linearGradient id="id1" gradientUnits="userSpaceOnUse" xlink:href="#id0" x1="171.39" y1="23112.1" x2="9295.17" y2="23112.1">
  </linearGradient>
  <linearGradient id="id2" gradientUnits="userSpaceOnUse" xlink:href="#id0" x1="171.39" y1="23112.1" x2="9295.17" y2="23112.1">
  </linearGradient>
  <linearGradient id="id3" gradientUnits="userSpaceOnUse" xlink:href="#id0" x1="171.39" y1="23112.1" x2="9295.17" y2="23112.1">
  </linearGradient>
  <linearGradient id="id4" gradientUnits="userSpaceOnUse" xlink:href="#id0" x1="171.39" y1="23112.1" x2="9295.17" y2="23112.1">
  </linearGradient>
  <linearGradient id="id5" gradientUnits="userSpaceOnUse" xlink:href="#id0" x1="171.39" y1="23112.1" x2="9295.17" y2="23112.1">
  </linearGradient>
  <linearGradient id="id6" gradientUnits="userSpaceOnUse" xlink:href="#id0" x1="171.39" y1="23112.1" x2="9295.17" y2="23112.1">
  </linearGradient>
  <linearGradient id="id7" gradientUnits="userSpaceOnUse" xlink:href="#id0" x1="171.39" y1="23112.1" x2="9295.17" y2="23112.1">
  </linearGradient>
  <linearGradient id="id8" gradientUnits="userSpaceOnUse" xlink:href="#id0" x1="171.39" y1="23112.1" x2="9295.17" y2="23112.1">
  </linearGradient>
  <linearGradient id="id9" gradientUnits="userSpaceOnUse" xlink:href="#id0" x1="171.39" y1="23112.1" x2="9295.17" y2="23112.1">
  </linearGradient>
  <linearGradient id="id10" gradientUnits="userSpaceOnUse" xlink:href="#id0" x1="171.39" y1="23112.1" x2="9295.17" y2="23112.1">
  </linearGradient>
  <linearGradient id="id11" gradientUnits="userSpaceOnUse" xlink:href="#id0" x1="171.39" y1="23112.1" x2="9295.17" y2="23112.1">
  </linearGradient>
  <linearGradient id="id12" gradientUnits="userSpaceOnUse" xlink:href="#id0" x1="171.39" y1="23112.1" x2="9295.17" y2="23112.1">
  </linearGradient>
  <linearGradient id="id13" gradientUnits="userSpaceOnUse" xlink:href="#id0" x1="171.39" y1="23112.1" x2="9295.17" y2="23112.1">
  </linearGradient>
  <linearGradient id="id14" gradientUnits="userSpaceOnUse" xlink:href="#id0" x1="171.39" y1="23112.1" x2="9295.17" y2="23112.1">
  </linearGradient>
  <linearGradient id="id15" gradientUnits="userSpaceOnUse" xlink:href="#id0" x1="171.39" y1="23112.1" x2="9295.17" y2="23112.1">
  </linearGradient>
  <linearGradient id="id16" gradientUnits="userSpaceOnUse" xlink:href="#id0" x1="171.39" y1="23112.1" x2="9295.17" y2="23112.1">
  </linearGradient>
  <linearGradient id="id17" gradientUnits="userSpaceOnUse" xlink:href="#id0" x1="171.39" y1="23112.1" x2="9295.17" y2="23112.1">
  </linearGradient>
  <linearGradient id="id18" gradientUnits="userSpaceOnUse" xlink:href="#id0" x1="171.39" y1="23112.1" x2="9295.17" y2="23112.1">
  </linearGradient>
  <linearGradient id="id19" gradientUnits="userSpaceOnUse" xlink:href="#id0" x1="171.39" y1="23112.1" x2="9295.17" y2="23112.1">
  </linearGradient>
  <linearGradient id="id20" gradientUnits="userSpaceOnUse" xlink:href="#id0" x1="171.39" y1="23112.1" x2="9295.17" y2="23112.1">
  </linearGradient>
  <linearGradient id="id21" gradientUnits="userSpaceOnUse" xlink:href="#id0" x1="171.39" y1="23112.1" x2="9295.17" y2="23112.1">
  </linearGradient>
  <linearGradient id="id22" gradientUnits="userSpaceOnUse" xlink:href="#id0" x1="171.39" y1="23112.1" x2="9295.17" y2="23112.1">
  </linearGradient>
 </defs>
 <g id="Layer_x0020_1">
  <metadata id="CorelCorpID_0Corel-Layer"/>
  <g id="_558327003488">
   <path class="fil0" d="M2428 23140l847 -1758 352 -17c-111,306 -271,575 -417,883 -74,157 -357,678 -377,847l81 45c0,-83 -13,-2 91,-38 99,-122 824,-1610 828,-1775 131,-137 285,-80 334,-80 201,1 -8,-17 133,-2 99,10 18,-23 118,39l410 -49 -32 158c237,-107 144,-291 213,-16 0,-173 -50,-143 97,-143 78,-25 59,-31 189,-54 76,-59 29,-29 144,-69 1,0 259,-131 425,2l432 -19 -114 302 170 -59 39 105c112,-99 111,-252 200,-340 101,-100 229,-61 410,-123l319 49c129,-100 237,-79 431,-85l116 87c103,-69 122,-117 285,-177 -61,474 -952,1888 -1007,2256 368,-5 1364,-117 1647,-43 -3,472 104,2755 17,2979 -120,106 -179,64 -388,84l335 939c-552,-44 -1113,-138 -1653,-207 -256,-33 -1136,-120 -1352,-230 -141,-71 -61,-29 -118,-80l-368 -57 -23 379c409,6 652,-56 1077,11 506,59 1011,127 1508,202 718,108 626,-16 1017,268 169,123 56,41 283,89l6 221 142 0c20,-2006 114,-27492 21,-27664 -109,222 -108,16900 -121,18171l-355 13c-136,249 -246,433 -524,415 -256,213 -413,35 -586,280 302,-31 347,-121 510,-26 -151,94 -391,147 -610,172l-2 -505 -144 -96 -24 -537c-54,75 -24,17 -73,134 -79,192 -186,797 -288,951 -127,191 -2021,1590 -2304,1942l2464 -537 4 -444 898 -167 -3 273c-190,54 -635,39 -746,195 156,97 399,-31 749,-30l-18 338 -5566 825 131 44 350 10c-148,445 -721,1360 -761,1686 25,81 4,33 151,33z"/>
   <path class="fil1" d="M6969 23166c109,-142 -30,-71 176,-57 55,-368 946,-1782 1007,-2256 -163,60 -182,108 -285,177l-116 -87c-139,344 -340,732 -516,1090 -149,301 -457,830 -523,1154l257 -21z"/>
   <path class="fil2" d="M8345 25950l-1376 -2784 -257 21c143,444 481,1033 738,1557 91,186 541,1298 745,1333 276,47 123,1 150,-127z"/>
   <path class="fil3" d="M6295 23105c-81,20 -28,30 -142,24 -136,-7 -43,40 -111,-52 -79,243 465,1153 660,1558 130,267 248,505 376,766 293,597 207,570 556,590 -88,-359 -1314,-2496 -1339,-2886z"/>
   <path class="fil4" d="M6560 25762c83,151 111,112 311,109 -193,-607 -1276,-2392 -1279,-2749 -163,21 -187,76 -234,-13 -53,64 -78,-18 -27,185l1229 2468z"/>
   <path class="fil5" d="M4901 23122c-127,74 -33,47 -133,21 -145,-38 -38,2 -119,-71 -76,265 744,1725 967,2173 259,524 191,540 529,546 -40,-232 -512,-1075 -625,-1307 -135,-278 -605,-1083 -619,-1362z"/>
   <path class="fil6" d="M5343 25488c-108,-105 -1132,-2175 -1139,-2328 -43,-3 -137,-3 -155,-7 -119,-29 -27,44 -83,-51 -127,204 785,1808 927,2103 143,298 133,467 492,487l-42 -204z"/>
   <path class="fil7" d="M3507 23187c-331,-122 -176,58 -231,-140 -116,253 417,1139 539,1384 382,765 394,1129 815,1146 -98,-394 -1119,-2227 -1123,-2390z"/>
   <path class="fil8" d="M338 23906c152,177 12,-167 108,107l7 -273c0,-380 -100,-871 61,-1193 131,-263 342,-628 417,-908 -330,29 -193,34 -349,310l-115 148c-15,182 -317,710 -407,908 -112,245 -52,287 56,498 70,135 120,303 222,403z"/>
   <path class="fil9" d="M4901 23122l963 -2009c-166,-133 -424,-2 -425,-2 -115,40 -68,10 -144,69l258 -16 -904 1908c81,73 -26,33 119,71 100,26 6,53 133,-21z"/>
   <path class="fil10" d="M6295 23105l1025 -2077 -319 -49c-28,325 -791,1684 -959,2098 68,92 -25,45 111,52 114,6 61,-4 142,-24z"/>
   <path class="fil11" d="M1250 21758c147,-66 47,89 130,-98l72 23c153,-115 -12,-54 139,-110 154,-57 153,-26 273,9l175 37c10,-9 11,-23 29,-27 45,-9 -17,-29 128,-80 55,-19 191,-24 251,-28 -150,503 -756,1366 -788,1767 13,-7 30,-15 41,-20 10,-6 28,-14 39,-20 13,-7 58,-30 71,-37 91,-54 40,-15 98,-74 145,-232 285,-556 409,-800 121,-238 345,-610 371,-889l-131 -44 -1533 233c376,-3 207,-56 226,158z"/>
   <path class="fil12" d="M4079 25535c-137,-548 -1104,-2065 -1074,-2433 -104,36 -91,-45 -91,38l-81 -45c-164,107 50,396 176,664l777 1602c89,154 102,136 293,174z"/>
   <path class="fil13" d="M3507 23187l911 -1903c-100,-62 -19,-29 -118,-39 -141,-15 68,3 -133,2 -49,0 -203,-57 -334,80l252 -13c-115,445 -596,1251 -809,1733 55,198 -100,18 231,140z"/>
   <path class="fil14" d="M3098 25125c193,179 8,291 389,305 -64,-249 -391,-852 -515,-1108 -149,-304 -478,-861 -544,-1182 -147,0 -126,48 -151,-33 -75,60 -44,-73 -57,120 -7,95 355,768 403,869 133,277 400,746 475,1029z"/>
   <path class="fil15" d="M1908 23100c-58,59 -7,20 -98,74 -13,7 -58,30 -71,37 -11,6 -29,14 -39,20 -11,5 -28,13 -41,20l791 1633c122,262 130,447 435,475 -133,-510 -1005,-1911 -977,-2259z"/>
   <path class="fil16" d="M4204 23160l902 -1926c-147,0 -97,-30 -97,143 -69,-275 24,-91 -213,16 -86,71 -375,719 -426,822 -110,222 -351,677 -404,887 56,95 -36,22 83,51 18,4 112,4 155,7z"/>
   <path class="fil17" d="M1340 23128c-69,14 -156,57 -173,-31 -164,98 286,854 435,1162 290,603 373,982 712,1027 -58,-265 -369,-789 -495,-1054 -101,-214 -469,-896 -479,-1104z"/>
   <path class="fil18" d="M5592 23122c114,-161 747,-1472 799,-1680l-39 -105 -170 59c-75,70 -796,1534 -824,1713 47,89 71,34 234,13z"/>
   <path class="fil19" d="M1262 24664c53,133 85,219 155,353 90,174 78,182 298,167 -117,-347 -934,-1816 -927,-2012 -268,-41 -92,-57 -203,30 50,-44 33,-11 42,-116 -157,100 -37,236 44,392 76,146 133,280 199,419 83,174 290,647 392,767z"/>
   <path class="fil20" d="M1340 23128c119,-200 693,-1331 699,-1509l-175 -37c-126,315 -678,1276 -697,1515 17,88 104,45 173,31z"/>
   <path class="fil21" d="M788 23172c121,-306 645,-1272 664,-1489l-72 -23c-83,187 17,32 -130,98 -91,74 -638,1219 -623,1328 -9,105 8,72 -42,116 111,-87 -65,-71 203,-30z"/>
   <path class="fil22" d="M706 24796c54,47 34,15 84,85 128,183 25,208 310,249l-25 -130 -622 -1260 -7 273c-96,-274 44,70 -108,-107 75,272 364,688 368,890z"/>
  </g>
 </g>
</svg>
