<?xml version="1.0" encoding="UTF-8"?>
<!DOCTYPE svg PUBLIC "-//W3C//DTD SVG 1.1//EN" "http://www.w3.org/Graphics/SVG/1.1/DTD/svg11.dtd">
<!-- Creator: CorelDRAW X7 -->
<svg xmlns="http://www.w3.org/2000/svg" xml:space="preserve" width="300" height="300" version="1.1" style="shape-rendering:geometricPrecision; text-rendering:geometricPrecision; image-rendering:optimizeQuality; fill-rule:evenodd; clip-rule:evenodd"
viewBox="0 0 57228 14844"
 xmlns:xlink="http://www.w3.org/1999/xlink">
 <defs>
  <style type="text/css">
   <![CDATA[
    .str0 {stroke:#898989;stroke-width:299.218}
    .str2 {stroke:#E31E24;stroke-width:299.218}
    .str1 {stroke:#E31E24;stroke-width:498.696}
    .fil0 {fill:none}
    .fil1 {fill:#E31E24}
    .fil2 {fill:#EE5623;fill-rule:nonzero}
   ]]>
  </style>
 </defs>
 <g id="Layer_x0020_1">
  <metadata id="CorelCorpID_0Corel-Layer"/>
  <g id="_556850655760">
   <g>
    <polyline class="fil0 str0" points="5945,7077 7109,5914 12444,5914 "/>
    <polyline class="fil0 str0" points="3503,3366 5619,3366 7385,5132 11910,5132 "/>
    <polyline class="fil0 str0" points="443,6019 1314,5148 4366,5148 5200,4314 6502,4314 "/>
    <polyline class="fil0 str0" points="8321,2812 11869,2812 14701,5644 21785,5644 "/>
    <path class="fil0 str1" d="M26932 4196l-3646 0 -2376 2377 -1725 1725 -7162 0 -6023 6022 -4264 0m683 -13900l1465 0 3956 3955 3304 0 2091 2092 7838 0"/>
    <circle class="fil0 str2" cx="10265" cy="13392" r="1302"/>
    <circle class="fil0 str2" cx="15671" cy="3927" r="937"/>
    <g>
     <circle class="fil0 str0" cx="6578" cy="9033" r="1302"/>
     <circle class="fil0 str0" cx="2373" cy="9482" r="1009"/>
    </g>
    <circle class="fil0 str2" cx="1087" cy="1087" r="937"/>
    <g>
     <circle class="fil1" cx="3773" cy="6752" r="1009"/>
     <circle class="fil1" cx="4463" cy="11340" r="1009"/>
    </g>
   </g>
   <path class="fil2" d="M28769 2840c-20,-2 -42,-4 -65,-5 -23,-1 -55,-1 -99,-1 -458,0 -823,96 -1090,286 -268,191 -441,475 -519,855l1773 0 0 440 -1798 0c62,411 229,721 500,932 271,209 643,315 1114,315 50,0 88,-1 114,-2 26,-1 50,-2 70,-4l0 451 -142 0c-275,0 -518,-21 -726,-64 -210,-44 -385,-108 -527,-195 -297,-181 -524,-407 -679,-680 -156,-271 -234,-577 -234,-917 0,-339 78,-643 234,-915 155,-270 382,-496 679,-675 142,-87 317,-152 527,-195 208,-45 451,-67 726,-67l142 0 0 441z"/>
   <path id="1" class="fil2" d="M29256 6107l0 -1469c0,-346 90,-618 272,-819 181,-201 425,-300 732,-300 157,0 302,33 435,99 132,67 247,164 343,291 100,-129 216,-226 348,-292 131,-66 275,-98 432,-98 304,0 547,100 730,301 182,202 273,474 273,818l0 1469 -451 0 0 -1555c0,-178 -51,-321 -153,-430 -102,-108 -234,-163 -399,-163 -164,0 -297,55 -399,163 -101,109 -152,252 -152,430l0 1555 -451 0 0 -1555c0,-178 -53,-321 -156,-430 -103,-108 -237,-163 -401,-163 -166,0 -299,55 -401,163 -101,109 -151,252 -151,430l0 1555 -451 0z"/>
   <path id="2" class="fil2" d="M33372 2399l456 0 0 2432c0,267 75,482 225,647 151,165 346,247 586,247 244,0 442,-82 595,-247 152,-165 228,-382 228,-652 0,-257 -78,-467 -235,-629 -156,-162 -357,-243 -603,-243 -110,0 -219,18 -326,56 -108,38 -213,97 -316,177l0 -490c103,-58 213,-102 327,-131 115,-28 235,-42 361,-42 121,0 241,18 360,56 120,37 227,89 324,156 185,128 325,286 423,475 98,188 146,396 146,622 0,384 -120,700 -361,949 -241,248 -544,373 -912,373 -245,0 -469,-62 -673,-186 -203,-123 -359,-293 -466,-509 -49,-95 -85,-200 -107,-314 -22,-115 -32,-285 -32,-513l0 -2234z"/>
   <path id="3" class="fil2" d="M38804 4984c-64,362 -211,649 -441,860 -229,211 -508,316 -838,316 -112,0 -223,-15 -332,-45 -110,-31 -213,-75 -310,-133 -203,-125 -361,-288 -474,-488 -112,-200 -168,-421 -168,-661 0,-177 33,-344 98,-503 64,-159 158,-302 280,-430 123,-127 262,-222 418,-289 157,-65 321,-98 493,-98 258,0 488,68 690,204 203,136 368,334 493,594l-1664 922 -192 -345 1236 -689c-76,-85 -162,-148 -257,-192 -95,-43 -199,-64 -311,-64 -228,0 -421,85 -577,255 -157,170 -234,381 -234,631 0,248 78,459 236,629 157,171 348,257 574,257 217,0 397,-72 544,-214 146,-143 237,-339 273,-587l463 70z"/>
   <path id="4" class="fil2" d="M41679 2399l0 2234c0,228 -11,399 -33,513 -21,114 -58,219 -107,314 -107,218 -262,388 -464,511 -202,123 -425,184 -670,184 -370,0 -676,-125 -916,-375 -242,-249 -362,-565 -362,-947 0,-171 29,-335 89,-490 58,-155 144,-295 256,-418 114,-127 250,-226 409,-296 159,-70 326,-105 498,-105 126,0 247,14 362,42 115,29 224,73 328,131l0 490c-106,-80 -211,-138 -315,-176 -104,-38 -212,-57 -323,-57 -244,0 -444,84 -601,251 -157,168 -236,382 -236,645 0,257 77,468 230,630 153,164 348,245 587,245 240,0 436,-82 586,-247 150,-165 225,-380 225,-647l0 -2432 457 0z"/>
   <path id="5" class="fil2" d="M44660 2399l0 2234c0,228 -11,399 -33,513 -21,114 -57,219 -107,314 -107,218 -262,388 -464,511 -202,123 -425,184 -670,184 -370,0 -676,-125 -916,-375 -241,-249 -362,-565 -362,-947 0,-171 30,-335 89,-490 58,-155 144,-295 256,-418 114,-127 250,-226 409,-296 160,-70 326,-105 498,-105 127,0 247,14 362,42 115,29 224,73 328,131l0 490c-105,-80 -211,-138 -315,-176 -104,-38 -212,-57 -323,-57 -244,0 -443,84 -601,251 -157,168 -236,382 -236,645 0,257 77,468 230,630 153,164 348,245 587,245 241,0 436,-82 586,-247 151,-165 226,-380 226,-647l0 -2432 456 0z"/>
   <path id="6" class="fil2" d="M45227 6107l0 -2541 420 0 0 375c78,-148 185,-256 321,-323 136,-66 320,-99 551,-99l119 0 0 440 -69 0c-312,0 -538,74 -677,223 -138,148 -208,390 -208,725l0 1200 -457 0z"/>
   <path id="7" class="fil2" d="M47271 4829c0,246 78,456 237,628 158,172 350,258 574,258 225,0 417,-86 575,-258 158,-172 237,-382 237,-628 0,-245 -79,-454 -236,-624 -158,-171 -349,-257 -576,-257 -224,0 -416,86 -574,257 -159,170 -237,379 -237,624zm-472 4c0,-177 32,-344 98,-503 65,-159 161,-302 284,-430 123,-125 260,-220 413,-284 153,-65 316,-97 488,-97 173,0 337,32 492,97 155,64 293,159 414,284 122,124 216,267 281,428 64,160 97,328 97,505 0,180 -33,350 -97,512 -65,161 -159,304 -281,429 -121,125 -259,219 -414,284 -155,64 -319,97 -492,97 -172,0 -335,-33 -488,-97 -153,-65 -290,-159 -413,-284 -123,-127 -219,-270 -284,-431 -66,-161 -98,-330 -98,-510z"/>
   <path id="8" class="fil2" d="M49801 6107l0 -1386c0,-370 98,-662 295,-879 197,-216 459,-323 787,-323 328,0 590,107 784,323 196,217 293,509 293,879l0 1386 -451 0 0 -1469c0,-201 -58,-364 -175,-490 -117,-126 -267,-189 -452,-189 -184,0 -334,63 -452,189 -119,126 -178,289 -178,490l0 1469 -451 0z"/>
   <path id="9" class="fil2" d="M54963 4984c-63,362 -210,649 -440,860 -229,211 -508,316 -838,316 -112,0 -223,-15 -333,-45 -109,-31 -213,-75 -309,-133 -203,-125 -362,-288 -474,-488 -112,-200 -168,-421 -168,-661 0,-177 33,-344 97,-503 65,-159 159,-302 281,-430 123,-127 262,-222 418,-289 156,-65 321,-98 493,-98 257,0 487,68 690,204 203,136 368,334 493,594l-1665 922 -192 -345 1236 -689c-76,-85 -161,-148 -256,-192 -95,-43 -199,-64 -311,-64 -228,0 -421,85 -578,255 -156,170 -234,381 -234,631 0,248 79,459 236,629 158,171 349,257 575,257 217,0 397,-72 544,-214 146,-143 237,-339 273,-587l462 70z"/>
   <path id="10" class="fil2" d="M55303 5672l1099 0c110,0 197,-21 260,-64 62,-44 94,-104 94,-179 0,-64 -24,-118 -71,-163 -47,-46 -137,-96 -268,-151l-435 -176c-256,-104 -432,-209 -529,-317 -96,-108 -145,-246 -145,-414 0,-207 73,-366 220,-476 147,-111 358,-166 632,-166l941 0 0 425 -1062 0c-86,0 -154,18 -202,56 -49,38 -73,92 -73,161 0,52 21,98 65,140 43,41 115,83 215,125l458 186c286,118 478,231 577,340 100,108 149,246 149,414 0,234 -87,410 -261,524 -175,114 -443,170 -807,170l-857 0 0 -435z"/>
  </g>
 </g>
</svg>
