<?xml version="1.0" encoding="UTF-8"?>
<!DOCTYPE svg PUBLIC "-//W3C//DTD SVG 1.1//EN" "http://www.w3.org/Graphics/SVG/1.1/DTD/svg11.dtd">
<!-- Creator: CorelDRAW X7 -->
<svg xmlns="http://www.w3.org/2000/svg" xml:space="preserve" width="300" height="300" version="1.1" style="shape-rendering:geometricPrecision; text-rendering:geometricPrecision; image-rendering:optimizeQuality; fill-rule:evenodd; clip-rule:evenodd"
viewBox="0 0 28000 5024"
 xmlns:xlink="http://www.w3.org/1999/xlink">
 <defs>
  <style type="text/css">
   <![CDATA[
    .fil1 {fill:#BDCC3D}
    .fil0 {fill:#F24D16}
    .fil2 {fill:#EE5623;fill-rule:nonzero}
   ]]>
  </style>
      <clipPath id="id0">
       <path d="M1775 1683c875,53 1569,780 1569,1669 0,923 -749,1672 -1672,1672 -923,0 -1672,-749 -1672,-1672 0,-466 190,-886 497,-1189l0 0 2187 -2163 392 396 -1301 1287zm-776 767l-111 109 -7 -8c-206,204 -334,488 -334,801 0,621 503,1125 1125,1125 622,0 1125,-504 1125,-1125 0,-622 -503,-1126 -1125,-1126 -252,0 -485,83 -673,224z"/>
      </clipPath>
      <clipPath id="id1">
       <path d="M5722 2244c581,657 558,1661 -71,2290 -653,653 -1711,653 -2364,0 -653,-653 -653,-1712 0,-2365 329,-329 761,-492 1192,-489l0 0 2101 17 -4 558 -854 -11zm-1091 -6l-156 -1 1 -11c-291,-1 -581,108 -803,330 -439,439 -439,1152 0,1591 440,440 1152,440 1592,0 439,-439 439,-1152 0,-1591 -179,-179 -402,-285 -634,-318z"/>
      </clipPath>
 </defs>
 <g id="Layer_x0020_1">
  <metadata id="CorelCorpID_0Corel-Layer"/>
  <g id="_556850684464">
   <g>
    <path class="fil0" d="M1775 1683c875,53 1569,780 1569,1669 0,923 -749,1672 -1672,1672 -923,0 -1672,-749 -1672,-1672 0,-466 190,-886 497,-1189l0 0 2187 -2163 392 396 -1301 1287zm-776 767l-111 109 -7 -8c-206,204 -334,488 -334,801 0,621 503,1125 1125,1125 622,0 1125,-504 1125,-1125 0,-622 -503,-1126 -1125,-1126 -252,0 -485,83 -673,224z"/>
    <g>
     <g style="clip-path:url(#id0)">
      <image x="0" y="0" width="3344" height="5024" xlink:href="FabFacturers Text_Images\FabFacturers Text_ImgID1.png"/>
     </g>
    </g>
    <path class="fil1" d="M5722 2244c581,657 558,1661 -71,2290 -653,653 -1711,653 -2364,0 -653,-653 -653,-1712 0,-2365 329,-329 761,-492 1192,-489l0 0 2101 17 -4 558 -854 -11zm-1091 -6l-156 -1 1 -11c-291,-1 -581,108 -803,330 -439,439 -439,1152 0,1591 440,440 1152,440 1592,0 439,-439 439,-1152 0,-1591 -179,-179 -402,-285 -634,-318z"/>
    <g>
     <g style="clip-path:url(#id1)">
      <image x="2797" y="1680" width="3783" height="3344" xlink:href="FabFacturers Text_Images\FabFacturers Text_ImgID2.png"/>
     </g>
    </g>
   </g>
   <path class="fil2" d="M6961 4682l0 -1826c0,-328 81,-572 245,-732 163,-160 412,-241 745,-241l399 0 0 345 -463 0c-179,0 -317,49 -413,147 -97,99 -145,240 -145,425l0 313 1021 0 0 344 -1021 0 0 1225 -368 0z"/>
   <path id="1" class="fil2" d="M10090 4682l0 -955c0,-201 -57,-364 -170,-488 -114,-124 -261,-187 -443,-187 -180,0 -327,62 -443,185 -115,123 -173,282 -173,476 0,198 59,360 178,487 119,126 269,190 454,190 83,0 164,-15 243,-44 79,-28 158,-72 238,-133l0 369c-78,45 -161,78 -247,100 -87,21 -178,32 -273,32 -91,0 -182,-14 -272,-42 -89,-28 -171,-68 -244,-118 -138,-96 -243,-215 -316,-358 -73,-143 -110,-301 -110,-476 0,-287 91,-524 272,-711 181,-187 410,-281 689,-281 184,0 352,46 504,139 152,93 270,220 352,382 38,73 64,153 80,240 17,87 25,216 25,388l0 805 -344 0z"/>
   <path id="2" class="fil2" d="M10842 1883l345 0 0 1836c0,201 56,364 170,488 113,125 261,187 442,187 184,0 334,-62 449,-187 114,-124 172,-288 172,-492 0,-194 -59,-352 -177,-475 -118,-122 -270,-184 -455,-184 -84,0 -166,14 -246,43 -82,29 -161,74 -239,134l0 -370c78,-44 161,-77 247,-99 86,-21 177,-32 273,-32 91,0 181,14 271,42 90,28 172,68 244,118 140,97 246,217 320,359 73,142 110,299 110,469 0,290 -91,528 -272,716 -182,188 -411,282 -689,282 -185,0 -354,-47 -508,-140 -153,-94 -270,-222 -351,-385 -38,-72 -65,-150 -81,-236 -17,-87 -25,-216 -25,-388l0 -1686z"/>
   <path id="3" class="fil2" d="M13116 4682l0 -1826c0,-328 82,-572 245,-732 163,-160 412,-241 746,-241l399 0 0 345 -464 0c-178,0 -316,49 -413,147 -96,99 -144,240 -144,425l0 313 1021 0 0 344 -1021 0 0 1225 -369 0z"/>
   <path id="4" class="fil2" d="M16245 4682l0 -955c0,-201 -57,-364 -170,-488 -114,-124 -261,-187 -443,-187 -180,0 -327,62 -443,185 -115,123 -173,282 -173,476 0,198 59,360 178,487 119,126 270,190 454,190 83,0 165,-15 243,-44 79,-28 159,-72 238,-133l0 369c-78,45 -161,78 -247,100 -87,21 -177,32 -273,32 -91,0 -181,-14 -271,-42 -90,-28 -171,-68 -245,-118 -138,-96 -243,-215 -316,-358 -73,-143 -109,-301 -109,-476 0,-287 90,-524 271,-711 181,-187 411,-281 689,-281 184,0 352,46 504,139 152,93 270,220 352,382 38,73 65,153 81,240 16,87 24,216 24,388l0 805 -344 0z"/>
   <path id="5" class="fil2" d="M18211 3093l-149 0c-241,0 -434,57 -577,172 -144,116 -215,269 -215,461 0,191 72,343 216,459 144,115 336,173 576,173l149 0 0 324 -172 0c-343,0 -616,-88 -820,-263 -203,-175 -305,-408 -305,-699 0,-156 36,-303 109,-438 73,-135 176,-250 310,-342 94,-62 194,-108 299,-135 106,-27 241,-41 407,-41l172 0 0 329z"/>
   <path id="6" class="fil2" d="M18542 2256l345 0 0 508 580 0 0 325 -580 0 0 821c0,153 37,266 112,337 75,71 195,107 359,107l109 0 0 328 -113 0c-271,0 -475,-60 -610,-178 -134,-118 -202,-297 -202,-535l0 -1713z"/>
   <path id="7" class="fil2" d="M21429 2764l0 1046c0,279 -74,500 -222,664 -148,163 -346,244 -595,244 -247,0 -445,-81 -592,-244 -147,-164 -221,-385 -221,-664l0 -1046 341 0 0 1109c0,152 44,274 134,370 89,95 203,143 341,143 140,0 253,-48 341,-143 88,-96 132,-218 132,-370l0 -1109 341 0z"/>
   <path id="8" class="fil2" d="M21874 4682l0 -1918 317 0 0 283c58,-112 139,-193 242,-243 103,-50 242,-76 416,-76l90 0 0 332 -53 0c-236,0 -406,57 -510,169 -105,112 -158,295 -158,547l0 906 -344 0z"/>
   <path id="9" class="fil2" d="M24993 3834c-48,273 -159,490 -332,649 -173,160 -384,239 -633,239 -84,0 -168,-11 -251,-34 -82,-23 -160,-57 -233,-101 -154,-94 -273,-217 -358,-368 -84,-151 -126,-318 -126,-499 0,-133 24,-259 73,-379 49,-120 119,-228 211,-325 93,-96 199,-168 316,-218 118,-49 242,-74 372,-74 195,0 368,52 521,154 153,102 277,252 372,448l-1256 696 -145 -260 933 -520c-58,-64 -122,-112 -194,-145 -72,-33 -150,-49 -235,-49 -172,0 -317,65 -435,193 -118,128 -177,287 -177,476 0,188 59,346 178,475 119,129 263,194 434,194 163,0 299,-54 410,-162 110,-107 179,-255 206,-443l349 53z"/>
   <path id="10" class="fil2" d="M25341 4682l0 -1918 317 0 0 283c59,-112 140,-193 243,-243 102,-50 241,-76 415,-76l90 0 0 332 -52 0c-236,0 -406,57 -511,169 -105,112 -157,295 -157,547l0 906 -345 0z"/>
   <path id="11" class="fil2" d="M26547 4354l830 0c83,0 148,-16 196,-49 47,-33 71,-78 71,-135 0,-49 -18,-89 -54,-123 -35,-34 -103,-72 -202,-114l-328 -133c-193,-78 -326,-158 -399,-239 -73,-81 -110,-186 -110,-312 0,-156 56,-277 166,-360 111,-83 271,-125 477,-125l710 0 0 321 -801 0c-65,0 -116,14 -153,42 -37,29 -55,70 -55,122 0,39 16,74 49,105 33,31 87,63 162,94l347 141c215,89 360,174 435,256 75,82 112,186 112,313 0,177 -66,309 -197,395 -132,86 -334,129 -609,129l-647 0 0 -328z"/>
  </g>
 </g>
</svg>
