<?xml version="1.0" encoding="UTF-8"?>
<!DOCTYPE svg PUBLIC "-//W3C//DTD SVG 1.1//EN" "http://www.w3.org/Graphics/SVG/1.1/DTD/svg11.dtd">
<!-- Creator: CorelDRAW X7 -->
<svg xmlns="http://www.w3.org/2000/svg" xml:space="preserve" width="300" height="300" version="1.1" style="shape-rendering:geometricPrecision; text-rendering:geometricPrecision; image-rendering:optimizeQuality; fill-rule:evenodd; clip-rule:evenodd"
viewBox="0 0 28000 10572"
 xmlns:xlink="http://www.w3.org/1999/xlink">
 <defs>
  <style type="text/css">
   <![CDATA[
    .str0 {stroke:#00A0E3;stroke-width:499.997}
    .fil1 {fill:#FEFEFE}
    .fil0 {fill:#EF7F1A}
    .fil2 {fill:#00A0E3}
    .fil3 {fill:#EE5623;fill-rule:nonzero}
   ]]>
  </style>
 </defs>
 <g id="Layer_x0020_1">
  <metadata id="CorelCorpID_0Corel-Layer"/>
  <g id="_556760571552">
   <path class="fil0" d="M9382 3500c0,0 2190,-2567 1571,-3208 -1336,-1384 -4785,2536 -5797,3739l1416 -1305c1926,-1698 5686,-3288 2810,774z"/>
   <polygon class="fil1 str0" points="2056,2516 9047,3509 9047,8066 2012,8556 "/>
   <path class="fil0" d="M1749 7261c0,0 -2323,2389 -1615,3164 776,848 5000,-2215 5000,-2810 0,0 -3072,2466 -4004,2035 -932,-430 177,-1570 619,-2389z"/>
   <g>
    <path class="fil0" d="M5455 4009l0 487c-888,270 -1045,1518 -355,2040 741,563 2195,65 1959,-1202 -54,-292 -144,-393 -387,-595l139 -518c1032,718 772,2148 -136,2746 -220,144 -585,279 -1175,265 -2128,-51 -2015,-3100 -45,-3223z"/>
    <polygon class="fil0" points="5842,3721 5842,5779 6506,5779 6506,3688 "/>
   </g>
   <path class="fil2" d="M5002 9285c0,0 -974,133 -421,354 553,222 2434,-66 2434,-66 0,0 841,-177 -243,-531 0,0 681,-181 1063,9 99,49 179,124 220,234 155,414 -1142,695 -2378,743 -762,29 -1501,-31 -1864,-202 -866,-409 482,-678 1189,-541z"/>
  </g>
  <path class="fil3" d="M10123 7514l0 -2811 370 0 0 1166 330 0c142,0 254,-32 335,-96 81,-64 166,-198 255,-402l294 -668 403 0 -358 817c-59,135 -116,233 -171,296 -54,63 -121,110 -200,141 197,33 345,113 446,241 100,127 150,299 150,514l0 802 -374 0 0 -656c0,-228 -42,-391 -127,-489 -86,-97 -226,-146 -420,-146l-563 0 0 1291 -370 0z"/>
  <path id="1" class="fil3" d="M14290 6662c-48,275 -159,493 -333,652 -174,160 -386,240 -636,240 -85,0 -169,-11 -252,-34 -83,-23 -161,-57 -234,-101 -154,-95 -274,-218 -360,-370 -85,-152 -127,-319 -127,-501 0,-134 25,-260 74,-381 49,-121 120,-229 212,-326 93,-96 199,-169 317,-219 119,-50 244,-74 374,-74 195,0 370,51 523,155 154,102 279,252 374,449l-1262 699 -145 -261 937 -522c-58,-65 -123,-113 -195,-146 -72,-33 -151,-49 -236,-49 -173,0 -319,65 -437,194 -119,129 -178,288 -178,478 0,188 60,348 179,477 119,129 264,194 436,194 164,0 300,-54 412,-162 110,-108 179,-256 207,-445l350 53z"/>
  <path id="2" class="fil3" d="M16253 5588l0 1051c0,246 -54,443 -161,592 -107,148 -270,250 -487,303l0 837 -346 0 0 -837c-217,-53 -378,-154 -484,-302 -106,-148 -159,-346 -159,-593l0 -1051 342 0 0 1114c0,152 45,275 135,371 89,96 203,143 343,143 140,0 254,-47 342,-143 89,-96 133,-219 133,-371l0 -1114 342 0z"/>
  <path id="3" class="fil3" d="M18348 5037c-16,-1 -35,-3 -53,-3 -18,-1 -46,-1 -82,-1 -381,0 -682,97 -902,290 -220,193 -330,454 -330,784 0,329 110,591 330,784 220,193 521,289 902,289 36,0 64,0 83,0 19,-1 37,-2 52,-4l0 338 -108 0c-208,0 -392,-16 -550,-49 -159,-33 -291,-82 -399,-147 -225,-138 -397,-309 -515,-516 -118,-205 -177,-437 -177,-695 0,-257 59,-488 177,-693 118,-205 290,-376 515,-512 108,-66 240,-116 399,-148 158,-34 342,-51 550,-51l108 0 0 334z"/>
  <path id="4" class="fil3" d="M18947 6545c0,187 60,346 180,476 120,130 265,195 436,195 170,0 315,-65 435,-195 120,-130 180,-289 180,-476 0,-186 -60,-344 -179,-473 -119,-130 -265,-195 -436,-195 -171,0 -316,65 -436,195 -120,129 -180,287 -180,473zm-357 3c0,-134 24,-260 74,-381 50,-121 122,-229 216,-326 93,-95 197,-167 313,-216 116,-48 239,-73 370,-73 130,0 255,25 372,73 118,49 223,121 315,216 92,94 163,202 212,324 49,122 74,249 74,383 0,136 -25,266 -74,388 -49,122 -120,231 -212,325 -92,95 -197,167 -315,215 -117,49 -242,74 -372,74 -131,0 -254,-25 -370,-74 -116,-48 -220,-120 -313,-215 -94,-95 -166,-204 -216,-326 -50,-122 -74,-251 -74,-387z"/>
  <path id="5" class="fil3" d="M22719 4703l0 1693c0,173 -8,303 -25,390 -16,86 -43,165 -81,237 -81,165 -198,295 -352,388 -152,93 -322,139 -507,139 -281,0 -513,-94 -695,-284 -183,-189 -274,-428 -274,-718 0,-130 22,-254 67,-371 44,-118 109,-224 194,-317 87,-96 190,-172 311,-225 120,-52 246,-79 377,-79 96,0 187,10 274,32 87,21 170,55 249,99l0 371c-80,-60 -160,-104 -239,-133 -79,-29 -161,-44 -244,-44 -185,0 -337,64 -456,191 -119,127 -179,290 -179,489 0,195 58,355 174,478 116,124 264,186 445,186 182,0 331,-63 445,-188 113,-125 170,-288 170,-490l0 -1844 346 0z"/>
  <path id="6" class="fil3" d="M24979 6662c-48,275 -159,493 -334,652 -173,160 -385,240 -635,240 -85,0 -169,-11 -252,-34 -83,-23 -161,-57 -235,-101 -154,-95 -274,-218 -359,-370 -85,-152 -127,-319 -127,-501 0,-134 25,-260 74,-381 49,-121 120,-229 212,-326 93,-96 199,-169 317,-219 119,-50 243,-74 374,-74 195,0 369,51 523,155 154,102 279,252 374,449l-1262 699 -146 -261 937 -522c-57,-65 -122,-113 -194,-146 -72,-33 -151,-49 -236,-49 -173,0 -319,65 -438,194 -118,129 -177,288 -177,478 0,188 59,348 179,477 119,129 264,194 435,194 165,0 301,-54 413,-162 110,-108 179,-256 207,-445l350 53z"/>
  <path id="7" class="fil3" d="M25329 7514l0 -1926 318 0 0 284c59,-113 140,-194 244,-245 103,-50 242,-75 417,-75l91 0 0 333 -53 0c-237,0 -408,57 -513,169 -105,113 -158,297 -158,551l0 909 -346 0z"/>
  <path id="8" class="fil3" d="M26540 7184l833 0c84,0 149,-16 197,-49 48,-32 72,-78 72,-135 0,-49 -18,-90 -55,-124 -35,-34 -103,-72 -203,-114l-329 -133c-194,-79 -327,-159 -401,-241 -73,-82 -110,-186 -110,-314 0,-156 56,-277 167,-361 111,-84 271,-125 479,-125l713 0 0 322 -805 0c-65,0 -116,14 -153,42 -37,29 -55,70 -55,122 0,40 16,75 49,106 33,32 87,63 163,95l347 141c217,89 362,175 437,258 76,82 114,187 114,314 0,178 -67,310 -199,397 -132,86 -336,129 -611,129l-650 0 0 -330z"/>
 </g>
</svg>
