<?xml version="1.0" encoding="UTF-8"?>
<!DOCTYPE svg PUBLIC "-//W3C//DTD SVG 1.1//EN" "http://www.w3.org/Graphics/SVG/1.1/DTD/svg11.dtd">
<!-- Creator: CorelDRAW X7 -->
<svg xmlns="http://www.w3.org/2000/svg" xml:space="preserve" width="300" height="300" version="1.1" style="shape-rendering:geometricPrecision; text-rendering:geometricPrecision; image-rendering:optimizeQuality; fill-rule:evenodd; clip-rule:evenodd"
viewBox="0 0 23995 8103"
 xmlns:xlink="http://www.w3.org/1999/xlink">
 <defs>
  <style type="text/css">
   <![CDATA[
    .fil0 {fill:#707173}
    .fil1 {fill:#ED613D}
    .fil2 {fill:#EE5623;fill-rule:nonzero}
   ]]>
  </style>
 </defs>
 <g id="Layer_x0020_1">
  <metadata id="CorelCorpID_0Corel-Layer"/>
  <g id="_556933761936">
   <path class="fil0" d="M6249 4623c617,-135 1105,310 1197,809 107,574 -314,1071 -784,1164 -1306,256 -1712,-1689 -413,-1973zm-1637 1235l9 -545c297,-204 484,-8 427,-519l198 118 -128 366c-177,14 -206,-32 -342,66 -56,111 -66,346 -6,445 89,116 136,72 329,89l106 355c-31,29 -48,46 -76,67 -79,60 -39,34 -112,71 65,-382 -90,-414 -405,-513zm3473 -810c-114,-339 -166,-210 -455,-176 -74,-87 -135,-161 -211,-257 60,-250 266,-286 -69,-485 -306,-182 -309,-55 -454,164l-355 -92c-2,-2 10,-545 -590,-228 -41,139 -7,203 -8,354 -135,46 -187,106 -312,146 -220,-132 -262,-273 -482,9l-139 184c-2,-5 -10,13 -16,18 -46,-162 -59,-261 -220,-312 -117,84 -278,321 -379,434 -125,139 -253,296 -383,442 -264,295 29,648 -466,1184 -490,532 -755,249 -1052,596 -118,137 -702,765 -752,937 149,61 430,164 614,131 246,-43 174,-265 277,-489l523 -75c225,309 172,536 666,256 507,-289 221,-328 120,-699 30,-42 311,-370 356,-406 383,105 497,272 661,-207l152 211c236,307 314,89 488,12 108,52 164,112 294,159 -4,173 -87,325 72,403 82,40 294,65 396,41 122,-120 83,-129 127,-311l366 -49c68,136 65,140 160,247 196,7 352,-110 455,-189 23,-236 -29,-183 -88,-356 29,-49 154,-190 217,-256 156,8 143,70 338,48 93,-94 192,-289 163,-487 -74,-50 -159,-89 -274,-132l7 -370c260,-86 354,-102 253,-400z"/>
   <path class="fil1" d="M2083 6770c-133,-53 -193,-89 -306,-173 -1164,-855 -253,-2752 1162,-2338 539,157 739,505 922,951 100,-78 635,-687 682,-815l-213 53c-62,-70 -109,-141 -163,-211 -60,-78 -114,-113 -163,-194 96,-356 410,-404 -103,-713 -508,-306 -429,-24 -682,235l-494 -101c-182,-189 111,-570 -542,-470 -540,82 -384,166 -370,605 -45,36 -424,243 -466,261 -331,-162 -311,-465 -729,-6 -395,433 -25,456 130,698l-194 497c-447,33 -552,-79 -554,454 -2,521 125,387 547,450l167 502c-290,321 -486,264 -126,728 338,436 393,122 695,-14 91,36 384,216 455,270l-24 263c141,-66 79,-52 220,-216 127,-146 449,-491 509,-618 -84,-38 -253,-56 -360,-98z"/>
   <path class="fil1" d="M2311 1822c-64,-590 384,-1065 888,-1119 572,-63 1063,379 1116,873 149,1386 -1865,1532 -2004,246zm1978 -1111c46,-169 106,-132 94,-349 -73,-61 -263,-199 -349,-212 -160,-22 -203,134 -275,234 -76,-3 -317,-33 -358,-85 -26,-85 -57,-228 -70,-284 -195,-31 -372,-16 -531,66l-2 345 -309 154c-183,-86 -213,-328 -509,35 -304,373 360,252 -30,766 -149,7 -208,-15 -315,60 -49,111 -74,370 6,467 88,97 156,65 318,73l107 349c-67,70 -123,90 -187,190 -20,203 140,380 293,428 191,-17 136,-72 289,-146l290 194c-6,160 -75,311 93,376l308 45c173,-24 161,-150 183,-311l370 -61 145 241c175,13 145,17 273,-49 395,-204 166,-270 118,-494l216 -235c127,-2 205,52 345,35 325,-437 137,-531 -120,-623l17 -368c206,-94 283,-71 277,-269 -15,-510 -444,-316 -488,-314 -78,-87 -148,-174 -199,-258z"/>
  </g>
  <path class="fil2" d="M5420 3738l422 -2959c20,-133 59,-233 118,-301 59,-68 136,-102 234,-102 84,0 156,28 216,84 60,56 107,139 139,247l742 2365 735 -2365c33,-108 81,-191 141,-247 60,-56 132,-84 216,-84 97,0 175,34 234,102 59,68 98,168 118,301l422 2959 -422 0 -380 -2736 -760 2437c-37,118 -80,203 -128,257 -48,53 -107,80 -176,80 -73,0 -132,-26 -180,-77 -47,-51 -90,-138 -129,-260l-760 -2437 -376 2736 -426 0z"/>
  <path id="1" class="fil2" d="M11280 3738l0 -1133c0,-238 -67,-431 -202,-578 -134,-148 -309,-222 -525,-222 -213,0 -388,73 -525,219 -137,146 -206,334 -206,565 0,235 70,427 211,577 141,150 320,225 539,225 98,0 195,-17 288,-51 94,-34 188,-87 282,-158l0 438c-92,53 -191,92 -293,118 -103,25 -210,38 -323,38 -108,0 -216,-17 -323,-50 -106,-33 -202,-80 -289,-140 -164,-113 -289,-255 -375,-424 -87,-170 -130,-358 -130,-566 0,-340 107,-621 322,-842 214,-223 487,-334 818,-334 217,0 417,55 597,165 181,110 320,261 417,453 45,87 77,182 96,285 20,103 29,256 29,460l0 955 -408 0z"/>
  <path id="2" class="fil2" d="M13612 1852l-177 0c-286,0 -514,69 -685,205 -170,137 -254,319 -254,547 0,226 85,407 256,544 171,137 399,205 683,205l177 0 0 385 -205 0c-406,0 -729,-104 -972,-312 -241,-208 -362,-484 -362,-829 0,-186 43,-359 130,-520 86,-160 209,-296 368,-405 111,-74 229,-128 354,-161 125,-32 286,-48 482,-48l205 0 0 389z"/>
  <path id="3" class="fil2" d="M14033 3738l0 -3320 409 0 0 1262c94,-89 194,-156 298,-200 105,-43 216,-64 333,-64 283,0 503,93 659,281 156,186 234,450 234,790l0 1251 -408 0 0 -1316c0,-194 -47,-345 -140,-450 -94,-105 -227,-157 -401,-157 -170,0 -308,63 -415,189 -107,128 -160,296 -160,504l0 1230 -409 0z"/>
  <path id="4" class="fil2" d="M16498 3738l0 -2275 409 0 0 2275 -409 0zm-43 -2922c0,-68 24,-126 72,-174 48,-48 107,-72 177,-72 69,0 127,24 175,71 47,47 70,106 70,175 0,71 -23,131 -70,180 -48,48 -106,73 -175,73 -68,0 -127,-25 -176,-74 -48,-50 -73,-109 -73,-179z"/>
  <path id="5" class="fil2" d="M17434 3738l0 -1241c0,-331 88,-593 265,-787 176,-193 411,-290 704,-290 294,0 528,97 702,290 175,194 262,456 262,787l0 1241 -403 0 0 -1316c0,-179 -53,-325 -157,-438 -105,-113 -239,-169 -405,-169 -164,0 -299,56 -405,169 -106,113 -159,259 -159,438l0 1316 -404 0z"/>
  <path id="6" class="fil2" d="M19900 3738l0 -2275 408 0 0 2275 -408 0zm-43 -2922c0,-68 24,-126 72,-174 48,-48 107,-72 177,-72 69,0 127,24 175,71 46,47 70,106 70,175 0,71 -24,131 -70,180 -48,48 -106,73 -175,73 -68,0 -127,-25 -176,-74 -48,-50 -73,-109 -73,-179z"/>
  <path id="7" class="fil2" d="M20756 3348l983 0c99,0 177,-19 233,-57 56,-39 85,-93 85,-160 0,-58 -22,-106 -64,-147 -42,-40 -122,-85 -240,-134l-390 -158c-228,-93 -386,-187 -473,-284 -86,-96 -130,-220 -130,-370 0,-186 66,-328 197,-427 132,-99 321,-148 566,-148l842 0 0 380 -950 0c-78,0 -138,17 -181,51 -44,34 -65,82 -65,144 0,46 19,88 57,125 39,37 103,74 193,111l411 167c255,106 427,207 516,304 89,98 133,221 133,371 0,210 -78,367 -234,469 -156,102 -396,153 -722,153l-767 0 0 -390z"/>
  <path id="8" class="fil2" d="M22898 860l408 0 0 603 689 0 0 385 -689 0 0 974c0,182 45,316 133,400 90,84 232,126 426,126l130 0 0 390 -134 0c-322,0 -563,-71 -723,-212 -160,-140 -240,-352 -240,-634l0 -2032z"/>
 </g>
</svg>
