<?xml version="1.0" encoding="iso-8859-1"?>
<!-- Generator: Adobe Illustrator 18.1.1, SVG Export Plug-In . SVG Version: 6.00 Build 0)  -->
<svg version="1.1" id="Capa_1" xmlns="http://www.w3.org/2000/svg" xmlns:xlink="http://www.w3.org/1999/xlink" x="0px" y="0px"
	 viewBox="0 0 612 612" style="enable-background:new 0 0 612 612;" xml:space="preserve">
<g>
	<g id="Processor_2">
		<rect x="32.473" y="51.208" width="99.918" height="19.984"/>
		<rect x="479.608" y="173.608" width="99.918" height="19.984"/>
		<rect x="32.473" y="173.608" width="99.918" height="19.984"/>
		<rect x="479.608" y="418.408" width="99.918" height="19.984"/>
		<rect x="479.608" y="540.808" width="99.918" height="19.984"/>
		<rect x="32.473" y="540.808" width="99.918" height="19.984"/>
		<rect x="32.473" y="418.408" width="99.918" height="19.984"/>
		<rect x="479.608" y="296.008" width="99.918" height="19.984"/>
		<rect x="32.473" y="296.008" width="99.918" height="19.984"/>
		<path d="M410.914,0c-69.943,0-139.886,0-209.829,0c-27.591,0-49.959,22.368-49.959,49.959c0,2.082,0,4.163,0,6.245
			c0,4.163,0,8.327,0,12.49c0,158.204,0,316.408,0,474.612c0,4.163,0,8.327,0,12.49c0,1.04,0,2.082,0,3.122s0,2.082,0,3.122
			c0,27.591,22.368,49.959,49.959,49.959c69.943,0,139.886,0,209.829,0c27.591,0,49.959-22.368,49.959-49.959
			c0-2.082,0-4.163,0-6.245c0-4.163,0-8.327,0-12.49c0-158.204,0-316.408,0-474.612c0-4.163,0-8.327,0-12.49
			c0-2.082,0-4.163,0-6.245C460.873,22.368,438.505,0,410.914,0z M448.384,562.041c0,20.693-16.776,37.469-37.469,37.469
			c-69.943,0-139.886,0-209.829,0c-20.693,0-37.469-16.776-37.469-37.469c0-1.561,0-3.122,0-4.684c0-169.133,0-338.265,0-507.398
			c0-20.693,16.776-37.469,37.469-37.469c69.943,0,139.886,0,209.829,0c20.693,0,37.469,16.776,37.469,37.469
			C448.384,220.653,448.384,391.347,448.384,562.041z"/>
		<path d="M410.914,37.469c-69.943,0-139.886,0-209.829,0c-6.898,0-12.49,5.592-12.49,12.49c0,169.133,0,338.265,0,507.398
			c0,1.561,0,3.122,0,4.684c0,6.898,5.592,12.49,12.49,12.49c69.943,0,139.886,0,209.829,0c6.898,0,12.49-5.592,12.49-12.49
			c0-170.694,0-341.387,0-512.082C423.404,43.061,417.812,37.469,410.914,37.469z"/>
		<rect x="479.608" y="51.208" width="99.918" height="19.984"/>
	</g>
</g>
<g>
</g>
<g>
</g>
<g>
</g>
<g>
</g>
<g>
</g>
<g>
</g>
<g>
</g>
<g>
</g>
<g>
</g>
<g>
</g>
<g>
</g>
<g>
</g>
<g>
</g>
<g>
</g>
<g>
</g>
</svg>
