<?xml version="1.0" encoding="iso-8859-1"?>
<!-- Generator: Adobe Illustrator 19.0.0, SVG Export Plug-In . SVG Version: 6.00 Build 0)  -->
<svg version="1.1" id="Capa_1" xmlns="http://www.w3.org/2000/svg" xmlns:xlink="http://www.w3.org/1999/xlink" x="0px" y="0px"
	 viewBox="0 0 502.705 502.705" style="enable-background:new 0 0 502.705 502.705;" xml:space="preserve">
<g>
	<g>
		<g>
			<path d="M502.645,431.305L351.8,280.396l-19.565,11.885l-29.509-28.603c46.463-65.187,40.704-156.302-17.753-214.78
				c-65.273-65.208-170.884-65.187-236.049,0c-65.165,65.165-65.165,170.797,0,236.028c26.597,26.575,59.988,42.149,94.566,47.046
				l-0.216,87.62h0.216c0.259,13.827,11.368,24.936,25.173,24.893c13.87,0.022,24.979-11.131,25.216-24.871l0.259,0.022
				l0.216-88.203c24.612-4.077,48.405-13.719,69.523-28.797l27.718,26.661l-11.195,22.541l150.931,150.866
				c0,0,32.809,0.431,52.59-22.196C503.659,457.902,502.645,431.305,502.645,431.305z M168.6,431.24
				c-6.126,0-11.174-4.961-11.174-11.195c0.022-6.169,4.94-11.195,11.131-11.195c6.191,0,11.238,4.983,11.238,11.217
				C179.817,426.258,174.791,431.219,168.6,431.24z M194.377,292.195l0.216-80.394l48.923-49.138L206.78,99.158l-10.656-0.022
				l0.022,53.28h-52.029V99.18l-10.656-0.043l-36.649,63.526l47.499,47.801h-0.561l-0.237,82.702
				c-24.72-4.53-48.405-16.264-67.56-35.398c-50.195-50.217-50.152-131.56,0.065-181.777C126.041,25.796,207.6,25.753,257.86,75.97
				c50.066,50.238,50.109,131.56-0.108,181.82C239.697,275.823,217.587,287.104,194.377,292.195z"/>
		</g>
	</g>
	<g>
	</g>
	<g>
	</g>
	<g>
	</g>
	<g>
	</g>
	<g>
	</g>
	<g>
	</g>
	<g>
	</g>
	<g>
	</g>
	<g>
	</g>
	<g>
	</g>
	<g>
	</g>
	<g>
	</g>
	<g>
	</g>
	<g>
	</g>
	<g>
	</g>
</g>
<g>
</g>
<g>
</g>
<g>
</g>
<g>
</g>
<g>
</g>
<g>
</g>
<g>
</g>
<g>
</g>
<g>
</g>
<g>
</g>
<g>
</g>
<g>
</g>
<g>
</g>
<g>
</g>
<g>
</g>
</svg>
