<?xml version='1.0' encoding='iso-8859-1'?>
<svg version="1.1" xmlns="http://www.w3.org/2000/svg" viewBox="0 0 420.513 420.513" xmlns:xlink="http://www.w3.org/1999/xlink" enable-background="new 0 0 420.513 420.513">
  <path d="m292.103,74.544c3.329-4.749 9.88-5.899 14.624-2.573 46.305,32.449 73.211,85.526 71.973,141.981-1.24,56.603-30.564,108.522-78.442,138.886-1.743,1.106-3.69,1.634-5.613,1.634-3.477,0-6.877-1.725-8.877-4.878-3.105-4.896-1.653-11.385 3.244-14.49 41.927-26.59 67.607-72.053 68.694-121.612 1.083-49.43-22.479-95.906-63.029-124.323-4.75-3.329-5.903-9.876-2.574-14.625zm-158.43,262.237c-45.197-27.317-72.556-77.044-71.4-129.772 1.022-46.56 24.357-90.447 62.421-117.401 4.733-3.352 5.853-9.904 2.501-14.638-3.352-4.731-9.906-5.853-14.637-2.501-21.062,14.914-38.686,34.756-50.969,57.379-12.7,23.393-19.724,49.915-20.312,76.7-1.321,60.223 29.921,117.012 81.533,148.206 1.699,1.026 3.571,1.516 5.421,1.516 3.555,0 7.023-1.807 8.996-5.07 3.001-4.964 1.409-11.419-3.554-14.419zm-111.439-148.118c8.802-76.636 62.472-139.68 136.729-160.611 4.854-1.368 8.05-5.994 7.612-11.019-0.438-5.023-4.386-9.027-9.404-9.534l-51.703-5.23c-5.758-0.594-10.919,3.619-11.503,9.39-0.583,5.77 3.621,10.92 9.39,11.503l9.123,.923c-23.129,12.149-43.888,28.575-61.267,48.633-27.752,32.026-44.986,71.291-49.84,113.549-6.875,59.875 12.334,119.919 52.703,164.735 2.073,2.302 4.934,3.473 7.805,3.473 2.504,0 5.017-0.891 7.024-2.698 4.309-3.881 4.655-10.521 0.774-14.829-36.34-40.343-53.632-94.391-47.443-148.285zm355.724-105.19c-3.5-4.625-10.083-5.538-14.709-2.041-4.625,3.498-5.539,10.084-2.041,14.709 29.468,38.962 42.626,87.157 37.05,135.705-8.801,76.64-62.47,139.686-136.728,160.616-4.854,1.368-8.05,5.994-7.611,11.019 0.438,5.023 4.386,9.027 9.403,9.534l51.702,5.23c0.359,0.037 0.716,0.055 1.069,0.055 5.323,0 9.887-4.034 10.434-9.444 0.584-5.77-3.62-10.92-9.39-11.503l-9.122-.923c23.129-12.151 43.888-28.576 61.268-48.636 27.751-32.027 44.984-71.293 49.838-113.552 6.194-53.936-8.425-107.481-41.163-150.769zm-50.905,104.659l-108.592,214.867c-1.786,3.535-5.41,5.764-9.371,5.764h-32.034c-3.427,0-6.639-1.673-8.604-4.481-1.964-2.809-2.435-6.399-1.259-9.619l53.674-147.049h-118.054c-3.637,0-7.015-1.882-8.928-4.975-1.914-3.092-2.091-6.954-0.469-10.209l107.097-214.867c1.776-3.564 5.416-5.816 9.397-5.816h33.635c3.442,0 6.665,1.687 8.627,4.515s2.413,6.438 1.208,9.662l-54.94,146.972h119.242c3.647,0 7.033,1.893 8.943,4.999 1.911,3.106 2.073,6.982 0.428,10.237zm-26.443,5.764h-117.305c-3.442,0-6.665-1.687-8.627-4.515s-2.414-6.438-1.208-9.662l54.942-146.973h-12.002l-96.63,193.867h116.098c3.428,0 6.64,1.673 8.604,4.481 1.965,2.809 2.436,6.399 1.26,9.619l-53.674,147.049h10.565l97.977-193.866z"/>
</svg>
