<?xml version="1.0" encoding="iso-8859-1"?>
<!-- Generator: Adobe Illustrator 18.0.0, SVG Export Plug-In . SVG Version: 6.00 Build 0)  -->
<!DOCTYPE svg PUBLIC "-//W3C//DTD SVG 1.1//EN" "http://www.w3.org/Graphics/SVG/1.1/DTD/svg11.dtd">
<svg version="1.1" id="Capa_1" xmlns="http://www.w3.org/2000/svg" xmlns:xlink="http://www.w3.org/1999/xlink" x="0px" y="0px"
	 viewBox="0 0 238.458 238.458" style="enable-background:new 0 0 238.458 238.458;" xml:space="preserve">
<path d="M194.644,49.229h-20.856c-13.002,0-23.849,16.223-27.648,22.677H92.32c-3.8-6.454-14.646-22.677-27.649-22.677H43.813
	c-15.49,0-39.857,21.555-43.527,80.925c-0.262,2.796-3.751,45.199,23.016,56.646c1.007,0.488,5.374,2.43,11.295,2.43
	c10.709,0,25.096-6.063,32.82-34.944c1.779-6.651,4.585-10.037,10.216-11.871c4.74,7.14,12.628,11.442,21.341,11.442
	c7.979,0,15.438-3.762,20.256-9.924c4.816,6.162,12.276,9.924,20.256,9.924c8.714,0,16.6-4.303,21.34-11.442
	c5.632,1.834,8.439,5.22,10.217,11.871c7.724,28.882,22.11,34.944,32.82,34.944c0.001,0,0,0,0.001,0
	c5.923,0,10.285-1.939,11.296-2.43c26.768-11.448,23.274-53.861,23.014-56.646C234.501,70.784,210.134,49.229,194.644,49.229z
	 M42.674,99.246h-9.027l-4.956-6.199l4.956-6.199h9.027V99.246z M56.632,109.831l-6.2,4.957l-6.201-4.957v-9.026h12.401V109.831z
	 M56.632,85.289H44.231v-9.027l6.201-4.956l6.2,4.956V85.289z M67.215,99.246H58.19V86.848h9.025l4.959,6.199L67.215,99.246z
	 M99.04,138.753c-4.533,0-8.208-3.676-8.208-8.209c0-4.533,3.675-8.208,8.208-8.208c4.533,0,8.209,3.675,8.209,8.208
	C107.249,135.077,103.574,138.753,99.04,138.753z M109.861,101.866h-9.438c-1.988,0-3.6-1.611-3.6-3.6
	c0-1.987,1.611-3.598,3.6-3.598h9.438c1.988,0,3.601,1.61,3.601,3.598C113.461,100.254,111.849,101.866,109.861,101.866z
	 M124.996,98.266c0-1.987,1.612-3.598,3.601-3.598h9.438c1.988,0,3.6,1.61,3.6,3.598c0,1.988-1.611,3.6-3.6,3.6h-9.438
	C126.609,101.866,124.996,100.254,124.996,98.266z M139.414,138.753c-4.53,0-8.205-3.676-8.205-8.209
	c0-4.533,3.675-8.208,8.205-8.208c4.536,0,8.211,3.675,8.211,8.208C147.625,135.077,143.951,138.753,139.414,138.753z
	 M190.96,76.773c3.978,0,7.2,3.226,7.2,7.201c0,3.979-3.223,7.201-7.2,7.201c-3.977,0-7.201-3.223-7.201-7.201
	C183.759,79.998,186.983,76.773,190.96,76.773z M177.506,104.63c-3.976,0-7.202-3.224-7.202-7.2c0-3.978,3.226-7.201,7.202-7.201
	c3.979,0,7.201,3.224,7.201,7.201C184.707,101.407,181.485,104.63,177.506,104.63z M190.96,118.085
	c-3.977,0-7.201-3.226-7.201-7.202c0-3.978,3.224-7.201,7.201-7.201c3.978,0,7.2,3.224,7.2,7.201
	C198.16,114.86,194.938,118.085,190.96,118.085z M204.414,104.63c-3.977,0-7.201-3.224-7.201-7.2c0-3.978,3.224-7.201,7.201-7.201
	c3.977,0,7.203,3.224,7.203,7.201C211.618,101.407,208.391,104.63,204.414,104.63z"/>
<g>
</g>
<g>
</g>
<g>
</g>
<g>
</g>
<g>
</g>
<g>
</g>
<g>
</g>
<g>
</g>
<g>
</g>
<g>
</g>
<g>
</g>
<g>
</g>
<g>
</g>
<g>
</g>
<g>
</g>
</svg>
