<?xml version="1.0" encoding="UTF-8"?>
<!DOCTYPE svg PUBLIC "-//W3C//DTD SVG 1.1//EN" "http://www.w3.org/Graphics/SVG/1.1/DTD/svg11.dtd">
<!-- Creator: CorelDRAW X7 -->
<svg xmlns="http://www.w3.org/2000/svg" xml:space="preserve" width="100" height="100" version="1.1" style="shape-rendering:geometricPrecision; text-rendering:geometricPrecision; image-rendering:optimizeQuality; fill-rule:evenodd; clip-rule:evenodd"
viewBox="0 0 15099 4081"
 xmlns:xlink="http://www.w3.org/1999/xlink">
 <defs>
  <style type="text/css">
   <![CDATA[
    .str0 {stroke:#EE5623;stroke-width:31.9173}
    .fil5 {fill:none;fill-rule:nonzero}
    .fil1 {fill:#009846}
    .fil2 {fill:#0F7DAE}
    .fil3 {fill:#EE5623}
    .fil4 {fill:#EE5623;fill-rule:nonzero}
    .fil0 {fill:url(#id0)}
   ]]>
  </style>
  <linearGradient id="id0" gradientUnits="userSpaceOnUse" x1="55.6341" y1="3491.54" x2="4516.57" y2="0">
   <stop offset="0" style="stop-opacity:1; stop-color:#009846"/>
   <stop offset="1" style="stop-opacity:1; stop-color:#FFED00"/>
  </linearGradient>
 </defs>
 <g id="Layer_x0020_1">
  <metadata id="CorelCorpID_0Corel-Layer"/>
  <g id="_558064346720">
   <path class="fil0" d="M4 0l3099 2262c0,0 240,172 513,67 31,-12 82,-34 110,-51 65,-40 89,-96 142,-126 61,-35 100,-21 146,29 57,62 141,129 251,154 0,0 168,16 243,19 83,84 -259,316 -415,263 0,0 -218,-74 -441,49 0,0 -83,43 -131,98l-201 284c-29,41 -65,33 -112,19l-2285 -905c-58,-23 -66,-110 -85,-169l2108 938c42,19 56,-31 6,-54l-2297 -1050c0,0 -95,-103 -138,-231l2402 1174c67,33 82,-43 15,-78l-2541 -1312c0,0 -202,-173 -246,-433l2774 1584c108,62 125,-21 40,-72l-2881 -1752c0,0 -101,-486 -76,-707z"/>
   <path class="fil1" d="M3922 3737l-5 -5 -130 -128c-17,-16 -11,-9 1,-26l139 -199c0,0 -103,-85 -18,-210 3,-5 6,-9 9,-13 11,-15 10,-11 29,-11l823 0c51,0 47,-10 23,42 -21,45 -62,121 -128,204 -12,14 -11,13 -28,21l-693 321 -13 6c-7,3 -3,3 -9,-2z"/>
   <path class="fil2" d="M7230 444l-2498 1837c0,0 -162,562 -950,479 -8,-1 -8,2 -14,8l-398 401c-9,9 -13,15 -3,25l281 276c35,39 68,-16 88,-47 7,-10 4,-7 -3,-21 -18,-41 -60,-164 -4,-329 13,-36 8,-29 45,-29l1073 0 1466 -441c0,0 67,-90 83,-166l-1458 489c-90,30 -86,-26 -11,-53l1652 -602c0,0 109,-105 138,-231l-1758 725c-107,44 -98,-41 -22,-76l1904 -865c0,0 212,-191 246,-434l-2154 1147c-106,56 -126,-23 -26,-81l2247 -1305c0,0 91,-316 76,-707z"/>
  </g>
  <g id="_556760234000">
   <path class="fil2" d="M15099 3773l0 -1219c0,-243 -110,-490 -346,-589 -399,-167 -854,119 -854,581l0 752 189 0 0 -758c0,-542 825,-650 825,20l0 1213 186 0z"/>
   <path class="fil2" d="M7852 1443l0 1219c0,242 110,489 347,588 398,167 853,-119 853,-580l0 -753 -189 0 0 759c0,542 -825,650 -825,-20l0 -1213 -186 0z"/>
   <path class="fil2" d="M9919 1917c196,0 374,83 499,214l0 -688 191 0 0 1165c0,381 -309,690 -690,690 -382,0 -691,-309 -691,-690 0,-382 309,-691 691,-691zm0 176c284,0 515,230 515,515 0,284 -231,515 -515,515 -285,0 -515,-231 -515,-515 0,-285 230,-515 515,-515z"/>
   <path class="fil3" d="M12163 2543c-32,-351 -328,-626 -687,-626 -360,0 -655,275 -688,626l177 0c31,-254 248,-450 511,-450 262,0 479,196 511,450l176 0z"/>
   <path class="fil2" d="M11476 3298c196,0 374,-82 499,-214l0 213 191 0 0 -625 -179 0c-32,254 -249,451 -511,451 -263,0 -480,-197 -511,-451l-177 0c33,351 328,626 688,626z"/>
   <path class="fil3" d="M13720 2543c-32,-351 -328,-626 -687,-626 -360,0 -655,275 -688,626l177 0c32,-254 248,-450 511,-450 262,0 479,196 511,450l176 0z"/>
   <path class="fil2" d="M13031 3298c197,0 374,-82 500,-214l0 213 191 0 0 -625 -180 0c-32,254 -248,451 -511,451 -262,0 -479,-197 -511,-451l-176 0c32,351 328,626 687,626z"/>
   <path class="fil2" d="M12369 1726c25,-136 17,-253 -34,-362 -15,-31 -57,-84 -84,-105 -33,-24 -54,-41 -91,-56l-145 -60c-1,0 -2,-1 -3,-1l-89 -40c-52,-22 -105,-48 -150,-81 -19,-14 -31,-28 -45,-45 -19,-20 -34,-46 -38,-74 38,19 73,51 110,71 60,32 176,64 236,84 74,25 163,52 232,93l18 11c20,12 48,27 64,44 74,72 58,54 111,149 21,50 36,144 17,198 25,-1 29,-13 41,-33 59,-126 76,-172 -12,-302 -43,-74 -80,-109 -65,-199 7,-42 67,-112 36,-46 -29,63 24,138 64,185 0,1 1,2 2,2 21,24 43,48 58,76 34,61 40,132 29,201 -10,72 -50,164 -107,215 -48,43 -90,63 -155,75z"/>
   <path class="fil2" d="M12880 1786c-3,-19 -13,-27 -24,-41 -76,-91 -118,-62 -216,-34 11,-24 35,-40 58,-51 152,-71 225,92 274,203 -26,-7 -53,-23 -80,-31 -73,-25 -168,-45 -239,-2l-25 15c-43,29 -89,64 -134,87 -53,28 -142,58 -202,51 -30,-4 -63,-12 -82,-20 -36,-15 -68,-40 -101,-60l-11 -8c-11,-8 3,0 -11,-8 -42,-25 -83,-52 -130,-73 -48,-21 -132,-41 -194,-34 -32,7 -51,11 -82,21l-158 54c-20,7 -41,15 -60,26l82 -65c30,-24 45,-36 82,-51 79,-33 160,-60 248,-53 52,4 115,14 159,33l51 23c156,77 214,169 405,78 2,-1 8,-3 11,-5 41,-18 80,-37 121,-53 7,-2 14,-5 21,-7 146,-47 175,0 237,5z"/>
   <path class="fil3" d="M11790 1270l-7 -22c-5,-23 5,-10 16,6 30,47 65,93 110,128 55,43 81,55 98,59 16,4 24,1 41,9 -3,16 -10,14 -26,12 -114,-18 -198,-73 -232,-192z"/>
   <path class="fil3" d="M11732 1060c-8,-25 0,-20 2,-23 20,40 59,95 100,139 64,67 71,50 137,85 36,20 -172,28 -239,-201z"/>
   <path class="fil3" d="M12071 1634c-8,4 -21,4 -32,2 -13,-1 -24,-3 -36,-8 -42,-17 -73,-59 -92,-100 -5,-10 -7,-17 -9,-28l-9 -33c18,14 42,73 70,101 44,46 95,58 108,66z"/>
   <path class="fil4" d="M9353 3485l0 95 121 0 0 27 -121 0 0 208c0,23 6,39 20,48 13,9 28,15 44,17 4,1 9,1 14,1 4,1 9,1 13,1 1,0 2,0 3,0 1,0 3,0 4,0 2,0 4,0 5,-1 2,0 3,0 4,0 3,0 6,0 8,0 2,-1 4,-1 6,-1l0 27 -72 0c-2,0 -4,0 -6,0 -2,0 -4,0 -6,-1 -17,-2 -33,-11 -48,-25 -15,-15 -22,-36 -22,-66l0 -330 33 0z"/>
   <path id="1" class="fil4" d="M9546 3421l0 202c10,-17 26,-29 46,-38 21,-9 43,-14 66,-14 1,0 2,0 3,0 2,0 3,0 4,0 30,2 58,13 83,33 25,20 38,52 38,95l0 208 -27 0 0 -191c0,-33 -8,-62 -24,-85 -15,-23 -38,-35 -69,-35l-12 0c-39,0 -67,12 -84,35 -16,24 -24,54 -24,90l0 186 -28 0 0 -486 28 0z"/>
   <path id="2" class="fil4" d="M10113 3645c-11,-13 -25,-24 -42,-32 -17,-8 -35,-13 -53,-15 -2,0 -5,-1 -7,-1 -2,0 -5,0 -7,0 0,0 -1,0 -2,0 0,0 -1,0 -1,0 -28,1 -55,10 -80,29 -25,19 -43,48 -54,90 0,1 0,3 0,5 -1,1 -1,3 -1,5 0,2 -1,4 -1,6 0,2 0,4 0,5 0,6 0,13 1,20 1,6 2,13 4,20 6,25 18,49 36,71 18,21 42,34 70,38 1,0 3,0 5,0 2,0 3,1 5,1 5,1 10,1 15,2 5,0 10,0 14,0 43,0 75,-12 95,-36 21,-24 34,-59 41,-103l29 0c0,53 -17,94 -51,122 -34,29 -72,43 -114,43 -5,0 -11,0 -17,-1 -5,0 -11,-1 -17,-2 -18,-3 -36,-9 -53,-18 -18,-9 -35,-21 -50,-36 -1,-1 -2,-3 -4,-5 -1,-1 -2,-3 -3,-5 -9,-15 -18,-32 -25,-51 -8,-20 -12,-40 -12,-61 0,-9 1,-18 3,-28 2,-9 5,-19 8,-28 5,-12 11,-23 19,-35 8,-12 18,-23 31,-33 11,-9 22,-17 34,-22 12,-6 23,-10 35,-13 7,-1 14,-2 20,-3 7,-1 14,-1 20,-1 34,0 65,7 93,23 28,15 47,31 57,49 1,1 1,2 1,3 1,1 1,1 2,2l-235 165 -16 -28 207 -142z"/>
   <path id="3" class="fil4" d="M10844 3645c-11,-13 -25,-24 -42,-32 -17,-8 -35,-13 -53,-15 -3,0 -5,-1 -7,-1 -3,0 -5,0 -7,0 -1,0 -1,0 -2,0 -1,0 -1,0 -2,0 -28,1 -54,10 -79,29 -26,19 -44,48 -54,90 0,1 -1,3 -1,5 0,1 0,3 0,5 -1,2 -1,4 -1,6 -1,2 -1,4 -1,5 0,6 1,13 1,20 1,6 3,13 5,20 6,25 18,49 36,71 18,21 41,34 69,38 2,0 4,0 5,0 2,0 4,1 5,1 6,1 11,1 16,2 4,0 9,0 14,0 43,0 74,-12 95,-36 20,-24 34,-59 41,-103l28 0c0,53 -17,94 -50,122 -34,29 -72,43 -114,43 -6,0 -12,0 -17,-1 -6,0 -11,-1 -17,-2 -18,-3 -36,-9 -54,-18 -18,-9 -34,-21 -50,-36 -1,-1 -2,-3 -3,-5 -1,-1 -3,-3 -4,-5 -9,-15 -17,-32 -25,-51 -7,-20 -11,-40 -11,-61 0,-9 1,-18 3,-28 2,-9 4,-19 8,-28 5,-12 11,-23 19,-35 8,-12 18,-23 30,-33 11,-9 22,-17 34,-22 12,-6 24,-10 36,-13 7,-1 13,-2 20,-3 7,-1 13,-1 20,-1 33,0 64,7 92,23 28,15 48,31 58,49 0,1 1,2 1,3 0,1 1,1 1,2l-235 165 -16 -28 208 -142z"/>
   <path id="4" class="fil4" d="M10993 3580l0 202c0,38 11,67 32,87 22,19 46,29 71,29 2,0 4,0 5,0 2,0 4,0 5,-1 26,-2 49,-14 70,-33 20,-20 31,-47 31,-82l0 -202 27 0 0 207c0,43 -14,75 -41,97 -27,21 -56,32 -89,33 -1,0 -2,0 -3,0 0,0 -1,0 -1,0 -1,0 -1,0 -2,0 0,0 0,0 -1,0 -33,0 -63,-11 -90,-33 -27,-21 -41,-53 -41,-97l0 -207 27 0z"/>
   <path id="5" class="fil4" d="M11337 4065l-27 0 0 -339c0,-8 0,-17 2,-26 1,-9 4,-18 7,-28 9,-24 24,-47 47,-68 23,-21 56,-33 97,-35 52,0 91,16 119,49 27,33 42,69 45,108 1,2 1,5 1,7 0,2 0,4 0,6 0,10 -1,21 -2,35 -1,13 -5,27 -10,41 -7,21 -20,41 -38,60 -18,18 -46,31 -82,37 -2,0 -4,0 -7,0 -2,0 -5,1 -7,1 -3,0 -5,0 -7,0 -3,0 -5,0 -7,0 -4,0 -7,0 -11,0 -4,0 -8,-1 -11,-1 -16,-2 -31,-7 -45,-13 -14,-6 -26,-16 -37,-30l0 -27c3,3 6,6 10,9 4,3 8,7 13,10 7,5 15,10 24,15 9,5 18,9 28,12 4,1 9,3 13,3 4,1 9,1 13,1 0,0 1,0 1,0 1,0 1,0 2,0 0,0 1,0 1,0 0,0 0,0 0,0 2,0 2,0 3,-1 1,0 2,0 2,0 37,-5 67,-20 90,-46 24,-27 35,-60 35,-101l0 -12c0,-7 0,-14 -2,-22 -1,-8 -3,-15 -5,-23 -8,-23 -22,-43 -43,-63 -21,-19 -49,-28 -86,-28 -38,0 -68,12 -90,37 -21,24 -33,55 -36,93l0 339z"/>
   <path id="6" class="fil4" d="M11722 3421l0 202c10,-17 26,-29 47,-38 21,-9 43,-14 66,-14 1,0 2,0 3,0 1,0 2,0 3,0 30,2 58,13 83,33 26,20 38,52 38,95l0 208 -27 0 0 -191c0,-33 -8,-62 -23,-85 -16,-23 -39,-35 -69,-35l-13 0c-39,0 -67,12 -83,35 -17,24 -25,54 -25,90l0 186 -28 0 0 -486 28 0z"/>
   <path id="7" class="fil4" d="M12186 3569c55,0 96,18 123,54 28,37 42,77 42,121 0,42 -15,81 -44,116 -29,34 -72,52 -128,52l-9 1c-47,-2 -84,-20 -111,-56 -26,-35 -40,-74 -40,-116 0,-1 0,-3 0,-5 0,-1 0,-3 0,-4 2,-40 17,-76 44,-110 28,-33 69,-51 123,-53zm-11 317c1,0 1,0 2,0 0,0 1,0 1,0 1,0 1,0 2,0 0,0 0,0 0,0 1,0 2,0 3,1 0,0 1,0 2,0 41,0 74,-14 96,-42 23,-27 35,-58 36,-91 0,-1 0,-2 0,-2 0,-1 0,-2 0,-2l0 -11c0,-2 0,-3 0,-5 0,-1 0,-3 0,-4 -2,-33 -14,-63 -34,-90 -21,-27 -49,-42 -86,-44l-6 0c-45,0 -80,14 -104,43 -24,29 -37,61 -39,95 0,2 0,3 0,4 0,2 0,3 0,5 0,0 0,1 0,1 0,1 0,1 0,1 0,33 11,63 33,91 21,29 53,45 94,50z"/>
   <path id="8" class="fil4" d="M12446 3580l0 59c8,-15 20,-28 35,-37 15,-9 31,-15 47,-18 5,-2 11,-3 16,-4 6,0 11,0 16,0l18 0 0 27 -13 0c-31,0 -59,11 -83,33 -24,21 -36,54 -36,99l0 168 -27 0 0 -327 27 0z"/>
   <path id="9" class="fil4" d="M12666 3580l0 327 -28 0 0 -327 28 0zm5 -95c0,9 -2,14 -6,18 -5,3 -10,5 -15,5 -6,0 -11,-2 -16,-5 -4,-4 -7,-9 -7,-18 0,-8 3,-14 7,-18 5,-4 10,-5 16,-5 5,0 10,1 15,5 4,4 6,10 6,18z"/>
   <path id="10" class="fil4" d="M12973 3574l0 27 -28 0c-55,0 -97,14 -124,43 -27,28 -40,59 -40,93 0,2 0,3 0,4 0,2 0,3 0,5 2,34 16,66 44,95 27,29 64,43 111,43 4,0 8,0 12,-1 4,0 8,-1 13,-1 0,0 1,0 1,0 1,0 1,0 2,0 1,-1 3,-1 5,-1 1,-1 3,-1 4,-1l0 27c-2,0 -4,0 -7,1 -3,0 -6,0 -8,0 -2,0 -3,0 -5,0 -1,0 -2,0 -3,1 -2,0 -4,0 -6,0 -2,0 -3,0 -5,0 -10,0 -20,-1 -31,-2 -12,-1 -23,-3 -34,-6 -30,-7 -57,-22 -81,-45 -25,-23 -38,-60 -39,-112 0,-64 17,-108 52,-132 35,-24 74,-37 116,-39 2,0 4,0 6,0 2,0 5,0 7,0 3,0 6,0 9,0 4,0 7,1 10,1 3,0 6,0 10,0 3,0 6,0 9,0z"/>
   <polygon id="11" class="fil4" points="13427,3415 13427,3907 13400,3907 13400,3415 "/>
   <path id="12" class="fil4" d="M13789 3645c-11,-13 -25,-24 -42,-32 -18,-8 -35,-13 -53,-15 -3,0 -5,-1 -8,-1 -2,0 -4,0 -6,0 -1,0 -1,0 -2,0 -1,0 -1,0 -2,0 -28,1 -54,10 -80,29 -25,19 -43,48 -54,90 0,1 0,3 0,5 0,1 0,3 0,5 -1,2 -1,4 -2,6 0,2 0,4 0,5 0,6 0,13 1,20 1,6 2,13 4,20 7,25 19,49 37,71 18,21 41,34 69,38 2,0 4,0 5,0 2,0 4,1 5,1 5,1 11,1 15,2 5,0 10,0 15,0 42,0 74,-12 95,-36 20,-24 34,-59 41,-103l28 0c0,53 -17,94 -50,122 -34,29 -72,43 -114,43 -6,0 -12,0 -17,-1 -6,0 -12,-1 -17,-2 -18,-3 -36,-9 -54,-18 -18,-9 -34,-21 -50,-36 -1,-1 -2,-3 -3,-5 -2,-1 -3,-3 -4,-5 -9,-15 -17,-32 -25,-51 -7,-20 -11,-40 -11,-61 0,-9 1,-18 3,-28 1,-9 4,-19 8,-28 4,-12 11,-23 19,-35 8,-12 18,-23 30,-33 11,-9 22,-17 34,-22 12,-6 24,-10 36,-13 6,-1 13,-2 20,-3 6,-1 13,-1 20,-1 33,0 64,7 92,23 28,15 47,31 58,49 0,1 1,2 1,3 0,1 0,1 1,2l-235 165 -16 -28 208 -142z"/>
   <path id="13" class="fil4" d="M14163 3842l0 33c-13,11 -28,19 -46,26 -17,6 -35,10 -53,11 -1,0 -2,0 -3,0 -1,0 -2,0 -3,0l-17 1c-44,-5 -77,-20 -99,-48 -21,-27 -35,-57 -40,-90 -2,-6 -2,-12 -3,-19 0,-6 -1,-13 -1,-19 0,-1 0,-2 0,-3 0,-1 1,-2 1,-2 0,-1 0,-1 0,-2 0,0 0,-1 0,-1 0,-2 0,-3 1,-5 0,-1 0,-2 0,-3 4,-42 16,-74 35,-97 20,-22 41,-38 65,-46 8,-3 16,-5 24,-7 9,-1 17,-2 24,-2 52,0 91,11 116,34 25,23 41,49 47,76 2,8 4,15 4,22 1,6 2,13 2,20l0 186 -27 0 0 -181c0,-34 -9,-60 -25,-78 -17,-19 -35,-32 -54,-41 -10,-4 -21,-7 -31,-8 -10,-2 -19,-3 -26,-3 -28,0 -50,7 -67,20 -17,14 -31,29 -41,46 -6,12 -11,23 -14,34 -3,11 -5,19 -5,25 0,1 0,2 0,3 0,2 0,3 0,5 0,0 0,0 0,1 0,0 0,0 0,0 -1,2 -1,3 -1,5 0,1 0,3 0,4 0,53 13,93 40,118 27,25 56,37 88,37 4,0 8,0 12,-1 3,0 7,-1 12,-1 16,-3 31,-9 46,-18 16,-9 28,-19 39,-32z"/>
   <path id="14" class="fil4" d="M14329 4065l-28 0 0 -339c0,-8 1,-17 2,-26 2,-9 4,-18 7,-28 9,-24 25,-47 48,-68 22,-21 55,-33 96,-35 52,0 91,16 119,49 28,33 43,69 45,108 1,2 1,5 1,7 0,2 0,4 0,6 0,10 -1,21 -2,35 -1,13 -4,27 -10,41 -7,21 -20,41 -38,60 -18,18 -46,31 -82,37 -2,0 -4,0 -7,0 -2,0 -4,1 -7,1 -3,0 -5,0 -7,0 -3,0 -5,0 -7,0 -3,0 -7,0 -11,0 -4,0 -8,-1 -11,-1 -16,-2 -31,-7 -45,-13 -14,-6 -26,-16 -36,-30l0 -27c2,3 5,6 9,9 4,3 8,7 13,10 7,5 15,10 24,15 9,5 19,9 28,12 4,1 9,3 13,3 5,1 9,1 13,1 1,0 1,0 2,0 0,0 1,0 1,0 1,0 1,0 1,0 1,0 1,0 1,0 1,0 2,0 2,-1 1,0 2,0 2,0 37,-5 67,-20 90,-46 24,-27 35,-60 35,-101l0 -12c0,-7 0,-14 -2,-22 -1,-8 -3,-15 -5,-23 -8,-23 -22,-43 -43,-63 -20,-19 -49,-28 -86,-28 -38,0 -68,12 -89,37 -22,24 -34,55 -36,93l0 339z"/>
   <path id="15" class="fil5 str0" d="M9353 3485l0 95 121 0 0 27 -121 0 0 208c0,23 6,39 20,48 13,9 28,15 44,17 4,1 9,1 14,1 4,1 9,1 13,1 1,0 2,0 3,0 1,0 3,0 4,0 2,0 4,0 5,-1 2,0 3,0 4,0 3,0 6,0 8,0 2,-1 4,-1 6,-1l0 27 -72 0c-2,0 -4,0 -6,0 -2,0 -4,0 -6,-1 -17,-2 -33,-11 -48,-25 -15,-15 -22,-36 -22,-66l0 -330 33 0z"/>
   <path id="16" class="fil5 str0" d="M9546 3421l0 202c10,-17 26,-29 46,-38 21,-9 43,-14 66,-14 1,0 2,0 3,0 2,0 3,0 4,0 30,2 58,13 83,33 25,20 38,52 38,95l0 208 -27 0 0 -191c0,-33 -8,-62 -24,-85 -15,-23 -38,-35 -69,-35l-12 0c-39,0 -67,12 -84,35 -16,24 -24,54 -24,90l0 186 -28 0 0 -486 28 0z"/>
   <path id="17" class="fil5 str0" d="M10113 3645c-11,-13 -25,-24 -42,-32 -17,-8 -35,-13 -53,-15 -2,0 -5,-1 -7,-1 -2,0 -5,0 -7,0 0,0 -1,0 -2,0 0,0 -1,0 -1,0 -28,1 -55,10 -80,29 -25,19 -43,48 -54,90 0,1 0,3 0,5 -1,1 -1,3 -1,5 0,2 -1,4 -1,6 0,2 0,4 0,5 0,6 0,13 1,20 1,6 2,13 4,20 6,25 18,49 36,71 18,21 42,34 70,38 1,0 3,0 5,0 2,0 3,1 5,1 5,1 10,1 15,2 5,0 10,0 14,0 43,0 75,-12 95,-36 21,-24 34,-59 41,-103l29 0c0,53 -17,94 -51,122 -34,29 -72,43 -114,43 -5,0 -11,0 -17,-1 -5,0 -11,-1 -17,-2 -18,-3 -36,-9 -53,-18 -18,-9 -35,-21 -50,-36 -1,-1 -2,-3 -4,-5 -1,-1 -2,-3 -3,-5 -9,-15 -18,-32 -25,-51 -8,-20 -12,-40 -12,-61 0,-9 1,-18 3,-28 2,-9 5,-19 8,-28 5,-12 11,-23 19,-35 8,-12 18,-23 31,-33 11,-9 22,-17 34,-22 12,-6 23,-10 35,-13 7,-1 14,-2 20,-3 7,-1 14,-1 20,-1 34,0 65,7 93,23 28,15 47,31 57,49 1,1 1,2 1,3 1,1 1,1 2,2l-235 165 -16 -28 207 -142z"/>
   <path id="18" class="fil5 str0" d="M10844 3645c-11,-13 -25,-24 -42,-32 -17,-8 -35,-13 -53,-15 -3,0 -5,-1 -7,-1 -3,0 -5,0 -7,0 -1,0 -1,0 -2,0 -1,0 -1,0 -2,0 -28,1 -54,10 -79,29 -26,19 -44,48 -54,90 0,1 -1,3 -1,5 0,1 0,3 0,5 -1,2 -1,4 -1,6 -1,2 -1,4 -1,5 0,6 1,13 1,20 1,6 3,13 5,20 6,25 18,49 36,71 18,21 41,34 69,38 2,0 4,0 5,0 2,0 4,1 5,1 6,1 11,1 16,2 4,0 9,0 14,0 43,0 74,-12 95,-36 20,-24 34,-59 41,-103l28 0c0,53 -17,94 -50,122 -34,29 -72,43 -114,43 -6,0 -12,0 -17,-1 -6,0 -11,-1 -17,-2 -18,-3 -36,-9 -54,-18 -18,-9 -34,-21 -50,-36 -1,-1 -2,-3 -3,-5 -1,-1 -3,-3 -4,-5 -9,-15 -17,-32 -25,-51 -7,-20 -11,-40 -11,-61 0,-9 1,-18 3,-28 2,-9 4,-19 8,-28 5,-12 11,-23 19,-35 8,-12 18,-23 30,-33 11,-9 22,-17 34,-22 12,-6 24,-10 36,-13 7,-1 13,-2 20,-3 7,-1 13,-1 20,-1 33,0 64,7 92,23 28,15 48,31 58,49 0,1 1,2 1,3 0,1 1,1 1,2l-235 165 -16 -28 208 -142z"/>
   <path id="19" class="fil5 str0" d="M10993 3580l0 202c0,38 11,67 32,87 22,19 46,29 71,29 2,0 4,0 5,0 2,0 4,0 5,-1 26,-2 49,-14 70,-33 20,-20 31,-47 31,-82l0 -202 27 0 0 207c0,43 -14,75 -41,97 -27,21 -56,32 -89,33 -1,0 -2,0 -3,0 0,0 -1,0 -1,0 -1,0 -1,0 -2,0 0,0 0,0 -1,0 -33,0 -63,-11 -90,-33 -27,-21 -41,-53 -41,-97l0 -207 27 0z"/>
   <path id="20" class="fil5 str0" d="M11337 4065l-27 0 0 -339c0,-8 0,-17 2,-26 1,-9 4,-18 7,-28 9,-24 24,-47 47,-68 23,-21 56,-33 97,-35 52,0 91,16 119,49 27,33 42,69 45,108 1,2 1,5 1,7 0,2 0,4 0,6 0,10 -1,21 -2,35 -1,13 -5,27 -10,41 -7,21 -20,41 -38,60 -18,18 -46,31 -82,37 -2,0 -4,0 -7,0 -2,0 -5,1 -7,1 -3,0 -5,0 -7,0 -3,0 -5,0 -7,0 -4,0 -7,0 -11,0 -4,0 -8,-1 -11,-1 -16,-2 -31,-7 -45,-13 -14,-6 -26,-16 -37,-30l0 -27c3,3 6,6 10,9 4,3 8,7 13,10 7,5 15,10 24,15 9,5 18,9 28,12 4,1 9,3 13,3 4,1 9,1 13,1 0,0 1,0 1,0 1,0 1,0 2,0 0,0 1,0 1,0 0,0 0,0 0,0 2,0 2,0 3,-1 1,0 2,0 2,0 37,-5 67,-20 90,-46 24,-27 35,-60 35,-101l0 -12c0,-7 0,-14 -2,-22 -1,-8 -3,-15 -5,-23 -8,-23 -22,-43 -43,-63 -21,-19 -49,-28 -86,-28 -38,0 -68,12 -90,37 -21,24 -33,55 -36,93l0 339z"/>
   <path id="21" class="fil5 str0" d="M11722 3421l0 202c10,-17 26,-29 47,-38 21,-9 43,-14 66,-14 1,0 2,0 3,0 1,0 2,0 3,0 30,2 58,13 83,33 26,20 38,52 38,95l0 208 -27 0 0 -191c0,-33 -8,-62 -23,-85 -16,-23 -39,-35 -69,-35l-13 0c-39,0 -67,12 -83,35 -17,24 -25,54 -25,90l0 186 -28 0 0 -486 28 0z"/>
   <path id="22" class="fil5 str0" d="M12186 3569c55,0 96,18 123,54 28,37 42,77 42,121 0,42 -15,81 -44,116 -29,34 -72,52 -128,52l-9 1c-47,-2 -84,-20 -111,-56 -26,-35 -40,-74 -40,-116 0,-1 0,-3 0,-5 0,-1 0,-3 0,-4 2,-40 17,-76 44,-110 28,-33 69,-51 123,-53zm-11 317c1,0 1,0 2,0 0,0 1,0 1,0 1,0 1,0 2,0 0,0 0,0 0,0 1,0 2,0 3,1 0,0 1,0 2,0 41,0 74,-14 96,-42 23,-27 35,-58 36,-91 0,-1 0,-2 0,-2 0,-1 0,-2 0,-2l0 -11c0,-2 0,-3 0,-5 0,-1 0,-3 0,-4 -2,-33 -14,-63 -34,-90 -21,-27 -49,-42 -86,-44l-6 0c-45,0 -80,14 -104,43 -24,29 -37,61 -39,95 0,2 0,3 0,4 0,2 0,3 0,5 0,0 0,1 0,1 0,1 0,1 0,1 0,33 11,63 33,91 21,29 53,45 94,50z"/>
   <path id="23" class="fil5 str0" d="M12446 3580l0 59c8,-15 20,-28 35,-37 15,-9 31,-15 47,-18 5,-2 11,-3 16,-4 6,0 11,0 16,0l18 0 0 27 -13 0c-31,0 -59,11 -83,33 -24,21 -36,54 -36,99l0 168 -27 0 0 -327 27 0z"/>
   <path id="24" class="fil5 str0" d="M12666 3580l0 327 -28 0 0 -327 28 0zm5 -95c0,9 -2,14 -6,18 -5,3 -10,5 -15,5 -6,0 -11,-2 -16,-5 -4,-4 -7,-9 -7,-18 0,-8 3,-14 7,-18 5,-4 10,-5 16,-5 5,0 10,1 15,5 4,4 6,10 6,18z"/>
   <path id="25" class="fil5 str0" d="M12973 3574l0 27 -28 0c-55,0 -97,14 -124,43 -27,28 -40,59 -40,93 0,2 0,3 0,4 0,2 0,3 0,5 2,34 16,66 44,95 27,29 64,43 111,43 4,0 8,0 12,-1 4,0 8,-1 13,-1 0,0 1,0 1,0 1,0 1,0 2,0 1,-1 3,-1 5,-1 1,-1 3,-1 4,-1l0 27c-2,0 -4,0 -7,1 -3,0 -6,0 -8,0 -2,0 -3,0 -5,0 -1,0 -2,0 -3,1 -2,0 -4,0 -6,0 -2,0 -3,0 -5,0 -10,0 -20,-1 -31,-2 -12,-1 -23,-3 -34,-6 -30,-7 -57,-22 -81,-45 -25,-23 -38,-60 -39,-112 0,-64 17,-108 52,-132 35,-24 74,-37 116,-39 2,0 4,0 6,0 2,0 5,0 7,0 3,0 6,0 9,0 4,0 7,1 10,1 3,0 6,0 10,0 3,0 6,0 9,0z"/>
   <polygon id="26" class="fil5 str0" points="13427,3415 13427,3907 13400,3907 13400,3415 "/>
   <path id="27" class="fil5 str0" d="M13789 3645c-11,-13 -25,-24 -42,-32 -18,-8 -35,-13 -53,-15 -3,0 -5,-1 -8,-1 -2,0 -4,0 -6,0 -1,0 -1,0 -2,0 -1,0 -1,0 -2,0 -28,1 -54,10 -80,29 -25,19 -43,48 -54,90 0,1 0,3 0,5 0,1 0,3 0,5 -1,2 -1,4 -2,6 0,2 0,4 0,5 0,6 0,13 1,20 1,6 2,13 4,20 7,25 19,49 37,71 18,21 41,34 69,38 2,0 4,0 5,0 2,0 4,1 5,1 5,1 11,1 15,2 5,0 10,0 15,0 42,0 74,-12 95,-36 20,-24 34,-59 41,-103l28 0c0,53 -17,94 -50,122 -34,29 -72,43 -114,43 -6,0 -12,0 -17,-1 -6,0 -12,-1 -17,-2 -18,-3 -36,-9 -54,-18 -18,-9 -34,-21 -50,-36 -1,-1 -2,-3 -3,-5 -2,-1 -3,-3 -4,-5 -9,-15 -17,-32 -25,-51 -7,-20 -11,-40 -11,-61 0,-9 1,-18 3,-28 1,-9 4,-19 8,-28 4,-12 11,-23 19,-35 8,-12 18,-23 30,-33 11,-9 22,-17 34,-22 12,-6 24,-10 36,-13 6,-1 13,-2 20,-3 6,-1 13,-1 20,-1 33,0 64,7 92,23 28,15 47,31 58,49 0,1 1,2 1,3 0,1 0,1 1,2l-235 165 -16 -28 208 -142z"/>
   <path id="28" class="fil5 str0" d="M14163 3842l0 33c-13,11 -28,19 -46,26 -17,6 -35,10 -53,11 -1,0 -2,0 -3,0 -1,0 -2,0 -3,0l-17 1c-44,-5 -77,-20 -99,-48 -21,-27 -35,-57 -40,-90 -2,-6 -2,-12 -3,-19 0,-6 -1,-13 -1,-19 0,-1 0,-2 0,-3 0,-1 1,-2 1,-2 0,-1 0,-1 0,-2 0,0 0,-1 0,-1 0,-2 0,-3 1,-5 0,-1 0,-2 0,-3 4,-42 16,-74 35,-97 20,-22 41,-38 65,-46 8,-3 16,-5 24,-7 9,-1 17,-2 24,-2 52,0 91,11 116,34 25,23 41,49 47,76 2,8 4,15 4,22 1,6 2,13 2,20l0 186 -27 0 0 -181c0,-34 -9,-60 -25,-78 -17,-19 -35,-32 -54,-41 -10,-4 -21,-7 -31,-8 -10,-2 -19,-3 -26,-3 -28,0 -50,7 -67,20 -17,14 -31,29 -41,46 -6,12 -11,23 -14,34 -3,11 -5,19 -5,25 0,1 0,2 0,3 0,2 0,3 0,5 0,0 0,0 0,1 0,0 0,0 0,0 -1,2 -1,3 -1,5 0,1 0,3 0,4 0,53 13,93 40,118 27,25 56,37 88,37 4,0 8,0 12,-1 3,0 7,-1 12,-1 16,-3 31,-9 46,-18 16,-9 28,-19 39,-32z"/>
   <path id="29" class="fil5 str0" d="M14329 4065l-28 0 0 -339c0,-8 1,-17 2,-26 2,-9 4,-18 7,-28 9,-24 25,-47 48,-68 22,-21 55,-33 96,-35 52,0 91,16 119,49 28,33 43,69 45,108 1,2 1,5 1,7 0,2 0,4 0,6 0,10 -1,21 -2,35 -1,13 -4,27 -10,41 -7,21 -20,41 -38,60 -18,18 -46,31 -82,37 -2,0 -4,0 -7,0 -2,0 -4,1 -7,1 -3,0 -5,0 -7,0 -3,0 -5,0 -7,0 -3,0 -7,0 -11,0 -4,0 -8,-1 -11,-1 -16,-2 -31,-7 -45,-13 -14,-6 -26,-16 -36,-30l0 -27c2,3 5,6 9,9 4,3 8,7 13,10 7,5 15,10 24,15 9,5 19,9 28,12 4,1 9,3 13,3 5,1 9,1 13,1 1,0 1,0 2,0 0,0 1,0 1,0 1,0 1,0 1,0 1,0 1,0 1,0 1,0 2,0 2,-1 1,0 2,0 2,0 37,-5 67,-20 90,-46 24,-27 35,-60 35,-101l0 -12c0,-7 0,-14 -2,-22 -1,-8 -3,-15 -5,-23 -8,-23 -22,-43 -43,-63 -20,-19 -49,-28 -86,-28 -38,0 -68,12 -89,37 -22,24 -34,55 -36,93l0 339z"/>
  </g>
 </g>
</svg>
