<?xml version="1.0" encoding="iso-8859-1"?>
<!-- Generator: Adobe Illustrator 16.0.0, SVG Export Plug-In . SVG Version: 6.00 Build 0)  -->
<!DOCTYPE svg PUBLIC "-//W3C//DTD SVG 1.1//EN" "http://www.w3.org/Graphics/SVG/1.1/DTD/svg11.dtd">
<svg version="1.1" id="Capa_1" xmlns="http://www.w3.org/2000/svg" xmlns:xlink="http://www.w3.org/1999/xlink" x="0px" y="0px"
	 width="793.146px" height="793.146px" viewBox="0 0 793.146 793.146" style="enable-background:new 0 0 793.146 793.146;"
	 xml:space="preserve">
<g>
	<path d="M143.707,705.021c-24.332,0-44.063,19.729-44.063,44.062s19.731,44.062,44.063,44.062
		c24.327-0.002,44.066-19.729,44.066-44.062S168.034,705.021,143.707,705.021z"/>
	<path d="M261.878,705.021c-24.334,0-44.064,19.729-44.064,44.062s19.73,44.062,44.064,44.062
		c24.329-0.002,44.062-19.729,44.062-44.062S286.208,705.021,261.878,705.021z"/>
	<path d="M612.381,705.02c-24.332,0-44.061,19.729-44.061,44.062s19.729,44.064,44.061,44.064c24.33,0,44.066-19.73,44.066-44.064
		S636.711,705.02,612.381,705.02z"/>
	<path d="M143.708,674.52c-2.745,0-5.45,0.166-8.117,0.455h134.404c-2.667-0.289-5.373-0.455-8.117-0.455H143.708z"/>
	<path d="M733.08,369.486c-1.584-4.148-3.383-10.52-4.523-18.972c9.938-4.005,16.98-13.707,16.98-25.05
		c0-12.109-8.047-22.25-19.027-25.691V85.314c19.916-3.773,35.053-21.25,35.053-42.252C761.562,19.327,742.248,0,718.498,0
		c-23.754,0-43.061,19.326-43.061,43.062c0,1.754,0.312,3.443,0.512,5.134L88.628,465.453H64.556v84.344H18.49v59.082v5.01h47.178
		l0.122,21.027h189c5.006-149.215,438.576-557.053,438.576-557.053c5.008,3.644,10.795,6.26,17.123,7.451v214.465
		c-10.988,3.441-19.031,13.58-19.031,25.689c0,12.977,9.172,23.803,21.373,26.412c1.08,8.482,2.666,16.463,5.291,23.35
		c3.004,7.79,12.111,11.562,19.215,13.361c-2.188,10.421-9.354,18.747-17.09,18.747c-8.557,0-13.551-16.413-14.426-20.812
		l-15.725,3.049c2.426,12.55,11.5,33.784,30.146,33.784c20.221,0,33.805-21.359,33.805-41.309v-7.168l-7.119-0.802
		C741.186,373.443,734.172,371.037,733.08,369.486z M136.659,553.801H94.598v-59.088h42.061V553.801z M214.772,614.889h-44.066
		V489.707h44.066V614.889z M245.889,514.232l-1.075-55.568l-67.921-1.428l346.482-266.987
		C413.338,275.04,245.889,514.232,245.889,514.232z M718.496,70.101c-14.914,0-27.039-12.125-27.039-27.039
		c0-14.909,12.125-27.039,27.039-27.039c14.912,0,27.043,12.13,27.043,27.039C745.539,57.976,733.408,70.101,718.496,70.101z"/>
	<path d="M766.289,687.65c0.395-77.361-11.9-182.373-51.758-208.957c-44.645-29.764-132.461-4.248-144.752-0.459h-8.906v164.439
		c-12.225,4.885-21.58,11.398-28.727,18.477l-5.889-182.457h-30.043l1.799,161.793H277.386v7.238v4.422h-22.498v-10.42H52.957
		v17.227H17.525v16.021v9.34h20.029v14.705H22.957v32.039H56.29h14.667h0.396c3.205-12.904,9.777-24.473,18.718-33.74
		c11.791-12.219,27.711-20.414,45.521-22.344c2.667-0.289,5.373-0.453,8.117-0.453h118.169c2.745,0,5.45,0.164,8.117,0.453
		c31.313,3.395,56.809,26.164,64.239,56.084h15.77h27.62h165.14c8-30.984,36.139-53.873,69.621-53.873s61.619,22.889,69.619,53.873
		h67.617h14.982h11.018V703.99v-16.34H766.289L766.289,687.65z M629.406,586.85h-38.053v-92.133h38.053V586.85z M730.557,586.85
		h-79.117v-92.133h49.07C731.555,513.744,730.557,586.85,730.557,586.85z"/>
</g>
<g>
</g>
<g>
</g>
<g>
</g>
<g>
</g>
<g>
</g>
<g>
</g>
<g>
</g>
<g>
</g>
<g>
</g>
<g>
</g>
<g>
</g>
<g>
</g>
<g>
</g>
<g>
</g>
<g>
</g>
</svg>
