<?xml version="1.0" encoding="utf-8"?>
<!-- Generator: Adobe Illustrator 18.0.0, SVG Export Plug-In . SVG Version: 6.00 Build 0)  -->
<!DOCTYPE svg PUBLIC "-//W3C//DTD SVG 1.1//EN" "http://www.w3.org/Graphics/SVG/1.1/DTD/svg11.dtd">
<svg version="1.1" id="Layer_1" xmlns="http://www.w3.org/2000/svg" xmlns:xlink="http://www.w3.org/1999/xlink" x="0px" y="0px"
	 viewBox="0 0 960 560" enable-background="new 0 0 960 560" xml:space="preserve">
<polygon fill="#FFFFFF" stroke="#000000" stroke-width="12" stroke-miterlimit="10" points="475,413 636,413 636,413 636,77.4 
	308.5,413 308.5,413 "/>
<circle fill="#FFFFFF" stroke="#000000" stroke-width="12" stroke-miterlimit="10" cx="541.3" cy="311.7" r="93.7"/>
<path d="M600.7,250c0,6.1,0,12.1,0,18.2c0,1-0.2,1.3-1.2,1.3c-10,0-20,0-29.9,0c-1,0-1.3,0.3-1.4,1.2c-1.3,10.3-2.7,20.6-3.6,31
	c-1.1,12.9-1.8,25.7-1,38.6c0.3,5.8,2.5,11.1,7.5,14.6c5.8,4.1,15.6,4.5,21.2-1.7c2.3-2.6,3.3-5.6,3.9-8.9c0.2-1,0.5-1.4,1.5-1.2
	c0.4,0,0.7,0,1.1,0c1.9-0.1,2,0,1.7,1.8c-1,5.9-2.1,11.7-4.4,17.3c-3.2,7.7-8.3,13.7-16,16.9c-7.4,3-15.4,1.5-21.5-4.7
	c-4.3-4.3-6.4-9.7-7.7-15.5c-1.5-7-2.1-14-2.1-21.1c0-7-0.1-14,0.4-20.9c0.3-5.4,0.9-10.8,1.4-16.2c0.6-6.1,1.2-12.2,1.9-18.3
	c0.4-3.9,1-7.7,1.5-11.5c0.1-0.9,0-1.2-1.1-1.2c-10.5,0.1-20.9,0.1-31.4,0.1c-0.9,0-1.1,0.2-1.2,1.1c-0.5,7.7-1.1,15.5-1.6,23.2
	c-0.8,11.7-1.7,23.5-3.5,35.2c-1.5,10.5-3.2,21.1-5.9,31.4c-1.2,4.8-2.6,9.6-5.7,13.7c-1.1,1.5-2.4,2.9-3.8,4.1
	c-3.4,3-8.7,2.7-12.5,0.5c-5.9-3.4-7-10.1-4.3-16.2c1-2.3,2.4-4.3,3.8-6.3c3-4.3,6.1-8.4,8.4-13.1c2.5-5,3.8-10.4,5-15.9
	c1.8-8.6,2.5-17.2,3.1-25.9c0.7-10.3,1.5-20.5,2.3-30.8c0.1-0.8-0.1-1-0.9-1c-4.5,0-8.9,0.2-13.3,1.3c-5.2,1.3-9.1,4.3-12.5,8.3
	c-2.4,2.9-4.6,6.1-6.5,9.3c-0.3,0.5-0.7,0.8-1.3,0.7c-1.1-0.1-2.2,0-3.3,0c0-0.1,0-0.3,0-0.4c2.4-9.2,5.8-17.9,11.7-25.6
	c2.3-3.1,5-5.8,8.1-8.1c3.1-2.4,6.8-3.5,10.6-4.2c2.1-0.4,4.2-0.5,6.4-0.5c0.4,0,0.8,0.1,1.2-0.1c0.6,0,1.2,0,1.8,0
	c0.3,0.2,0.6,0.1,0.9,0.1c0.3,0,0.6,0.1,0.9-0.1c0.4,0,0.9,0,1.3,0c0.4,0.2,0.8,0.1,1.2,0.1c5.3,0,10.6,0,15.9,0c4.8,0,9.6,0,14.4,0
	c5.2,0,10.3,0,15.5,0c1.8,0,3.6,0,5.4,0c1.6,0,3.1,0,4.7,0c1.8,0,3.5,0,5.3,0c1.8,0,3.7,0,5.5,0c1.6,0,3.3,0,4.9,0
	c1.7,0,3.4,0,5.1,0c1.6,0,3.2,0,4.8,0c1.6-0.1,3.3,0.1,4.9-0.1C598.9,250,599.8,250,600.7,250z"/>
</svg>
