<?xml version="1.0" encoding="utf-8"?>
<!-- Generator: Adobe Illustrator 18.0.0, SVG Export Plug-In . SVG Version: 6.00 Build 0)  -->
<!DOCTYPE svg PUBLIC "-//W3C//DTD SVG 1.1//EN" "http://www.w3.org/Graphics/SVG/1.1/DTD/svg11.dtd">
<svg version="1.1" id="Layer_1" xmlns="http://www.w3.org/2000/svg" xmlns:xlink="http://www.w3.org/1999/xlink" x="0px" y="0px"
	 viewBox="0 0 640 480" enable-background="new 0 0 640 480" xml:space="preserve">
<g>
	<path d="M152.3,392.1c0-3.1,0-6,0-8.9c0-0.3,0.5-0.8,0.8-0.9c0.8-0.3,1.7-0.4,2.6-0.6c2.6-0.6,4.9-1.8,7.1-3.3
		c4.6-3.1,5.4-9.7,3.2-14c-1.5-2.8-3.8-5-6.6-6.4c-3.4-1.8-7-3.2-10.5-4.8c-2.4-1-4.7-2-7.1-3c-2.7-1.2-5.5-2.5-8.2-3.5
		c-2.5-0.9-4.6-2.3-6.9-3.6c-3.7-2.1-6.9-4.7-9.8-7.7c-1.8-1.8-3.3-4-4.6-6.2c-5.3-9.1-5.5-18.7-2.5-28.6c1.2-3.8,3.1-7.3,5.5-10.4
		c2.3-3,4.9-5.6,8.1-7.5c2.9-1.8,5.8-3.7,9.2-4.5c2.2-0.6,4.2-1.4,6.4-2c1.2-0.3,2.4-0.4,3.7-0.6c2.1-0.2,4.2-0.4,6.4-0.6
		c0.3,0,0.7,0,1.1,0c0,3.1,0,6.1,0,9.1c-1.5,0.6-2.9,1.3-4.4,1.8c-1.8,0.6-3.1,1.9-4.5,3.2c-3.7,3.7-3.3,10.5,0.2,14.4
		c1.8,2.1,4.2,3.7,6.7,4.9c3.3,1.6,6.6,3.1,10,4.5c3.8,1.6,7.6,3.2,11.4,4.8c3,1.3,5.9,2.6,8.8,4c0.8,0.4,1.5,1,2.3,1.5
		c2.2,1.4,4.2,3,6.1,4.7c3.6,3.2,6.4,7,8.4,11.3c2.1,4.4,2.9,9.1,2.9,13.9c0,4.9-0.9,9.7-3,14.1c-2.1,4.7-5,8.8-8.9,12.2
		c-2.2,1.9-4.5,3.8-7,5.3c-2.4,1.5-5,2.6-7.6,3.6c-1.8,0.7-3.8,1.1-5.8,1.6c-1.5,0.4-3,0.8-4.5,1.2c-0.8,0.2-1.7,0.4-2.5,0.5
		C156.7,391.8,154.6,391.9,152.3,392.1z"/>
	<path d="M379.3,389.5c-0.5,0-0.9,0-1.3,0c-13.6,0-27.3,0-40.9,0c-1.7,0-3.4,0-4.9-0.8c-1.9-1-2.6-2.6-1.9-4.8
		c0.5-1.7,1.7-2.4,3.3-2.8c1-0.3,2-0.5,3-1c1.5-0.7,2.4-2,2.6-3.6c0.1-0.9,0.2-1.8,0.2-2.7c0-27.1,0-54.3,0-81.4
		c0-1.1-0.1-2.2-0.4-3.3c-0.4-2-1.9-2.9-3.8-3.3c-1-0.2-2-0.5-2.9-1c-1.9-1-2.7-3.5-1.8-5.4c0.7-1.5,2.1-2.1,3.6-2.2
		c2.5-0.3,4.9-0.4,7.4-0.4c13.7,0,27.3,0,41,0c1.7,0,3.6,0.3,5.2,0.9c2.1,0.8,2.9,1.4,2.9,3.6c0.1,1.8-0.9,3.3-2.8,4
		c-0.7,0.3-1.6,0.4-2.3,0.6c-1.2,0.3-2.4,0.4-3.4,0.9c-1.4,0.6-2.1,2-2.4,3.4c-0.2,1-0.2,2.1-0.2,3.1c0,31.5,0,63,0,94.5
		C379.3,388.4,379.3,388.9,379.3,389.5z"/>
	<path d="M478,389.5c-0.5,0-0.9,0-1.3,0c-13.6,0-27.1,0-40.7,0c-1.9,0-3.7,0-5.5-1c-0.3-0.2-0.6-0.4-0.8-0.6c-1.8-2-0.9-5.5,1.6-6.4
		c1.3-0.5,2.6-0.8,3.8-1.3c1.5-0.6,2.3-1.7,2.6-3.2c0.2-0.9,0.2-1.8,0.2-2.7c0-27.4,0-54.8,0-82.1c0-0.7,0-1.4-0.1-2
		c-0.6-2.8-1.5-3.6-4.2-4.2c-2-0.4-3.8-1.1-4.5-3.1c-0.8-2.3-0.3-4.1,2.1-5.1c1.3-0.5,2.7-0.8,4.1-0.9c14-0.1,27.9,0,41.9,0
		c0.2,0,0.4,0,0.8,0C478,314.4,478,351.9,478,389.5z"/>
	<path d="M267.4,392c0-2.9,0-5.7,0-8.5c0-0.3,0.5-0.7,0.8-0.8c3.2-0.6,5.3-2.6,6.5-5.6c1-2.6,1.3-5.4,1.3-8.2c0-24.5,0-49,0-73.6
		c0-1.2-0.1-2.5-0.3-3.7c-0.6-3.9-3.1-6.2-6.5-7.6c-0.5-0.2-1-0.4-1.6-0.6c0-2.8,0-5.6,0-8.5c1.2,0,2.4-0.1,3.6,0
		c1.3,0.1,2.7,0.3,4,0.5c3.4,0.4,6.6,1.7,9.9,2.8c3,1,5.6,2.8,8.4,4.2c1.2,0.6,2.3,1.7,3.4,2.5c3.6,2.6,6.7,5.7,9.5,9.1
		c6.5,8,10.1,17.2,11.6,27.3c1.4,9.3,1.2,18.6-0.7,27.9c-1,4.9-2.6,9.5-4.8,14c-1.9,3.9-4.3,7.5-7.3,10.7c-2.4,2.6-5,5-7.7,7.2
		c-3.9,3.1-8.3,5.4-12.8,7.2c-2.4,0.9-4.9,1.5-7.4,2.1c-3,0.7-6,1.1-9,1.6C268,392,267.7,392,267.4,392z"/>
	<path d="M259.8,274.8c0,3,0,5.7,0,8.4c0,0.2-0.4,0.4-0.6,0.6c-1.9,0.9-4,1.7-5.4,3.4c-1.7,2-2.2,4.5-2.3,7c0,0.7,0,1.4,0,2
		c0,23.8,0,47.7,0,71.5c0,3,0,6.1,0.9,9c0.8,2.8,2.5,4.7,5.4,5.5c0.5,0.1,1,0.3,1.5,0.5c0.2,0.1,0.5,0.4,0.5,0.7c0,2.8,0,5.7,0,8.6
		c-1.7-0.2-3.2-0.3-4.7-0.5c-1-0.2-2.1-0.4-3.1-0.7c-2.5-0.7-5-1.5-7.6-2.1c-2.5-0.5-4.7-1.7-6.9-2.9c-2.2-1.2-4.3-2.6-6.4-3.9
		c-3.1-1.9-5.7-4.5-8.1-7.1c-3.8-4.1-6.9-8.8-9.1-14c-3.1-6.9-4.5-14.2-5-21.7c-0.5-6.7-0.1-13.4,1.1-20c1.2-6.5,3.4-12.8,6.7-18.5
		c2.2-3.9,4.9-7.4,8.1-10.6c2.8-2.8,5.8-5.3,9.1-7.4c3.2-2,6.6-3.9,10.3-4.9c2.3-0.6,4.5-1.4,6.7-2c0.6-0.2,1.2-0.1,1.8-0.2
		C255,275.2,257.3,275,259.8,274.8z"/>
	<path d="M486.4,276.7c3.3,0.3,6.5,0.6,9.7,1c2.1,0.3,4.1,0.6,6.1,1.2c2,0.6,3.9,1.5,5.8,2.3c4.6,2.1,8.9,4.8,12.5,8.3
		c2,1.9,4,3.7,5.7,5.9c6.6,8.3,9.7,18,11,28.4c0.9,7.3,0.7,14.5-0.5,21.8c-1,6.3-3,12.3-6,18c-2,3.8-4.5,7.3-7.4,10.5
		c-2.5,2.8-5.4,5.3-8.5,7.5c-4,2.7-8.3,4.8-12.8,6.5c-0.8,0.3-1.7,0.4-2.6,0.6c-4,0.7-8,1.2-12.1,1c-0.3,0-0.7,0-1.1,0
		c0-2.8,0-5.5,0-8.1c0-0.2,0.4-0.5,0.7-0.7c1.7-0.7,3.5-1.1,5-2c2.5-1.4,3.6-3.9,4-6.7c0.3-2,0.4-4,0.4-6.1c0-21.7,0-43.3,0-65
		c0-3.4-0.4-6.7-1.9-9.9c-1.3-2.5-3.4-3.9-6-4.7c-0.7-0.2-1.4-0.4-2.2-0.6C486.4,283,486.4,280,486.4,276.7z"/>
	<path d="M145.4,392.2c-2.1-0.3-4.1-0.5-6-1c-2.2-0.5-4.3-1.1-6.5-1.8c-2.6-0.9-5.1-2-7.7-3c-2.6-1-5.6-1.3-7.7,1.4
		c-0.7,0.9-1.7,1.8-2.8,2.4c-2.5,1.3-5.4,0.3-6.3-2.6c-0.4-1.3-0.6-2.8-0.6-4.2c0-9.7,0-19.5,0-29.2c0-2.4,0.7-4.5,3.1-5.5
		c2.3-1.1,4.6-0.6,5.9,1.8c0.6,1,0.8,2.2,1.3,3.3c1.2,3,2.3,6.1,3.7,9c2,4.2,4.9,8,8.2,11.3c3.1,3.1,6.6,5.7,10.7,7.3
		c1.1,0.4,2.2,0.6,3.4,0.8c1,0.2,1.4,0.5,1.4,1.5C145.4,386.5,145.4,389.2,145.4,392.2z"/>
	<path d="M421.2,389.5c-11.5,0-22.9,0-34.5,0c0-1.6,0-3.1,0-4.6c0-1.1,0-2.3,0-3.4c0-0.7,0.3-0.9,0.9-1.1c2.2-0.6,4.4-1.1,6.6-1.7
		c2.2-0.6,4-2,5.8-3.4c3.5-2.9,6.1-6.6,8-10.7c1.5-3.3,2.7-6.7,4.1-10c0.6-1.4,1.2-2.9,2.8-3.4c3-1,6-0.2,6.2,3.3
		c0.1,0.7,0.1,1.4,0.1,2.1c0,10.6,0,21.3,0,31.9C421.3,388.7,421.2,389,421.2,389.5z"/>
	<path d="M157.4,275.2c2.2,0.2,4.4,0.4,6.5,0.7c1.4,0.2,2.8,0.6,4.2,0.9c1.5,0.4,3.1,0.9,4.6,1.4c2.5,0.8,5,1.8,7.5,2.5
		c1.2,0.3,2.3,0,3.2-1c0.7-0.8,1.5-1.6,2.1-2.5c1.3-1.7,3-2.2,5-1.7c1.7,0.4,2.5,1.8,2.9,3.4c0.3,1.2,0.3,2.4,0.4,3.6
		c0,8.7,0,17.5,0,26.2c0,1.2-0.4,2.4-0.8,3.6c-0.9,2.2-4.4,2.5-6.2,2c-2.5-0.7-3.2-2.6-3.7-4.7c-1-4.8-3.3-9.1-6.1-13.1
		c-1.8-2.6-3.9-4.9-6.5-6.7c-2.4-1.7-4.8-3.6-7.8-4.3c-1.4-0.3-2.8-0.9-4.2-1.3c-0.7-0.2-1.1-0.6-1-1.4c0.1-2.2,0-4.4,0-6.5
		C157.3,276.1,157.4,275.8,157.4,275.2z"/>
</g>
<path d="M160.4,76.7c5.8,1.7,11.7,3.4,17.5,5c5.2,1.5,10.4,3,15.6,4.5c7.5,2.2,14.9,4.4,22.4,6.6c4.6,1.4,9.2,2.7,13.8,4.1
	c4.6,1.4,7.4,7.4,5.5,11.7c-0.7,1.6-2.2,2.6-3.9,3.1c-4.1,1.3-8.2,0.7-12.3-0.4c-5.3-1.4-10.7-2.8-16-4.2c-3.2-0.9-6.5-1.8-9.7-2.7
	c-5.3-1.5-10.6-3.1-15.9-4.6c-3.1-0.9-6.2-1.9-9.4-2.8c-3.3-1-6.5-2-9.8-2.9c-4.3-1.2-6-3.7-5.7-8.2c0.2-3.4,1.5-6.2,4.1-8.3
	C158,77.3,159.2,77,160.4,76.7z"/>
<path d="M128.7,182c7.2-24.8,14.3-49.3,21.5-74.1c25.3,7.3,50.5,14.6,75.9,22c-7.1,24.7-14.3,49.2-21.5,74.1
	C179.3,196.7,154.1,189.4,128.7,182z"/>
<path d="M482.8,228.7c-2.4,8.6-4.8,17-7.3,25.6c-36.5-10.4-73.1-20.8-109.7-31.3c2.5-8.6,4.9-17,7.3-25.6
	C409.7,207.9,446.2,218.3,482.8,228.7z"/>
<path d="M350.5,194c-2.1,7.3-4.2,14.4-6.3,21.7c-42.7-12.5-85.2-24.9-127.9-37.4c2.1-7.2,4.2-14.4,6.3-21.7
	C265.2,169.1,307.8,181.5,350.5,194z"/>
<path d="M196.4,232c-3.1,0.8-5.9,0.6-8.6-0.1c-6.6-1.6-13.2-3.3-19.7-5.2c-8.5-2.4-17-4.9-25.5-7.3c-6.8-2-13.7-3.9-20.5-6.1
	c-1.2-0.4-2.4-1.8-2.8-2.9c-1.4-3.8-1.2-7.6,1.5-11c1.9-2.3,4.3-3,7.1-2.3c2,0.5,3.9,1.1,5.9,1.6c6,1.7,12,3.5,18,5.2
	c7.2,2.1,14.5,4.3,21.7,6.5c7.1,2.1,14.2,4.1,21.3,6.2c3.5,1,5.7,3.5,6.7,6.9C202.6,227.4,200.4,231.2,196.4,232z"/>
<path d="M518,243.1c0.3,1.6,0.8,3.2,0.9,4.9c0.3,5.1-2.5,8.9-5.9,12.2c-1.9,1.8-4,3.6-6.3,4.7c-6.3,3-12.7,3.4-18.8-0.6
	c-2.5-1.7-4.6-3.9-6.9-5.8c-0.7-0.6-0.8-1.3-0.6-2.2c1.6-5.5,3.1-11.1,4.7-16.6c0.9-3.4,1.8-6.7,2.7-10.1c0.3-1.1,0.7-2,2-2.4
	c7.6-2.4,14.6-2,21,3.2C514.1,233.2,516.5,237.6,518,243.1z"/>
<path d="M200.6,205.3c-0.8,2.9-1.6,5.7-2.4,8.6c-23-6.5-46-13-69.2-19.5c0.8-2.9,1.6-5.7,2.4-8.6
	C154.6,192.4,177.5,198.8,200.6,205.3z"/>
<path d="M223.4,124.7c-23.1-6.5-46.1-13-69.2-19.5c0.8-2.8,1.6-5.6,2.4-8.6c23.1,6.5,46.1,13,69.2,19.5
	C225,118.9,224.2,121.7,223.4,124.7z"/>
<path d="M359.6,227.3c-4.3-1.2-8.4-2.3-12.7-3.5c3.4-12.4,6.7-24.7,10.1-37.2c4.3,1.2,8.4,2.3,12.7,3.5
	C366.3,202.5,363,214.8,359.6,227.3z"/>
</svg>
