<?xml version='1.0' encoding='iso-8859-1'?>
<svg version="1.1" xmlns="http://www.w3.org/2000/svg" viewBox="0 0 225.594 225.594" xmlns:xlink="http://www.w3.org/1999/xlink" enable-background="new 0 0 225.594 225.594">
  <g>
    <path d="m181.167,163.108c-6.752,0-13.008-3.328-20.256-7.184-7.478-3.979-15.952-8.489-25.465-8.489-7.936,0-15.382,3.032-22.65,9.243-7.269-6.211-14.716-9.243-22.651-9.243-9.512,0-17.996,4.515-25.481,8.497-7.238,3.849-13.49,7.173-20.242,7.173-3.006,0-5.944-0.674-8.981-2.06l-28.998-13.232 13.468,32.079c3.604,8.585 9.79,17.21 17.417,24.285 12.06,11.185 26.144,17.345 39.658,17.345 13.691,0 25.712-5.886 35.809-17.513 10.097,11.627 22.118,17.513 35.81,17.513 13.517,0 27.602-6.16 39.658-17.345 7.627-7.074 13.813-15.698 17.418-24.283l13.471-32.076-28.995,13.228c-3.047,1.388-5.987,2.062-8.99,2.062z"/>
    <path d="M59.953,123.98c22.835,0,42.723-12.835,52.844-31.667c10.121,18.832,30.009,31.667,52.844,31.667   c33.059,0,59.953-26.895,59.953-59.953S198.699,4.072,165.641,4.072c-22.835,0-42.723,12.836-52.844,31.668   C102.676,16.908,82.788,4.072,59.953,4.072C26.895,4.072,0,30.968,0,64.026S26.895,123.98,59.953,123.98z M165.641,34.072   c16.517,0,29.953,13.438,29.953,29.954S182.157,93.98,165.641,93.98c-16.517,0-29.953-13.437-29.953-29.953   S149.124,34.072,165.641,34.072z M59.953,34.072c16.517,0,29.953,13.438,29.953,29.954S76.47,93.98,59.953,93.98   S30,80.543,30,64.026S43.437,34.072,59.953,34.072z"/>
  </g>
</svg>
