<?xml version="1.0" encoding="iso-8859-1"?>
<!-- Generator: Adobe Illustrator 18.0.0, SVG Export Plug-In . SVG Version: 6.00 Build 0)  -->
<!DOCTYPE svg PUBLIC "-//W3C//DTD SVG 1.1//EN" "http://www.w3.org/Graphics/SVG/1.1/DTD/svg11.dtd">
<svg version="1.1" id="Capa_1" xmlns="http://www.w3.org/2000/svg" xmlns:xlink="http://www.w3.org/1999/xlink" x="0px" y="0px"
	 viewBox="0 0 479.331 479.331" style="enable-background:new 0 0 479.331 479.331;" xml:space="preserve">
<path d="M473.591,106.152l-62.368-83.701l3.083-10.231c1.512-5.014-1.328-10.303-6.342-11.814
	c-5.016-1.51-10.303,1.329-11.814,6.341l-3.045,10.105l-99.69,26.774c-1.922,0.516-3.28,2.224-3.352,4.211
	c-0.071,1.987,1.162,3.789,3.041,4.44l80.865,28.062l-22.089,73.287H166.916L123.084,28.451
	c-3.326-9.501-13.665-14.566-23.213-11.37L17.41,44.686C7.772,47.913,2.574,58.343,5.8,67.981
	c3.227,9.64,13.658,14.837,23.296,11.61l65.246-21.842l33.571,95.877H87.537c-24.571,33.834-39.074,75.453-39.074,120.466
	c0,113.351,91.889,205.239,205.238,205.239c113.351,0,205.239-91.888,205.239-205.239c0-45.013-14.503-86.633-39.073-120.466
	h-48.181L391.9,86.562l76.574,26.573c1.879,0.652,3.963,0.002,5.139-1.602C474.787,109.929,474.778,107.746,473.591,106.152z
	 M103.863,260.787c0-12.343,10.006-22.348,22.349-22.348s22.349,10.005,22.349,22.348c0,12.343-10.006,22.349-22.349,22.349
	S103.863,273.13,103.863,260.787z M156.04,332.387c-12.342,0-22.349-10.006-22.349-22.349c0-12.343,10.007-22.348,22.349-22.348
	c12.344,0,22.349,10.005,22.349,22.348C178.388,322.381,168.383,332.387,156.04,332.387z M183.802,283.136
	c-12.343,0-22.35-10.006-22.35-22.349c0-12.343,10.007-22.348,22.35-22.348c12.342,0,22.349,10.005,22.349,22.348
	C206.151,273.13,196.144,283.136,183.802,283.136z"/>
<g>
</g>
<g>
</g>
<g>
</g>
<g>
</g>
<g>
</g>
<g>
</g>
<g>
</g>
<g>
</g>
<g>
</g>
<g>
</g>
<g>
</g>
<g>
</g>
<g>
</g>
<g>
</g>
<g>
</g>
</svg>
