<?xml version="1.0" encoding="utf-8"?>
<!-- Generator: Adobe Illustrator 18.0.0, SVG Export Plug-In . SVG Version: 6.00 Build 0)  -->
<!DOCTYPE svg PUBLIC "-//W3C//DTD SVG 1.1//EN" "http://www.w3.org/Graphics/SVG/1.1/DTD/svg11.dtd">
<svg version="1.1" id="Layer_1" xmlns="http://www.w3.org/2000/svg" xmlns:xlink="http://www.w3.org/1999/xlink" x="0px" y="0px"
	 viewBox="0 0 960 560" enable-background="new 0 0 960 560" xml:space="preserve">
<path fill="#221916" d="M664.8,156.4c-5.2,15.4-11.7,30.1-23.6,41.7c-2.9,2.8-3.7,6.5-5.1,10c-2.9,7.4-6.2,10.9-12.3,12.6
	c-1,0.3-1.9-0.6-1.6-1.6c0.4-1.6,1.2-3.1,1.2-4.8c0-1.6,0-3.1,0-5c0-1.1-1.2-1.7-2.1-1.1c-3.2,2.1-6.2,4-8.9,6.1
	c-2.3,1.8-3.4,1.4-4.1-1.3c-0.4-1.6-1.2-3.1-1.9-4.6c-1.5-3.5-2.3-3.7-5.4-1.4c-0.4,0.3-0.9,0.8-1.3,1.1c-4.9,5.1-8.8,4.5-11.6-2.2
	c-1.1-2.5-1.9-2-3.4-0.8c-2.6,2-5.4,3.8-8,5.8c-1.5,1.1-2.4,1.1-3.3-0.7c-1.2-2.5-2.8-4.9-4-7.5c-0.9-1.9-1.8-1.7-3.1-0.5
	c-2.9,2.8-5.9,5.5-8.8,8.2c-0.1,0.1-0.2,0.2-0.2,0.2c-0.8,0.8-2.2,0.3-2.3-0.9c-0.2-3.8-0.4-7.6-0.6-11.4c-0.1-1.6,0.4-4-0.9-4.5
	c-1.6-0.6-3,1.3-4.3,2.6c-6.3,6-7.5,13.4-5.2,21.5c0.8,2.8,2.5,5.1,5.6,5.8c2.3,0.5,4.2,0,5.6-2c0.4-0.6,0.7-1.2,1.2-1.7
	c1.2-1.3,2.1-3.9,4-3.4c1.4,0.4,0.5,3,0.5,4.5c-0.1,2.3,0.7,3,2.9,2.4c1-0.3,2.1-0.2,3.2-0.3c7.6-0.8,7.8-0.9,9.6,6.5
	c0.8,3.4,1.9,3.9,4.8,1.9c2.3-1.5,4.7-2.7,7.4-4.2c0.9-0.5,2,0.2,2,1.2v6.9c0,1.1,1.3,1.7,2.2,1c1.4-1.1,2.7-2.1,3.8-3.2
	c1.4-1.4,2.3-1.3,3.7,0.2c4.9,5.3,5,5.2,10.1,0.1c1.5-1.5,3.1-2.9,4.6-4.4c0.7-0.8,1.4-1.1,2.4-0.5c1.3,0.8,1.3,1.9,0.5,3.3
	c-1,1.7-1.7,3.5-2.4,5.4c-2.3,6.3-5.2,12.1-6.6,18.8c-2,9.8-7.5,17.1-16.6,21.6c-1.3,0.6-2.5-0.9-1.7-2c0,0,0-0.1,0.1-0.1
	c0.8-1-0.2-2.4-1.4-2.1c-2.5,0.7-4.9,1.4-7.3,2.1c-1.8,0.5-2.8,0.3-3.2-1.8c-3.2-15.8-18.2-24.1-33.1-17.9
	c-11.6,4.8-19.8,13.4-21.9,25.9c-1.4,8.6-1.7,17.6,1.1,26.3c0.3,0.9,0.5,1.7-0.9,1.6c-3-5.1-6.1-10.1-9-15.2
	c-0.9-1.6-1.6-1.8-3.1-0.4c-5,4.6-6.8,10.6-7.7,17c-0.9,6.6-0.9,13.2-0.9,19.8c0,0,0,0,0,0c0,1.4-1.7,1.9-2.4,0.8
	c-2.3-3.4-4.5-6.8-6.7-10.1c-3.4-5.2-3.7-5.3-7.1,0.1c-6.1,9.8-10.5,20.3-10,32.2c0.1,3.9,0.2,7.8,0.3,11.7c-0.4,1.7-1,0.7-1.6,0.2
	c-1.4-2.1-2.8-4.2-4.4-6.5c-0.6-0.9-2.1-0.7-2.4,0.3c-4,13.1-10.9,24.9-12.8,38.3c0,0.3-0.1,0.5-0.3,0.8c-0.4,0.5-0.6,1.1-1,1.6
	c-1.5,2.4-0.1,4.6,1,6.8c0.2,0.5,0.2,1.1-0.2,1.5c-2.9,3.2,1.6,23.2-4.2,22c-2.1-0.4-11.6-15.8-13.1-13.1c-0.1,0.1-0.1,0.2-0.2,0.3
	c-1.1,0.2-1.4,0.3-2.5,0.5c-3.3-2.9-6.4-6.1-9.4-9.4c-0.2-0.3-0.4-0.6-0.3-0.9c0-3.9,0.1-7.8,0-11.7c0-1.1-0.1-2.3-1.8-1.4
	c-7.5,4.1-15.1,8.2-22.6,12.4c-1.7,1-2.3,0.6-2.3-1.3c0-4-0.4-8-0.2-12c0.1-2.6-0.8-2.9-3.1-2.7c-6.9,0.7-13.7,2.2-20.8,1.4
	c-5-0.5-6.3-1.8-4.2-6.5c3.7-8.3,5.5-17.2,9-25.5c-0.7-0.7-1.3-0.5-1.8-0.2c-6.9,3.2-14.3,2.3-21.6,2.4c-3,0-1.5-1.6-0.8-2.7
	c4.9-9,9.8-18,14.7-27c1.8-3.3,1.8-3.4-2.1-3.4c-2.9,0-5.9,0-8.8,0.2c-1,0-2,0.1-2.5-0.9c-0.5-1,0.3-1.8,0.9-2.5
	c5-6.1,10-12.2,15-18.2c-0.2-0.4-0.3-0.7-0.5-0.7c-4.9-1.1-4.9-1.1-3.9-6.1c0.6-2.8,1-5.6,1.7-8.3c0.7-2.8-0.4-2.8-2.5-1.9
	c-2.8,1.2-5.7,2.2-8.5,3.5c-4,1.9-8.1,2.1-12.4,2.1c-2,0-2.3-0.8-2.1-2.6c0.6-5.2,0.9-10.4,1.5-15.5c0.3-2.5-0.3-3.4-3-3.1
	c-6.2,0.6-12.5,0.8-18.7,1.4c-2.6,0.3-3.3,0.1-2.7-2.8c1.7-7.5,2.9-15.1,4.6-22.6c0.6-3-0.3-3.1-2.6-2.1c-2.8,1.2-5.6,2.7-8.5,3.4
	c-13.6,3-25.8,1.3-34.9-10.6c-2.9-3.8-6-7.6-9-11.4c-0.8-1.1-1.6-2.2-0.3-3.4c1.4-1.3,2.1,0.3,3,0.8c11.2,6.8,23.3,11.3,36.3,13.3
	c5,0.8,10.7-0.4,15.4-2.7c1.1-0.6,0.9-2.2-0.3-2.5c-13.4-3-26.6-5.9-34.8-18.1c-0.7-1,0.3-2.4,1.5-2c21.5,6.3,42.8,5.7,63.8-2.3
	c1.1-0.4,1.2-1.9,0.1-2.4c-1.6-0.8-3.6-1.1-5.5-1.4c-4.5-0.8-9.1-1.2-13.6-2.1c-3.9-0.8-7.4-2.4-9.6-6.1c-1.1-1.9-1.4-3.1,1.7-3
	c11.5,0.3,22.9,0.2,34.1-2.7c3.5-0.9,6.9-1.7,10.4-3c1.2-0.5,1.1-2.2-0.1-2.5c-0.4-0.1-0.7-0.2-1-0.3c-8.8-3.6-17.7-7.1-26.6-10.6
	c-1.3-0.5-3.7-0.6-3.5-2.3c0.3-2.4,2.8-1.5,4.4-1.5c9.3,0.1,18.7,0.4,28,0.4c7.2,0,14.3-1,21-4c0.7-0.3,1.3-0.6,1.9-1
	c2.2-1.2,4.8-2.4,4.8-4.6c0-1.7-3.8-1.5-5.8-2.1c-5-1.6-9.8-3.5-13.8-6.9c-1.5-1.2-2.7-2.6-3.9-4.2c-0.6-0.9,0-2.2,1.1-2.1
	c3,0,5.6,1,8.1,1.8c8.4,2.9,17,5,26,4.5c4.4-0.3,8.4-1.1,11.3-4.9c1.3-1.7,1.7-2.5-1-3.6c-9.4-3.9-14.7-11.9-18.4-20.9
	c-0.9-2.1,0.7-1.8,1.9-1.4c3.4,1.1,6.8,2.2,9.8,4.1c10,6.4,21.1,8.5,32.8,8.6c2.1,0,2.8-0.2,1.6-2.5c-3.3-6.3-6.3-12.7-9.4-19
	c-0.5-1-1.4-2.1-0.1-3.1c1.3-1.1,2,0,2.9,0.8c4.1,3.6,8.1,7.2,12.3,10.7c11.3,9.5,25.5,11.6,37.8,3.6c12.1-7.9,24.1-9.7,38-6.6
	c14.1,3.1,28.7,4.3,42.7,8.1c6,1.6,11,4.8,15.4,9.1c4.7,4.6,10.5,6.3,16.8,7.1c13.1,1.6,26.2,3.8,39.3,5.4c4.7,0.6,9.6,0,14.5-0.3
	C664.7,152.9,665.7,153.8,664.8,156.4z M533,151.2c8.6,1.9,14.8,3.3,21,4.6c0.8,0.2,1.8,1,2.4-0.4c1.5-3.6-2.2-9.7-6-9.8
	c-4-0.1-8-0.1-12,0.1c-3.7,0.2-6.9,1.7-10.4,4.5C530.2,150.6,531.6,150.9,533,151.2z"/>
</svg>
